<?xml version="1.0" standalone="no"?>
<!DOCTYPE svg PUBLIC "-//W3C//DTD SVG 1.1//EN" "http://www.w3.org/Graphics/SVG/1.1/DTD/svg11.dtd" >
<svg>
<metadata>
Created by FontForge 20090914 at Tue Aug 23 17:13:33 2016
 By www-data
Copyright (c) Rosbank, 2005. All rights reserved.
</metadata>
<defs>
<font id="RosbankSansTTSemibold" horiz-adv-x="550" >
  <font-face 
    font-family="Rosbank SansTT Semibold"
    font-weight="400"
    font-stretch="normal"
    units-per-em="1000"
    panose-1="0 0 0 0 0 0 0 0 0 0"
    ascent="800"
    descent="-200"
    x-height="486.999"
    cap-height="674"
    bbox="-35.001 -253 970 837"
    underline-thickness="50"
    underline-position="-50"
    unicode-range="U+0020-U+2265"
  />
<missing-glyph horiz-adv-x="207" 
 />
    <glyph glyph-name=".notdef" horiz-adv-x="207" 
 />
    <glyph glyph-name="space" unicode=" " horiz-adv-x="207" 
 />
    <glyph glyph-name="space" unicode="&#xa0;" horiz-adv-x="207" 
 />
    <glyph glyph-name="exclam" unicode="!" horiz-adv-x="251" 
d="M124 -11c-21.333 0 -39.001 7.5 -53.001 22.5s-21 33.5 -21 55.5c0 23.333 7 42.166 21 56.499s32.333 21.5 55 21.5s40.834 -7.16699 54.501 -21.5s20.5 -33.166 20.5 -56.499c0 -22 -6.83301 -40.5 -20.5 -55.5s-32.167 -22.5 -55.5 -22.5h-1zM188.999 621
c-2 -50.667 -3.99805 -98.6689 -5.99805 -144.002c-0.666992 -19.333 -1.5 -39.166 -2.5 -59.499s-2 -39.666 -3 -57.999s-1.83301 -35.5 -2.5 -51.5s-1 -29.333 -1 -40c-0.666992 -7.33301 -1.16699 -14.5 -1.5 -21.5s-0.5 -10.833 -0.5 -11.5
c0 -7.33301 -2.5 -13.5 -7.5 -18.5s-11.167 -7.5 -18.5 -7.5h-42c-7.33301 0 -13.5 2.5 -18.5 7.5s-7.5 11.167 -7.5 18.5c0 0.666992 -0.166992 4.5 -0.5 11.5s-0.833008 14.167 -1.5 21.5c-0.666992 10.667 -1.33398 24 -2.00098 40s-1.33398 33.333 -2.00098 52
s-1.5 38 -2.5 58s-1.83301 39.667 -2.5 59c-2 45.333 -4 93.333 -6 144c-0.666992 7.33301 -1 13.333 -1 18v9c0 7.33301 2.5 13.5 7.5 18.5s11.167 7.5 18.5 7.5h78c7.33301 0 13.5 -2.5 18.5 -7.5s7.5 -11.167 7.5 -18.5v-8c0 -4.66699 -0.333008 -11 -1 -19z" />
    <glyph glyph-name="quotedbl" unicode="&#x22;" horiz-adv-x="370" 
d="M253 461c-3.33301 -7.33301 -7.5 -13.499 -12.5 -18.499s-11.167 -7.5 -18.5 -7.5h-25c-14.667 0 -22 5.33301 -22 16c0 4 1 9.66699 3 17l49 198c2 7.33301 5.83301 13.5 11.5 18.5s12.167 7.5 19.5 7.5h56c6.66699 0 12.167 -1.33301 16.5 -4s6.5 -6.33398 6.5 -11.001
c0 -6 -1.33301 -12 -4 -18zM103 461.001c-3.33301 -7.33301 -7.5 -13.499 -12.5 -18.499s-11.167 -7.5 -18.5 -7.5h-25c-14.667 0 -22 5.33301 -22 16c0 4 1 9.66699 3 17l49 198c2 7.33301 5.83301 13.5 11.5 18.5s12.167 7.5 19.5 7.5h56
c6.66699 0 12.167 -1.33301 16.5 -4s6.5 -6.33398 6.5 -11.001c0 -6 -1.33301 -12 -4 -18z" />
    <glyph glyph-name="numbersign" unicode="#" horiz-adv-x="526" 
d="M348 51c-2.66699 -17.333 -12.334 -26 -29.001 -26h-22c-9.33301 0 -15.666 1.5 -18.999 4.5s-5 7.16699 -5 12.5v5c0 2 0.333008 5 1 9l18 131h-97l-19 -136c-2.66699 -17.333 -12.334 -26 -29.001 -26h-23c-9.33301 0 -15.666 1.5 -18.999 4.5s-5 7.16699 -5 12.5v5
c0 2 0.333008 5 1 9l18 131h-56c-7.33301 0 -13.5 2.5 -18.5 7.5s-7.5 11.167 -7.5 18.5v25c0 7.33301 2.5 13.5 7.5 18.5s11.167 7.5 18.5 7.5h69l17 127h-59c-7.33301 0 -13.5 2.5 -18.5 7.5s-7.5 11.167 -7.5 18.5v25c0 7.33301 2.5 13.5 7.5 18.5s11.167 7.5 18.5 7.5
h71l19 136c2.66699 17.333 12.334 26 29.001 26h22c9.33301 0 15.666 -1.5 18.999 -4.5s5 -7.16699 5 -12.5v-5c0 -2 -0.333008 -5 -1 -9l-18 -131h97l20 136c2.66699 17.333 12.334 26 29.001 26h22c9.33301 0 15.666 -1.5 18.999 -4.5s5 -7.16699 5 -12.5v-5
c0 -2 -0.333008 -5 -1 -9l-18 -131h55c7.33301 0 13.5 -2.5 18.5 -7.5s7.5 -11.167 7.5 -18.5v-25c0 -7.33301 -2.5 -13.5 -7.5 -18.5s-11.167 -7.5 -18.5 -7.5h-67l-17 -127h58c7.33301 0 13.5 -2.5 18.5 -7.5s7.5 -11.167 7.5 -18.5v-25c0 -7.33301 -2.5 -13.5 -7.5 -18.5
s-11.167 -7.5 -18.5 -7.5h-70zM304 264l17 127h-96l-17 -127h96z" />
    <glyph glyph-name="dollar" unicode="$" horiz-adv-x="536" 
d="M222 11c-31.333 0 -60.6748 4.33496 -88.0078 13.002s-50.666 17 -69.999 25c-6 2.66699 -11 5.5 -15 8.5s-6 7.16699 -6 12.5c0 3.33301 1.33301 8.33301 4 15l17 59c2.66699 7.33301 7.66699 11 15 11c3.33301 0 6.33301 -0.5 9 -1.5l9 -3.5l29 -12.5
c11.333 -5 23.666 -9.83301 36.999 -14.5s26.833 -8.66699 40.5 -12s26.834 -5 39.501 -5c32 0 57.833 7.16699 77.5 21.5s29.5 33.166 29.5 56.499s-9 42.666 -27 57.999s-45.667 29.666 -83 42.999c-26 9.33301 -49.667 19.666 -71 30.999s-39.5 24 -54.5 38
s-26.667 30 -35 48s-12.5 38.667 -12.5 62c0 42.667 14.167 79.334 42.5 110.001s67.833 50.667 118.5 60v71c0 7.33301 2.5 13.5 7.5 18.5s11.167 7.5 18.5 7.5h30c7.33301 0 13.5 -2.5 18.5 -7.5s7.5 -11.167 7.5 -18.5v-66c14.667 0 27.334 -0.666992 38.001 -2
s20.5 -3 29.5 -5s17.333 -4.33301 25 -7s15.834 -5.33398 24.501 -8.00098c6 -2 11 -4.5 15 -7.5s6 -7.16699 6 -12.5c0 -1.33301 -0.5 -4.33301 -1.5 -9s-2.16699 -8.33398 -3.5 -11.001l-15 -44c-2.66699 -7.33301 -8 -11 -16 -11c-3.33301 0 -6.33301 0.333008 -9 1
s-5.66699 1.66699 -9 3l-47.5 14.5c-16.333 5 -36.833 7.5 -61.5 7.5c-17.333 0 -32.166 -2 -44.499 -6s-22.166 -9.33301 -29.499 -16s-12.666 -14.167 -15.999 -22.5s-5 -16.833 -5 -25.5c0 -20.667 9.5 -38.167 28.5 -52.5s49.833 -29.5 92.5 -45.5
c56.667 -21.333 97.834 -46.166 123.501 -74.499s38.5 -65.166 38.5 -110.499c0 -21.333 -3.66699 -41.666 -11 -60.999s-18.166 -36.833 -32.499 -52.5s-32 -29.167 -53 -40.5s-45.167 -19.333 -72.5 -24v-77c0 -7.33301 -2.5 -13.5 -7.5 -18.5s-11.167 -7.5 -18.5 -7.5
h-30c-7.33301 0 -13.5 2.5 -18.5 7.5s-7.5 11.167 -7.5 18.5v71z" />
    <glyph glyph-name="percent" unicode="%" horiz-adv-x="840" 
d="M652 363c22 0 42.667 -3.66699 62 -11s36.166 -18.666 50.499 -33.999s25.5 -34.666 33.5 -57.999s12 -50.666 12 -81.999s-4 -58.666 -12 -81.999s-19.167 -42.666 -33.5 -57.999s-31.166 -26.666 -50.499 -33.999s-40 -11 -62 -11s-42.667 3.66699 -62 11
s-36.166 18.666 -50.499 33.999s-25.5 34.666 -33.5 57.999s-12 50.666 -12 81.999s4 58.666 12 81.999s19.167 42.666 33.5 57.999s31.166 26.666 50.499 33.999s40 11 62 11zM652 299c-25.333 0 -42.333 -10.833 -51 -32.5s-13 -51.167 -13 -88.5
s4.33301 -66.833 13 -88.5s25.667 -32.5 51 -32.5s42.333 10.833 51 32.5s13 51.167 13 88.5s-4.33301 66.833 -13 88.5s-25.667 32.5 -51 32.5zM190 311c-22 0 -42.667 3.66699 -62 11s-36.166 18.666 -50.499 33.999s-25.5 34.666 -33.5 57.999s-12 50.666 -12 81.999
s4 58.666 12 81.999s19.167 42.666 33.5 57.999s31.166 26.666 50.499 33.999s40 11 62 11s42.667 -3.66699 62 -11s36.166 -18.666 50.499 -33.999s25.5 -34.666 33.5 -57.999s12 -50.666 12 -81.999s-4 -58.666 -12 -81.999s-19.167 -42.666 -33.5 -57.999
s-31.166 -26.666 -50.499 -33.999s-40 -11 -62 -11zM190 375c25.333 0 42.333 10.833 51 32.5s13 51.167 13 88.5s-4.33301 66.833 -13 88.5s-25.667 32.5 -51 32.5s-42.333 -10.833 -51 -32.5s-13 -51.167 -13 -88.5s4.33301 -66.833 13 -88.5s25.667 -32.5 51 -32.5z
M275 14c-4 -7.33301 -8.66699 -13.501 -14 -18.501s-11.666 -7.5 -18.999 -7.5h-20c-13.333 0 -20 4 -20 12c0 2.66699 0.833008 6 2.5 10s3.5 7.66699 5.5 11l360 640c4.66699 7.33301 10.167 13.5 16.5 18.5s13.166 7.5 20.499 7.5h16c13.333 0 20 -4 20 -12
c0 -3.33301 -0.833008 -6.66602 -2.5 -9.99902l-5.5 -11z" />
    <glyph glyph-name="ampersand" unicode="&#x26;" horiz-adv-x="671" 
d="M272 80c24 0 45.5 4.33301 64.5 13s35.167 19.667 48.5 33l-76 81.5l-93 104.5c-16 -10.667 -31.333 -25.167 -46 -43.5s-22 -41.5 -22 -69.5c0 -16.667 3 -32.167 9 -46.5s14.333 -26.833 25 -37.5s23.5 -19.167 38.5 -25.5s31.833 -9.5 50.5 -9.5h1zM619 21
c4.66699 -6 6.99805 -10.665 6.99805 -13.998c0 -4.66699 -3.66699 -7 -11 -7h-102c-8 0 -14.5 1.66699 -19.5 5s-9.5 7.33301 -13.5 12l-37 39c-25.333 -21.333 -53.666 -37.833 -84.999 -49.5s-66.333 -17.5 -105 -17.5c-37.333 0 -69.833 5.33301 -97.5 16
s-50.667 24.834 -69 42.501s-32.166 38 -41.499 61s-14 46.5 -14 70.5c0 46 12 84.833 36 116.5s55.333 57.834 94 78.501v4c-16 18.667 -29 39.667 -39 63s-15 47 -15 71c0 21.333 3.33301 42.5 10 63.5s17.667 39.667 33 56s36 29.666 62 39.999s58 15.5 96 15.5
c29.333 0 52.5 -2.83301 69.5 -8.5l51.5 -16.5c6 -2 11 -4.5 15 -7.5s6 -7.16699 6 -12.5c0 -1.33301 -0.5 -4.33301 -1.5 -9s-2.16699 -8.33398 -3.5 -11.001l-12 -34c-2.66699 -7.33301 -8 -11 -16 -11c-6 0 -12 1.33301 -18 4c-15.333 7.33301 -31.166 13.333 -47.499 18
s-36.833 7 -61.5 7c-23.333 0 -41.166 -8.33301 -53.499 -25s-18.5 -35.667 -18.5 -57c0 -20 4.16699 -38.833 12.5 -56.5s20.166 -34.834 35.499 -51.501l57 -62l71 -81.5l65 -72.5c12.667 19.333 22.667 42.166 30 68.499s13 54.5 17 84.5c2.66699 17.333 12 26 28 26h58
c9.33301 0 15.666 -1.5 18.999 -4.5s5 -7.16699 5 -12.5v-5c0 -2 -0.333008 -5 -1 -9c-6.66699 -44 -17.167 -84.833 -31.5 -122.5s-33.833 -70.5 -58.5 -98.5z" />
    <glyph glyph-name="quotesingle" unicode="'" horiz-adv-x="198" 
d="M103 461c-3.33301 -7.33301 -7.5 -13.499 -12.5 -18.499s-11.167 -7.5 -18.5 -7.5h-25c-14.667 0 -22 5.33301 -22 16c0 4 1 9.66699 3 17l49 198c2 7.33301 5.83301 13.5 11.5 18.5s12.167 7.5 19.5 7.5h56c6.66699 0 12.167 -1.33301 16.5 -4s6.5 -6.33398 6.5 -11.001
c0 -6 -1.33301 -12 -4 -18z" />
    <glyph glyph-name="parenleft" unicode="(" horiz-adv-x="301" 
d="M262 -108c0 -6.66699 -6.33398 -10.0049 -19.001 -10.0049h-44c-7.33301 0 -13 2 -17 6s-9.33301 10.667 -16 20c-13.333 20 -26.166 43 -38.499 69s-23.333 54.667 -33 86s-17.5 65.5 -23.5 102.5s-9 77.167 -9 120.5c0 44 3 84.667 9 122s13.833 71.833 23.5 103.5
s20.667 60.334 33 86.001s25.166 48.834 38.499 69.501c6.66699 9.33301 12 16 16 20s9.66699 6 17 6h44c12.667 0 19 -3.33301 19 -10c0 -3.33301 -1.33301 -7.66602 -4 -12.999l-7 -14c-26 -46 -47.5 -99.5 -64.5 -160.5s-25.5 -130.833 -25.5 -209.5
c0 -77.333 8.83301 -146.166 26.5 -206.499s38.834 -113.833 63.501 -160.5l7 -14c2.66699 -5.33301 4 -9.66602 4 -12.999z" />
    <glyph glyph-name="parenright" unicode=")" horiz-adv-x="301" 
d="M32 683c0 6.66699 6.33398 10.0039 19.001 10.0039h44c7.33301 0 13 -2 17 -6s9.33301 -10.667 16 -20c12.667 -20 25.334 -43 38.001 -69s23.834 -54.667 33.501 -86s17.5 -65.666 23.5 -102.999s9 -77.333 9 -120c0 -44 -3 -84.667 -9 -122
s-13.833 -71.833 -23.5 -103.5s-20.834 -60.334 -33.501 -86.001s-25.334 -48.834 -38.001 -69.501c-6.66699 -9.33301 -12 -16 -16 -20s-9.66699 -6 -17 -6h-44c-12.667 0 -19 3.33301 -19 10c0 3.33301 1.33301 7.66602 4 12.999l7 14c26 46 47.5 99.5 64.5 160.5
s25.5 130.833 25.5 209.5c0 77.333 -8.83301 146.166 -26.5 206.499s-38.834 113.833 -63.501 160.5l-7 14c-2.66699 5.33301 -4 9.66602 -4 12.999z" />
    <glyph glyph-name="asterisk" unicode="*" horiz-adv-x="437" 
d="M251 645c7.33301 18.667 13.001 30.668 17.001 36.001s9.66699 8 17 8c6 0 10.667 -1.33301 14 -4l22 -12c8.66699 -4.66699 13 -12 13 -22c0 -4.66699 -1 -9 -3 -13s-9 -13 -21 -27l-61 -73l2 -3l94 17c8 1.33301 15 2.33301 21 3s10 1 12 1
c7.33301 0 13.5 -2.5 18.5 -7.5s7.5 -11.167 7.5 -18.5v-25c0 -7.33301 -2.5 -13.5 -7.5 -18.5s-11.167 -7.5 -18.5 -7.5c-2 0 -6 0.333008 -12 1s-13 1.66699 -21 3l-94 17l-2 -3l62 -73c12 -14 19 -23.167 21 -27.5s3 -8.83301 3 -13.5
c0 -8.66699 -4.66699 -15.667 -14 -21l-21 -13c-4 -2 -8.33301 -3 -13 -3c-8.66699 0 -15 2.33301 -19 7s-9.33301 16.667 -16 36l-33 90h-3l-33 -90c-6.66699 -18.667 -12.167 -30.667 -16.5 -36s-10.166 -8 -17.499 -8c-4.66699 0 -9.33398 1.33301 -14.001 4l-22 12
c-8.66699 5.33301 -13 12.666 -13 21.999c0 4.66699 1.16699 9 3.5 13s9.16602 13 20.499 27l61 73l-2 3l-94 -17c-8 -1.33301 -15 -2.33301 -21 -3s-10 -1 -12 -1c-7.33301 0 -13.5 2.5 -18.5 7.5s-7.5 11.167 -7.5 18.5v25c0 7.33301 2.5 13.5 7.5 18.5
s11.167 7.5 18.5 7.5c2 0 6 -0.333008 12 -1s13 -1.66699 21 -3l94 -17l2 3l-62 73c-12 14 -19 23.167 -21 27.5s-3 8.83301 -3 13.5c0 10 4.66699 17 14 21l21 13c5.33301 2.66699 9.66602 4 12.999 4c8.66699 0 14.834 -2.66699 18.501 -8s9.16699 -17.333 16.5 -36
l33 -90h3z" />
    <glyph glyph-name="plus" unicode="+" horiz-adv-x="596" 
d="M557 254c0 -7.33301 -2.5 -13.5 -7.5 -18.5s-11.167 -7.5 -18.5 -7.5h-193v-202c0 -7.33301 -2.5 -13.5 -7.5 -18.5s-11.167 -7.5 -18.5 -7.5h-26c-7.33301 0 -13.5 2.5 -18.5 7.5s-7.5 11.167 -7.5 18.5v202h-194c-7.33301 0 -13.5 2.5 -18.5 7.5s-7.5 11.167 -7.5 18.5
v26c0 7.33301 2.5 13.5 7.5 18.5s11.167 7.5 18.5 7.5h194v200c0 7.33301 2.5 13.5 7.5 18.5s11.167 7.5 18.5 7.5h26c7.33301 0 13.5 -2.5 18.5 -7.5s7.5 -11.167 7.5 -18.5v-200h193c7.33301 0 13.5 -2.5 18.5 -7.5s7.5 -11.167 7.5 -18.5v-26v0z" />
    <glyph glyph-name="comma" unicode="," horiz-adv-x="236" 
d="M86 -124c-2.66699 -5.33301 -6.16992 -9.83496 -10.5029 -13.502s-9.16602 -5.5 -14.499 -5.5c-1.33301 0 -3.16602 0.166992 -5.49902 0.5s-4.16602 0.833008 -5.49902 1.5l-20 6c-6 2 -10.167 4.16699 -12.5 6.5s-3.5 6.5 -3.5 12.5c0 2 0.666992 6.33301 2 13l55 220
c2 8.66699 4.83301 15.334 8.5 20.001s10.167 7.33398 19.5 8.00098l57 4c6.66699 0.666992 13 1.16699 19 1.5s9.33301 0.5 10 0.5c8 0 12 -5.33301 12 -16c0 -4 -0.666992 -7.33301 -2 -10z" />
    <glyph glyph-name="hyphen" unicode="-" horiz-adv-x="315" 
d="M43 224c-6.66699 0 -11.834 2.16699 -15.501 6.5s-5.5 9.83301 -5.5 16.5c0 1.33301 0.333008 3.5 1 6.5s1.33398 6.16699 2.00098 9.5l4 22c1.33301 7.33301 4.33301 13.166 9 17.499s10.667 6.5 18 6.5h208c6.66699 0 11.834 -2.16699 15.501 -6.5
s5.5 -9.83301 5.5 -16.5c0 -1.33301 -0.333008 -3.5 -1 -6.5s-1.33398 -6.16699 -2.00098 -9.5l-4 -22c-1.33301 -7.33301 -4.33301 -13.166 -9 -17.499s-10.667 -6.5 -18 -6.5h-208z" />
    <glyph glyph-name="period" unicode="." horiz-adv-x="236" 
d="M126 -11c-22 0 -40 7.5 -54 22.5s-21 33.833 -21 56.5c0 23.333 7.16699 42.333 21.5 57s32.5 22 54.5 22c22.667 0 41 -7.33301 55 -22s21 -33.667 21 -57c0 -22.667 -6.83301 -41.5 -20.5 -56.5s-32.167 -22.5 -55.5 -22.5h-1z" />
    <glyph glyph-name="slash" unicode="/" horiz-adv-x="337" 
d="M103 -14c-2.66699 -7.33301 -6.66699 -13.5 -12 -18.5s-11.666 -7.5 -18.999 -7.5h-34c-6.66699 0 -12.167 1.33301 -16.5 4s-6.5 6.33398 -6.5 11.001c0 2.66699 0.333008 5.5 1 8.5s1.66699 6.16699 3 9.5l224 666c2.66699 7.33301 6.66699 13.5 12 18.5
s11.666 7.5 18.999 7.5h34c6.66699 0 12.167 -1.33301 16.5 -4s6.5 -6.33398 6.5 -11.001c0 -2.66699 -0.333008 -5.5 -1 -8.5s-1.66699 -6.16699 -3 -9.5z" />
    <glyph glyph-name="zero" unicode="0" 
d="M274 86c37.333 0 65.5 22.5 84.5 67.5s28.5 108.167 28.5 189.5c0 78.667 -9.5 139.5 -28.5 182.5s-47.167 64.5 -84.5 64.5s-65.5 -21.5 -84.5 -64.5s-28.5 -103.833 -28.5 -182.5c0 -81.333 9.5 -144.5 28.5 -189.5s47.167 -67.5 84.5 -67.5zM274 -11
c-39.333 0 -73.833 8.16699 -103.5 24.5s-54.334 39.833 -74.001 70.5s-34.5 67.834 -44.5 111.501s-15 92.834 -15 147.501c0 50 5 96 15 138s24.833 78.167 44.5 108.5s44.334 54.166 74.001 71.499s64.167 26 103.5 26s73.833 -8.66699 103.5 -26
s54.334 -41.166 74.001 -71.499s34.5 -66.5 44.5 -108.5s15 -88 15 -138c0 -54.667 -5 -103.834 -15 -147.501s-24.833 -80.834 -44.5 -111.501s-44.334 -54.167 -74.001 -70.5s-64.167 -24.5 -103.5 -24.5z" />
    <glyph glyph-name="one" unicode="1" 
d="M363 26c0 -7.33301 -2.5 -13.5 -7.5 -18.5s-11.167 -7.5 -18.5 -7.5h-68c-7.33301 0 -13.5 2.5 -18.5 7.5s-7.5 11.167 -7.5 18.5v535h-2l-100 -49c-5.33301 -2.66699 -10.666 -4 -15.999 -4c-6 0 -11 3.33301 -15 10l-24 41c-3.33301 5.33301 -5 10.333 -5 15
c0 8 6 14.667 18 20l129 66c6.66699 3.33301 14.667 6.83301 24 10.5s17.666 5.5 24.999 5.5h60c7.33301 0 13.5 -2.5 18.5 -7.5s7.5 -11.167 7.5 -18.5v-624z" />
    <glyph glyph-name="two" unicode="2" 
d="M49 48c0 13.333 1.99609 23.666 5.99609 30.999s10 14.333 18 21l130.5 129.5c35.667 36.333 64.5 68.5 86.5 96.5s38.167 53.333 48.5 76s15.5 45 15.5 67c0 15.333 -2 29.833 -6 43.5s-10.667 25.834 -20 36.501s-21.5 19 -36.5 25s-33.167 9 -54.5 9
c-23.333 0 -44.833 -3.83301 -64.5 -11.5s-37.167 -16.834 -52.5 -27.501c-5.33301 -4 -10.666 -6 -15.999 -6c-3.33301 0 -6.5 1 -9.5 3s-5.5 5.66699 -7.5 11l-16 40c-1.33301 3.33301 -2.33301 6.33301 -3 9s-1 5.33398 -1 8.00098c0 8 2.33301 14.167 7 18.5
s8.66699 7.5 12 9.5c24 14.667 50.833 26.667 80.5 36s61.5 14 95.5 14c36.667 0 68.5 -5.5 95.5 -16.5s49.5 -25.833 67.5 -44.5s31.333 -40.334 40 -65.001s13 -50.667 13 -78c0 -30 -4.83301 -58.833 -14.5 -86.5s-23.167 -54.667 -40.5 -81s-38.166 -52.5 -62.499 -78.5
s-51.166 -52.333 -80.499 -79l-56 -51v-2h255c6.66699 0 11.834 -2.16699 15.501 -6.5s5.5 -9.83301 5.5 -16.5c0 -1.33301 -0.166992 -3.5 -0.5 -6.5s-0.833008 -6.16699 -1.5 -9.5l-7 -42c-1.33301 -7.33301 -4.33301 -13.166 -9 -17.499s-10.667 -6.5 -18 -6.5h-392
c-15.333 -0 -23 8.33301 -23 25v23z" />
    <glyph glyph-name="three" unicode="3" 
d="M236 407c8.66699 0 18.834 1.33496 30.501 4.00195s22.5 7.33398 32.5 14.001s18.5 16 25.5 28s10.5 27.667 10.5 47c0 23.333 -8.33301 43.5 -25 60.5s-43.334 25.5 -80.001 25.5c-19.333 0 -38 -2.5 -56 -7.5s-34.333 -11.167 -49 -18.5l-10 -4
c-3.33301 -1.33301 -6.66602 -2 -9.99902 -2c-7.33301 0 -12.333 4 -15 12l-14 43c-2 6 -3 11 -3 15c0 8 2.16699 13.833 6.5 17.5s8.5 6.5 12.5 8.5c20.667 10 45.334 18.667 74.001 26s58.667 11 90 11c34 0 63.833 -4.5 89.5 -13.5s47 -21 64 -36
s29.833 -32.5 38.5 -52.5s13 -41 13 -63c0 -36 -10.167 -67.667 -30.5 -95s-50.5 -48.333 -90.5 -63v-2c20 -4 38.667 -10.667 56 -20s32.5 -21.333 45.5 -36s23.333 -31.5 31 -50.5s11.5 -39.833 11.5 -62.5c0 -28.667 -5.66699 -55.334 -17 -80.001
s-27.833 -46.167 -49.5 -64.5s-48.334 -32.833 -80.001 -43.5s-67.834 -16 -108.501 -16c-32.667 0 -62.667 3.16699 -90 9.5s-50.666 14.166 -69.999 23.499c-3.33301 1.33301 -7.16602 3.66602 -11.499 6.99902s-6.5 8.66602 -6.5 15.999c0 2.66699 0.666992 6.66699 2 12
l15 57c1.33301 6.66699 5.66602 10 12.999 10c3.33301 0 6.66602 -0.666992 9.99902 -2l10 -4c15.333 -7.33301 33.666 -13.833 54.999 -19.5s43.666 -8.5 66.999 -8.5s43.333 3.16699 60 9.5s30.334 14.666 41.001 24.999s18.5 22 23.5 35s7.5 26.167 7.5 39.5
c0 22.667 -3.66699 41.334 -11 56.001s-16.666 26.334 -27.999 35.001s-24 14.667 -38 18s-27.667 5 -41 5h-57c-7.33301 0 -13.5 2.5 -18.5 7.5s-7.5 11.167 -7.5 18.5v42c0 7.33301 2.5 13.5 7.5 18.5s11.167 7.5 18.5 7.5h56z" />
    <glyph glyph-name="four" unicode="4" 
d="M322 568c-6.66699 -15.333 -13.668 -30.334 -21.001 -45.001c-6 -12.667 -12.667 -25.667 -20 -39s-14 -24.666 -20 -33.999l-118 -182h179v176c0 7.33301 0.166992 18 0.5 32s0.833008 27.667 1.5 41c0.666992 16 1.33398 33 2.00098 51h-4zM526.999 244.999
c0 -1.33301 -0.169922 -3.50195 -0.50293 -6.50195s-0.833008 -6.16699 -1.5 -9.5l-7 -38c-2 -12.667 -11 -19 -27 -19h-52v-146c0 -7.33301 -2.5 -13.5 -7.5 -18.5s-11.167 -7.5 -18.5 -7.5h-65c-7.33301 0 -13.5 2.5 -18.5 7.5s-7.5 11.167 -7.5 18.5v146h-275
c-9.33301 0 -15.5 2 -18.5 6s-4.5 10.667 -4.5 20v27c0 12.667 1.33301 22.834 4 30.501s6.33398 15.167 11.001 22.5l238 372c6.66699 10 12.834 16.5 18.501 19.5s13.167 4.5 22.5 4.5h95c7.33301 0 13.5 -1.66699 18.5 -5s7.5 -8.66602 7.5 -15.999v-385h67
c6.66699 0 11.834 -2.16699 15.501 -6.5s5.5 -9.83301 5.5 -16.5z" />
    <glyph glyph-name="five" unicode="5" 
d="M486 223c0 -32 -6.33398 -62.332 -19.001 -90.999s-30.5 -53.5 -53.5 -74.5s-50.667 -37.667 -83 -50s-68.5 -18.5 -108.5 -18.5c-30 0 -57.333 2.66699 -82 8s-47 11.666 -67 18.999c-4 1.33301 -8.33301 3.83301 -13 7.5s-7 9.83398 -7 18.501c0 2 0.166992 4 0.5 6
s0.833008 4.33301 1.5 7l12 49c2 8 7 12 15 12c5.33301 0 11.333 -1.33301 18 -4c15.333 -6 33 -11.333 53 -16s41 -7 63 -7c18 0 35.667 2.66699 53 8s32.666 13.166 45.999 23.499s24 23.166 32 38.499s12 33 12 53c0 19.333 -3 37 -9 53s-15.833 29.667 -29.5 41
s-31.667 20 -54 26s-49.833 9 -82.5 9h-72c-16 0 -24 7 -24 21c0 1.33301 0.166992 4.33301 0.5 9s0.833008 8.66699 1.5 12l32 256c2 15.333 6 25 12 29s12.667 6 20 6h299c6.66699 0 11.834 -2.16699 15.501 -6.5s5.5 -9.83301 5.5 -16.5
c0 -1.33301 -0.166992 -3.5 -0.5 -6.5s-0.833008 -6.16699 -1.5 -9.5l-7 -41c-1.33301 -7.33301 -4.33301 -13.166 -9 -17.499s-10.667 -6.5 -18 -6.5h-224l-18 -132h45c32 0 62.833 -4.16699 92.5 -12.5s55.834 -21.333 78.501 -39s40.667 -40 54 -67s20 -59.167 20 -96.5z
" />
    <glyph glyph-name="six" unicode="6" 
d="M515 230c0 -32 -5.49707 -62.6689 -16.4971 -92.002s-26.5 -55 -46.5 -77s-44.333 -39.5 -73 -52.5s-60.334 -19.5 -95.001 -19.5c-40 0 -75.333 7.33301 -106 22s-56.5 35 -77.5 61s-36.833 56.833 -47.5 92.5s-16 74.5 -16 116.5c0 60 9.16699 114.833 27.5 164.5
s44.166 92.334 77.499 128.001s73.666 63.167 120.999 82.5s100 29 158 29c7.33301 0 13.333 -2.16699 18 -6.5s7.66699 -10.166 9 -17.499l7 -39c0.666992 -3.33301 1.16699 -6.5 1.5 -9.5s0.5 -5.16699 0.5 -6.5c0 -14.667 -7 -22 -21 -22
c-6.66699 0 -15 -0.166992 -25 -0.5s-19 -1.16602 -27 -2.49902c-34 -4 -63.833 -12.167 -89.5 -24.5s-47.5 -27.333 -65.5 -45s-32.333 -37.334 -43 -59.001s-18 -44.167 -22 -67.5h3c16.667 19.333 37.167 35 61.5 47s52.833 18 85.5 18c28.667 0 55.167 -5 79.5 -15
s45.5 -24.5 63.5 -43.5s32.167 -42.167 42.5 -69.5s15.5 -58 15.5 -92zM283.003 83.998c32 0 57.6689 12.835 77.002 38.502s29 59.167 29 100.5c0 40 -9.83301 72.333 -29.5 97s-47.5 37 -83.5 37c-15.333 0 -30 -2.83301 -44 -8.5s-26.333 -13.5 -37 -23.5
s-19.167 -21.833 -25.5 -35.5s-9.5 -28.167 -9.5 -43.5c0 -22 2.66699 -42.833 8 -62.5s13.166 -36.834 23.499 -51.501s23.166 -26.334 38.499 -35.001s33 -13 53 -13z" />
    <glyph glyph-name="seven" unicode="7" 
d="M233 22c-3.33301 -6.66699 -7 -11.999 -11 -15.999s-9.66699 -6 -17 -6h-83c-13.333 0 -20 5 -20 15c0 4.66699 1 9 3 13l263 542v2h-290c-7.33301 0 -13.5 2.5 -18.5 7.5s-7.5 11.167 -7.5 18.5v50c0 7.33301 2.5 13.5 7.5 18.5s11.167 7.5 18.5 7.5h396
c7.33301 0 13.5 -2.5 18.5 -7.5s7.5 -11.167 7.5 -18.5v-23c0 -8.66699 -1 -16.834 -3 -24.501s-4.33301 -14.167 -7 -19.5z" />
    <glyph glyph-name="eight" unicode="8" 
d="M281 687c36 0 66.833 -4.99316 92.5 -14.9932s47 -23 64 -39s29.5 -34.167 37.5 -54.5s12 -40.833 12 -61.5c0 -28.667 -7.83301 -56.834 -23.5 -84.501s-41.5 -50.5 -77.5 -68.5v-3c36 -14 65.833 -35.333 89.5 -64s35.5 -64.334 35.5 -107.001
c0 -30 -5.83301 -57.333 -17.5 -82s-28 -45.834 -49 -63.501s-46.167 -31.334 -75.5 -41.001s-61.333 -14.5 -96 -14.5c-38.667 0 -72.5 5.16699 -101.5 15.5s-53.333 24.166 -73 41.499s-34.5 37.166 -44.5 59.499s-15 45.5 -15 69.5c0 42 11 77.167 33 105.5
s52 51.166 90 68.499v4c-34 17.333 -59.167 39 -75.5 65s-24.5 54 -24.5 84c0 28 5.66699 53.333 17 76s26.666 42 45.999 58s42.333 28.5 69 37.5s55.334 13.5 86.001 13.5h1zM277 79.0068c32.667 0 58.833 9.49805 78.5 28.498s29.5 43.167 29.5 72.5
c0 34.667 -11 61.834 -33 81.501s-51.667 34.834 -89 45.501c-30.667 -9.33301 -54.5 -24.333 -71.5 -45s-25.5 -45 -25.5 -73c0 -14.667 2.5 -28.667 7.5 -42s12.167 -25 21.5 -35s20.833 -18 34.5 -24s29.167 -9 46.5 -9h1zM275.999 599.005
c-32 0 -55.832 -9.16699 -71.499 -27.5s-23.5 -39.5 -23.5 -63.5c0 -28 9.83301 -50.5 29.5 -67.5s45.167 -30.167 76.5 -39.5c23.333 7.33301 42.833 19.833 58.5 37.5s23.5 39.167 23.5 64.5c0 12 -1.66699 23.667 -5 35s-8.83301 21.5 -16.5 30.5
s-17.334 16.333 -29.001 22s-25.5 8.5 -41.5 8.5h-1z" />
    <glyph glyph-name="nine" unicode="9" 
d="M271 592c-32 0 -58 -12.832 -78 -38.499s-30 -59.167 -30 -100.5c0 -34.667 9.5 -63.834 28.5 -87.501s45.833 -35.5 80.5 -35.5c25.333 0 46.833 5.5 64.5 16.5s31.167 24.167 40.5 39.5c2 4 3.66699 10 5 18s2 16.333 2 25c0 22.667 -2.16699 44 -6.5 64
s-11 37.333 -20 52s-20.5 26.167 -34.5 34.5s-31 12.5 -51 12.5h-1zM167 92.001c28.667 0 55.165 5.1709 79.498 15.5039s45.833 24.666 64.5 42.999s34.334 39.833 47.001 64.5s21.334 51.667 26.001 81h-2c-16.667 -18.667 -36.667 -33.167 -60 -43.5s-51 -15.5 -83 -15.5
c-28.667 0 -55.167 5 -79.5 15s-45.333 24.167 -63 42.5s-31.5 40.333 -41.5 66s-15 54.167 -15 85.5c0 32 5.83301 62.667 17.5 92s28 55 49 77s46 39.5 75 52.5s61.167 19.5 96.5 19.5c38 0 71.5 -7.33301 100.5 -22s53.333 -34.834 73 -60.501s34.5 -56 44.5 -91
s15 -73.167 15 -114.5c0 -132.667 -32.167 -233.834 -96.5 -303.501s-161.833 -104.5 -292.5 -104.5c-7.33301 0 -13.333 2.16699 -18 6.5s-7.66699 10.166 -9 17.499l-7 39c-0.666992 3.33301 -1.16699 6.5 -1.5 9.5s-0.5 5.16699 -0.5 6.5c0 14.667 7 22 21 22h60z" />
    <glyph glyph-name="colon" unicode=":" horiz-adv-x="236" 
d="M125 326c-21.333 0 -39.001 7.5 -53.001 22.5s-21 33.5 -21 55.5c0 23.333 7 42.333 21 57s32.333 22 55 22s40.834 -7.33301 54.501 -22s20.5 -33.667 20.5 -57c0 -22 -6.83301 -40.5 -20.5 -55.5s-32.167 -22.5 -55.5 -22.5h-1zM124.999 -11
c-21.333 0 -39.001 7.5 -53.001 22.5s-21 33.5 -21 55.5c0 23.333 7 42.333 21 57s32.333 22 55 22s40.834 -7.33301 54.501 -22s20.5 -33.667 20.5 -57c0 -22 -6.83301 -40.5 -20.5 -55.5s-32.167 -22.5 -55.5 -22.5h-1z" />
    <glyph glyph-name="semicolon" unicode=";" horiz-adv-x="236" 
d="M132 326c-21.333 0 -39.001 7.5 -53.001 22.5s-21 33.5 -21 55.5c0 23.333 7 42.333 21 57s32.333 22 55 22s40.834 -7.33301 54.501 -22s20.5 -33.667 20.5 -57c0 -22 -6.83301 -40.5 -20.5 -55.5s-32.167 -22.5 -55.5 -22.5h-1zM85.999 -124
c-2.66699 -5.33301 -6.16992 -9.83496 -10.5029 -13.502s-9.16602 -5.5 -14.499 -5.5c-1.33301 0 -3.16602 0.166992 -5.49902 0.5s-4.16602 0.833008 -5.49902 1.5l-20 6c-6 2 -10.167 4.16699 -12.5 6.5s-3.5 6.5 -3.5 12.5c0 2 0.666992 6.33301 2 13l55 220
c2 8.66699 4.83301 15.334 8.5 20.001s10.167 7.33398 19.5 8.00098l57 4c6.66699 0.666992 13 1.16699 19 1.5s9.33301 0.5 10 0.5c8 0 12 -5.33301 12 -16c0 -4 -0.666992 -7.33301 -2 -10z" />
    <glyph glyph-name="less" unicode="&#x3c;" horiz-adv-x="606" 
d="M539 36c0 -6.66699 -1 -12.332 -3 -16.999s-5.33301 -7 -10 -7c-5.33301 0 -12 1.66699 -20 5l-414 200c-7.33301 3.33301 -13.5 7.5 -18.5 12.5s-7.5 11.167 -7.5 18.5v34c0 7.33301 2.5 13.5 7.5 18.5s11.167 9.16699 18.5 12.5l415 202c8 3.33301 14.667 5 20 5
c4.66699 0 8 -2.33301 10 -7s3 -10.334 3 -17.001v-34c0 -7.33301 -2.5 -13.5 -7.5 -18.5s-11.167 -9.16699 -18.5 -12.5l-351 -165v-2l350 -163c7.33301 -3.33301 13.5 -7.5 18.5 -12.5s7.5 -11.167 7.5 -18.5v-34v0z" />
    <glyph glyph-name="equal" unicode="=" horiz-adv-x="606" 
d="M560 196l-0.000976562 -4.00098c0 -1.33301 -0.333008 -3.66602 -1 -6.99902l-7 -45c-1.33301 -8 -5.66602 -12 -12.999 -12h-481c-8 0 -12 3.33301 -12 10v3c0 2 0.333008 4.66699 1 8l7 45c0.666992 8 5 12 13 12h481c8 0 12 -3.33301 12 -10zM559.999 397.999
l-0.000976562 -4.00098c0 -1.33301 -0.333008 -3.66602 -1 -6.99902l-7 -45c-1.33301 -8 -5.66602 -12 -12.999 -12h-481c-8 0 -12 3.33301 -12 10v3c0 2 0.333008 4.66699 1 8l7 45c0.666992 8 5 12 13 12h481c8 0 12 -3.33301 12 -10z" />
    <glyph glyph-name="greater" unicode="&#x3e;" horiz-adv-x="606" 
d="M540 250c0 -7.33301 -2.5 -13.502 -7.5 -18.502s-11.167 -9.16699 -18.5 -12.5l-415 -202c-8 -3.33301 -14.667 -5 -20 -5c-4.66699 0 -8 2.33301 -10 7s-3 10.334 -3 17.001v34c0 7.33301 2.5 13.5 7.5 18.5s11.167 9.16699 18.5 12.5l351 165v2l-350 163
c-7.33301 3.33301 -13.5 7.5 -18.5 12.5s-7.5 11.167 -7.5 18.5v34c0 6.66699 1 12.334 3 17.001s5.33301 7 10 7c5.33301 0 12 -1.66699 20 -5l414 -200c7.33301 -3.33301 13.5 -7.5 18.5 -12.5s7.5 -11.167 7.5 -18.5v-34v0z" />
    <glyph glyph-name="question" unicode="?" horiz-adv-x="438" 
d="M195 -11c-22 0 -40 7.5 -54 22.5s-21 33.5 -21 55.5c0 23.333 7.16699 42.166 21.5 56.499s32.5 21.5 54.5 21.5c22.667 0 41 -7.16699 55 -21.5s21 -33.166 21 -56.499c0 -22 -6.83301 -40.5 -20.5 -55.5s-32.167 -22.5 -55.5 -22.5h-1zM392 534
c0 -18 -2.5 -34.832 -7.5 -50.499s-11.5 -30.334 -19.5 -44.001s-17.167 -26.834 -27.5 -39.501l-31.5 -37c-19.333 -21.333 -33 -42.166 -41 -62.499s-12 -41.833 -12 -64.5v-8c0 -7.33301 -2.5 -13 -7.5 -17s-11.167 -6 -18.5 -6h-58c-7.33301 0 -13.5 2 -18.5 6
s-7.5 9.66699 -7.5 17v19c0 24.667 4.66699 49.334 14 74.001s24.666 49.667 45.999 75c19.333 23.333 34.833 44.333 46.5 63s17.5 37.667 17.5 57c0 20.667 -6.83301 37.667 -20.5 51s-34.5 20 -62.5 20c-13.333 0 -27.333 -1.83301 -42 -5.5s-27.667 -8.16699 -39 -13.5
c-4 -1.33301 -6.66699 -2 -8 -2c-5.33301 0 -9.83301 2 -13.5 6s-6.16699 8.66699 -7.5 14l-12 39c-1.33301 5.33301 -2 9 -2 11c0 8 5.16699 15 15.5 21s23 11.167 38 15.5s31.333 7.66602 49 9.99902s33.834 3.5 48.501 3.5c30.667 0 57.5 -4.16699 80.5 -12.5
s41.833 -19.5 56.5 -33.5s25.667 -30.167 33 -48.5s11 -37.5 11 -57.5z" />
    <glyph glyph-name="at" unicode="@" horiz-adv-x="765" 
d="M497 330c-22 0 -43.166 -1.16699 -63.499 -3.5s-38.333 -6.83301 -54 -13.5s-28.334 -15.667 -38.001 -27s-14.5 -26.333 -14.5 -45c0 -24 6.83301 -41.667 20.5 -53s30.167 -17 49.5 -17c30 0 53.333 8.16699 70 24.5s25.667 39.5 27 69.5zM678.001 14
c0 -2 -1 -4.16309 -3 -6.49609s-3.66699 -4.16602 -5 -5.49902c-14 -12.667 -31.667 -25.334 -53 -38.001s-44.666 -24.167 -69.999 -34.5s-52.166 -18.666 -80.499 -24.999s-56.833 -9.5 -85.5 -9.5c-46 0 -89.167 7.66699 -129.5 23s-75.166 37.666 -104.499 66.999
s-52.5 65.166 -69.5 107.499s-25.5 90.166 -25.5 143.499c0 51.333 8.33301 98.666 25 141.999s40.834 80.833 72.501 112.5s70.334 56.5 116.001 74.5s97.834 27 156.501 27c36.667 0 67.667 -3.83301 93 -11.5s45.833 -18.667 61.5 -33s27 -32.333 34 -54
s10.5 -46.5 10.5 -74.5c0 -4 -0.166992 -8.33301 -0.5 -13s-0.833008 -12.334 -1.5 -23.001l-8 -172l16 -85c0 -6 -1.33301 -10.333 -4 -13s-7.33398 -5 -14.001 -7l-65 -18c-3.33301 -1.33301 -6 -2 -8 -2h-4c-6 0 -10.5 2.33301 -13.5 7s-5.16699 11 -6.5 19l-7 36h-3
c-14.667 -19.333 -34.334 -35 -59.001 -47s-53 -18 -85 -18c-24.667 0 -46.5 4 -65.5 12s-35 18.833 -48 32.5s-22.833 29.167 -29.5 46.5s-10 35.333 -10 54c0 30.667 7 57 21 79s33.833 40.167 59.5 54.5s56.667 25 93 32s77.166 10.5 122.499 10.5
c1.33301 9.33301 2 17.666 2 24.999v19c0 22.667 -5.83301 41.834 -17.5 57.501s-34.834 23.5 -69.501 23.5c-42 0 -81 -6 -117 -18s-67.333 -30 -94 -54s-47.5 -54.333 -62.5 -91s-22.5 -79.667 -22.5 -129c0 -44 6.33301 -83.667 19 -119s30.334 -65.333 53.001 -90
s49.667 -43.5 81 -56.5s65.666 -19.5 102.999 -19.5c27.333 0 53.5 2.66699 78.5 8s48.5 12.333 70.5 21s42.333 18.5 61 29.5s35 22.167 49 33.5c3.33301 2 5.83301 3.66699 7.5 5s3.5 2 5.5 2c5.33301 0 9.66602 -2.66699 12.999 -8l11 -14
c3.33301 -3.33301 5.16602 -6 5.49902 -8s0.5 -4.33301 0.5 -7z" />
    <glyph glyph-name="A" unicode="A" horiz-adv-x="646" 
d="M610 24c1.33301 -4 2 -7.33301 2 -10c0 -9.33301 -7 -14 -21 -14h-83c-9.33301 0 -16.5 2.16699 -21.5 6.5s-8.16699 9.16602 -9.5 14.499l-52 170h-214l-52 -170c-1.33301 -5.33301 -4.5 -10.166 -9.5 -14.499s-12.167 -6.5 -21.5 -6.5h-75c-14 0 -21 4.66699 -21 14
c0 2.66699 0.666992 6 2 10l199 621c6.66699 19.333 18 29 34 29h111c8.66699 0 15.167 -2.83301 19.5 -8.5s7.83301 -12.5 10.5 -20.5zM315 576l-32 -127l-52 -165h173l-54 165l-33 127h-2z" />
    <glyph glyph-name="B" unicode="B" horiz-adv-x="586" 
d="M198 398h76.999c38 0 67.333 9 88 27s31 41.333 31 70c0 32 -9.33301 55.5 -28 70.5s-47.667 22.5 -87 22.5c-18 0 -34.167 -1 -48.5 -3s-25.166 -4 -32.499 -6v-181zM197.999 94c8 -2 19.166 -3.83203 33.499 -5.49902s28.5 -2.5 42.5 -2.5c20 0 38.333 2 55 6
s31.334 10.333 44.001 19s22.5 20.167 29.5 34.5s10.5 32.166 10.5 53.499c0 39.333 -12.667 67.5 -38 84.5s-59.333 25.5 -102 25.5h-75v-215zM75.998 623.001c0 12.667 2.49707 21.833 7.49707 27.5s10.5 9.16699 16.5 10.5c24.667 5.33301 52.834 9.66602 84.501 12.999
s61.167 5 88.5 5c32 0 62.833 -2.33301 92.5 -7s55.834 -13.167 78.501 -25.5s40.667 -29.666 54 -51.999s20 -50.833 20 -85.5c0 -31.333 -9.5 -60 -28.5 -86s-46.833 -45.667 -83.5 -59v-3c18 -4.66699 35.167 -11.5 51.5 -20.5s30.666 -20.5 42.999 -34.5
s22.333 -30.333 30 -49s11.5 -39.334 11.5 -62.001c0 -41.333 -7 -75 -21 -101s-33.5 -46.5 -58.5 -61.5s-55.167 -25.333 -90.5 -31s-74.333 -8.5 -117 -8.5c-27.333 0 -53.666 0.833008 -78.999 2.5s-50.666 5.16699 -75.999 10.5c-6 1.33301 -11.5 4.83301 -16.5 10.5
s-7.5 14.834 -7.5 27.501v579z" />
    <glyph glyph-name="C" unicode="C" horiz-adv-x="598" 
d="M384 -10c-53.333 0 -101.332 7.99805 -143.999 23.998s-78.834 38.833 -108.501 68.5s-52.334 65.334 -68.001 107.001s-23.5 88.167 -23.5 139.5c0 55.333 9.16699 105 27.5 149s43.666 81.167 75.999 111.5s70.5 53.666 114.5 69.999s91.667 24.5 143 24.5
c31.333 0 57.833 -1.83301 79.5 -5.5s42.167 -8.5 61.5 -14.5c6 -2 11 -4.5 15 -7.5s6 -7.16699 6 -12.5c0 -3.33301 -1.33301 -8.33301 -4 -15l-17 -54c-2.66699 -7.33301 -7.66699 -11 -15 -11c-3.33301 0 -6.33301 0.333008 -9 1s-5.66699 1.66699 -9 3
c-15.333 4.66699 -30.5 8.33398 -45.5 11.001s-34.167 4 -57.5 4c-34 0 -65.5 -5.33301 -94.5 -16s-54 -26.5 -75 -47.5s-37.333 -46.833 -49 -77.5s-17.5 -66.334 -17.5 -107.001c0 -37.333 5.33301 -70.833 16 -100.5s26 -55 46 -76s44.5 -37.167 73.5 -48.5
s62.167 -17 99.5 -17c34.667 0 69.667 4.66699 105 14c3.33301 1.33301 6.5 2.33301 9.5 3s6.16699 1 9.5 1c8.66699 0 14 -4 16 -12l12 -55c0.666992 -2 1 -4.33301 1 -7v-5c0 -5.33301 -1.83301 -9.66602 -5.5 -12.999s-8.16699 -5.66602 -13.5 -6.99902
c-17.333 -5.33301 -38.666 -10.333 -63.999 -15s-55.666 -7 -90.999 -7z" />
    <glyph glyph-name="D" unicode="D" horiz-adv-x="693" 
d="M199 97c11.333 -2 24.001 -3.66797 38.001 -5.00098s27.333 -2 40 -2c80.667 0 141.667 23 183 69s62 109.333 62 190c0 34.667 -4.66699 66.334 -14 95.001s-23.5 53.334 -42.5 74.001s-42.833 36.667 -71.5 48s-62.334 17 -101.001 17
c-19.333 0 -37 -0.833008 -53 -2.5s-29.667 -3.83398 -41 -6.50098v-477zM76.001 622.999c0 12.667 2.66797 21.835 8.00098 27.502s11 9.16699 17 10.5c12.667 2.66699 27.167 5.16699 43.5 7.5s33 4.16602 50 5.49902s34 2.5 51 3.5s32.5 1.5 46.5 1.5
c53.333 0 102.166 -6.5 146.499 -19.5s82.333 -33 114 -60s56.167 -60.833 73.5 -101.5s26 -89 26 -145c0 -61.333 -8.66699 -114.5 -26 -159.5s-42.5 -82.333 -75.5 -112s-73 -51.834 -120 -66.501s-99.833 -22 -158.5 -22c-11.333 0 -24.333 0.5 -39 1.5
s-29.667 2.16699 -45 3.5s-30.5 3.16602 -45.5 5.49902s-28.833 4.83301 -41.5 7.5c-6 1.33301 -11.667 4.83301 -17 10.5s-8 14.834 -8 27.501v574z" />
    <glyph glyph-name="E" unicode="E" horiz-adv-x="525" 
d="M483 26c0 -7.33301 -2.50195 -13.502 -7.50195 -18.502s-11.167 -7.5 -18.5 -7.5h-355c-7.33301 0 -13.5 2.5 -18.5 7.5s-7.5 11.167 -7.5 18.5v622c0 7.33301 2.5 13.5 7.5 18.5s11.167 7.5 18.5 7.5h354c6.66699 0 11.834 -2.16699 15.501 -6.5s5.5 -9.83301 5.5 -16.5
c0 -1.33301 -0.166992 -3.5 -0.5 -6.5s-0.833008 -6.16699 -1.5 -9.5l-6 -38c-1.33301 -7.33301 -4.33301 -13.166 -9 -17.499s-10.667 -6.5 -18 -6.5h-243v-173h236c6.66699 0 11.834 -2.16699 15.501 -6.5s5.5 -9.83301 5.5 -16.5c0 -1.33301 -0.166992 -3.5 -0.5 -6.5
s-0.833008 -6.16699 -1.5 -9.5l-6 -38c-1.33301 -7.33301 -4.33301 -13.166 -9 -17.499s-10.667 -6.5 -18 -6.5h-222v-198h258c7.33301 0 13.5 -2.5 18.5 -7.5s7.5 -11.167 7.5 -18.5v-49z" />
    <glyph glyph-name="F" unicode="F" horiz-adv-x="519" 
d="M199 26c0 -7.33301 -2.50195 -13.502 -7.50195 -18.502s-11.167 -7.5 -18.5 -7.5h-71c-7.33301 0 -13.5 2.5 -18.5 7.5s-7.5 11.167 -7.5 18.5v622c0 7.33301 2.5 13.5 7.5 18.5s11.167 7.5 18.5 7.5h354c6.66699 0 11.834 -2.16699 15.501 -6.5s5.5 -9.83301 5.5 -16.5
c0 -1.33301 -0.166992 -3.5 -0.5 -6.5s-0.833008 -6.16699 -1.5 -9.5l-6 -38c-1.33301 -7.33301 -4.33301 -13.166 -9 -17.499s-10.667 -6.5 -18 -6.5h-243v-186h231c6.66699 0 11.834 -2.16699 15.501 -6.5s5.5 -9.83301 5.5 -16.5c0 -1.33301 -0.166992 -3.5 -0.5 -6.5
s-0.833008 -6.16699 -1.5 -9.5l-6 -37c-1.33301 -7.33301 -4.33301 -13.166 -9 -17.499s-10.667 -6.5 -18 -6.5h-217v-261z" />
    <glyph glyph-name="G" unicode="G" horiz-adv-x="676" 
d="M400 -7c-114 0 -202.332 30 -264.999 90c-30 28.667 -53.167 64.334 -69.5 107.001s-24.5 89.667 -24.5 141c0 53.333 9.16699 101.666 27.5 144.999s44 80.166 77 110.499s72.333 53.666 118 69.999s96.5 24.5 152.5 24.5c32.667 0 62.167 -2.5 88.5 -7.5
s48.833 -10.167 67.5 -15.5c5.33301 -1.33301 10 -3.66602 14 -6.99902s6 -7.66602 6 -12.999c0 -0.666992 -0.333008 -2.16699 -1 -4.5s-1.33398 -4.5 -2.00098 -6.5l-18 -58c-2.66699 -7.33301 -8 -11 -16 -11c-3.33301 0 -6.33301 0.333008 -9 1s-5.66699 1.66699 -9 3
c-15.333 4.66699 -33 8.66699 -53 12s-43 5 -69 5c-36 0 -69 -5.16699 -99 -15.5s-55.833 -25.833 -77.5 -46.5s-38.5 -46 -50.5 -76s-18 -64.667 -18 -104c0 -38.667 5.66699 -73 17 -103s27.166 -55.5 47.499 -76.5s44.833 -37 73.5 -48s60.667 -16.5 96 -16.5
c22.667 0 41.834 1.33301 57.501 4s27.5 5.66699 35.5 9v169h-97c-7.33301 0 -13.5 2.5 -18.5 7.5s-7.5 11.167 -7.5 18.5v45c0 7.33301 2.5 13.5 7.5 18.5s11.167 7.5 18.5 7.5h190c7.33301 0 13.5 -2.5 18.5 -7.5s7.5 -11.167 7.5 -18.5v-286
c0 -12.667 -2.66699 -21.5 -8 -26.5s-12 -8.83301 -20 -11.5c-27.333 -8.66699 -57 -15.667 -89 -21s-65 -8 -99 -8z" />
    <glyph glyph-name="H" unicode="H" horiz-adv-x="672" 
d="M199 26c0 -7.33301 -2.5 -13.5 -7.5 -18.5s-11.167 -7.5 -18.5 -7.5h-71c-7.33301 0 -13.5 2.5 -18.5 7.5s-7.5 11.167 -7.5 18.5v622c0 7.33301 2.5 13.5 7.5 18.5s11.167 7.5 18.5 7.5h71c7.33301 0 13.5 -2.5 18.5 -7.5s7.5 -11.167 7.5 -18.5v-244h275v244
c0 7.33301 2.5 13.5 7.5 18.5s11.167 7.5 18.5 7.5h71c7.33301 0 13.5 -2.5 18.5 -7.5s7.5 -11.167 7.5 -18.5v-622c0 -7.33301 -2.5 -13.5 -7.5 -18.5s-11.167 -7.5 -18.5 -7.5h-71c-7.33301 0 -13.5 2.5 -18.5 7.5s-7.5 11.167 -7.5 18.5v271h-275v-271z" />
    <glyph glyph-name="I" unicode="I" horiz-adv-x="274" 
d="M199 26c0 -7.33301 -2.5 -13.5 -7.5 -18.5s-11.167 -7.5 -18.5 -7.5h-71c-7.33301 0 -13.5 2.5 -18.5 7.5s-7.5 11.167 -7.5 18.5v622c0 7.33301 2.5 13.5 7.5 18.5s11.167 7.5 18.5 7.5h71c7.33301 0 13.5 -2.5 18.5 -7.5s7.5 -11.167 7.5 -18.5v-622z" />
    <glyph glyph-name="J" unicode="J" horiz-adv-x="402" 
d="M333 228c0 -46.667 -5.33301 -85.3311 -16 -115.998s-25.834 -55.167 -45.501 -73.5s-43.167 -31.166 -70.5 -38.499s-57.666 -11 -90.999 -11c-14 0 -28.5 0.833008 -43.5 2.5s-29.167 4.16699 -42.5 7.5c-3.33301 1.33301 -6.66602 3.16602 -9.99902 5.49902
s-5 6.83301 -5 13.5c0 2.66699 0.166992 6.16699 0.5 10.5s0.833008 8.16602 1.5 11.499l7 47c0.666992 5.33301 2.16699 8.83301 4.5 10.5s5.16602 2.5 8.49902 2.5c2 0 4 -0.333008 6 -1l6 -2c8.66699 -2 17 -3.33301 25 -4s17.667 -1 29 -1c17.333 0 33 1.83301 47 5.5
s25.833 10.5 35.5 20.5s17.167 24.167 22.5 42.5s8 42.166 8 71.499v416c0 7.33301 2.5 13.5 7.5 18.5s11.167 7.5 18.5 7.5h71c7.33301 0 13.5 -2.5 18.5 -7.5s7.5 -11.167 7.5 -18.5v-420z" />
    <glyph glyph-name="K" unicode="K" horiz-adv-x="610" 
d="M201 366l20.998 31.001c6 9.33301 12.5 18.833 19.5 28.5l19.5 26.5l149 199c6.66699 8.66699 12.834 14.667 18.501 18s12.834 5 21.501 5h89c14.667 0 22 -4.66699 22 -14c0 -4 -1.33301 -7.66699 -4 -11l-211 -262l230 -361c2.66699 -4.66699 4 -8.66699 4 -12
c0 -9.33301 -7 -14 -21 -14h-82c-8 0 -15.667 1.66699 -23 5s-14 9.66602 -20 18.999l-175 288l-61 -54v-232c0 -7.33301 -2.5 -13.5 -7.5 -18.5s-11.167 -7.5 -18.5 -7.5h-70c-7.33301 0 -13.5 2.5 -18.5 7.5s-7.5 11.167 -7.5 18.5v622c0 7.33301 2.5 13.5 7.5 18.5
s11.167 7.5 18.5 7.5h70c7.33301 0 13.5 -2.5 18.5 -7.5s7.5 -11.167 7.5 -18.5v-282h3z" />
    <glyph glyph-name="L" unicode="L" horiz-adv-x="503" 
d="M102 0c-7.33301 0 -13.501 2.49902 -18.501 7.49902s-7.5 11.167 -7.5 18.5v622c0 7.33301 2.5 13.5 7.5 18.5s11.167 7.5 18.5 7.5h71c7.33301 0 13.5 -2.5 18.5 -7.5s7.5 -11.167 7.5 -18.5v-545h261c6.66699 0 11.834 -2.16699 15.501 -6.5s5.5 -9.83301 5.5 -16.5
c0 -1.33301 -0.166992 -3.5 -0.5 -6.5s-0.833008 -6.16699 -1.5 -9.5l-6 -40c-1.33301 -7.33301 -4.33301 -13.166 -9 -17.499s-10.667 -6.5 -18 -6.5h-344z" />
    <glyph glyph-name="M" unicode="M" horiz-adv-x="837" 
d="M380 311c4.66699 -14.667 9.16797 -30.334 13.501 -47.001s8.16602 -32 11.499 -46c4 -16.667 7.66699 -33 11 -49h3l12 49c3.33301 14 7.16602 29.167 11.499 45.5s9.16602 31.5 14.499 45.5l115 343c3.33301 8 6.83301 13.667 10.5 17s10.167 5 19.5 5h113
c16 0 24.333 -7.33301 25 -22l35 -605c0.666992 -6.66699 1.16699 -13.334 1.5 -20.001s0.5 -10.334 0.5 -11.001c0 -7.33301 -2.16699 -11.833 -6.5 -13.5s-9.5 -2.5 -15.5 -2.5h-74c-9.33301 0 -15.666 2.16699 -18.999 6.5s-5 9.16602 -5 14.499l-12 246
c-2 39.333 -3.5 76.5 -4.5 111.5s-1.83301 65.833 -2.5 92.5c-0.666992 31.333 -1 60.333 -1 87h-3l-167 -523c-2.66699 -7.33301 -6 -13.666 -10 -18.999s-10.333 -8 -19 -8h-55c-7.33301 0 -13.833 1.83301 -19.5 5.5s-10.167 11.167 -13.5 22.5l-149 522h-2
c-1.33301 -44 -2.66602 -91.333 -3.99902 -142s-3.33301 -99 -6 -145l-14 -250c-0.666992 -5.33301 -2.5 -10.166 -5.5 -14.499s-9.16699 -6.5 -18.5 -6.5h-69c-6 0 -11.167 0.833008 -15.5 2.5s-6.5 6.16699 -6.5 13.5c0 0.666992 0.166992 3.83398 0.5 9.50098
s0.833008 11.834 1.5 18.501l41 608c0.666992 14.667 9 22 25 22h115c9.33301 0 16 -1.66699 20 -5s7.33301 -9 10 -17z" />
    <glyph glyph-name="N" unicode="N" horiz-adv-x="686" 
d="M506 156c-2 27.333 -3.66699 57 -5 89c-1.33301 26.667 -2.5 57 -3.5 91s-1.5 69 -1.5 105v207c0 7.33301 2.5 13.5 7.5 18.5s11.167 7.5 18.5 7.5h62c7.33301 0 13.5 -2.5 18.5 -7.5s7.5 -11.167 7.5 -18.5v-622c0 -7.33301 -2.5 -13.5 -7.5 -18.5
s-11.167 -7.5 -18.5 -7.5h-88c-7.33301 0 -13.333 2.66699 -18 8s-9 11.333 -13 18l-224 386l-57 123h-3l4 -112c0.666992 -31.333 1.5 -64.5 2.5 -99.5s1.5 -65.167 1.5 -90.5v-207c0 -7.33301 -2.5 -13.5 -7.5 -18.5s-11.167 -7.5 -18.5 -7.5h-62
c-7.33301 0 -13.5 2.5 -18.5 7.5s-7.5 11.167 -7.5 18.5v622c0 7.33301 2.5 13.5 7.5 18.5s11.167 7.5 18.5 7.5h101c7.33301 0 13.333 -2.66699 18 -8s9 -11.333 13 -18l215 -371l55 -121h3z" />
    <glyph glyph-name="O" unicode="O" horiz-adv-x="714" 
d="M352 -11c-48 0 -91.168 8.6709 -129.501 26.0039s-71 41.166 -98 71.499s-47.667 66.5 -62 108.5s-21.5 87.667 -21.5 137c0 51.333 7.83301 98.666 23.5 141.999s37.667 80.666 66 111.999s62.166 55.666 101.499 72.999s82.666 26 129.999 26
c48.667 0 92.334 -8.83301 131.001 -26.5s71.5 -41.667 98.5 -72s47.5 -66.333 61.5 -108s21 -86.5 21 -134.5c0 -56.667 -8.16699 -107 -24.5 -151s-38.666 -81.167 -66.999 -111.5s-62.166 -53.333 -101.499 -69s-82 -23.5 -128 -23.5h-1zM357.999 88.0039
c30 0 56.499 6.49902 79.499 19.499s42.333 30.667 58 53s27.667 48.833 36 79.5s12.5 63.667 12.5 99c0 32 -4 62.833 -12 92.5s-19.667 56 -35 79s-34.666 41.333 -57.999 55s-50.333 20.5 -81 20.5s-57.667 -6.83301 -81 -20.5s-42.833 -32 -58.5 -55
s-27.5 -49.667 -35.5 -80s-12 -62.166 -12 -95.499s4.16699 -65 12.5 -95s20.5 -56.333 36.5 -79s35.5 -40.5 58.5 -53.5s49.167 -19.5 78.5 -19.5h1z" />
    <glyph glyph-name="P" unicode="P" horiz-adv-x="569" 
d="M198 26c0 -7.33301 -2.33301 -13.5 -7 -18.5s-10.667 -7.5 -18 -7.5h-71c-7.33301 0 -13.5 2.5 -18.5 7.5s-7.5 11.167 -7.5 18.5v597c0 12.667 2.5 21.834 7.5 27.501s10.5 9.16699 16.5 10.5c24.667 5.33301 52 9.66602 82 12.999s58.667 5 86 5
c36.667 0 70.834 -3.5 102.501 -10.5s59.167 -18.5 82.5 -34.5s41.666 -37 54.999 -63s20 -58 20 -96s-6.83301 -71 -20.5 -99s-32.5 -51.333 -56.5 -70s-52.5 -32.667 -85.5 -42s-68.833 -14 -107.5 -14h-60v-224zM258 346c46 0 82.165 10.835 108.498 32.502
s39.5 52.167 39.5 91.5c0 37.333 -12.167 65.666 -36.5 84.999s-57.833 29 -100.5 29c-17.333 0 -31.666 -0.833008 -42.999 -2.5s-20.666 -3.83398 -27.999 -6.50098v-229h60z" />
    <glyph glyph-name="Q" unicode="Q" horiz-adv-x="714" 
d="M647 -92c-2.66699 -7.33301 -6.67188 -12.166 -12.0049 -14.499s-11 -3.5 -17 -3.5c-5.33301 0 -10.666 0.666992 -15.999 2c-19.333 6 -37.833 12.5 -55.5 19.5s-35 14.333 -52 22l-51 23c-17 7.66699 -34.833 15.167 -53.5 22.5
c-7.33301 3.33301 -16.333 5.66602 -27 6.99902s-19.667 2.33301 -27 3c-39.333 2 -76.666 10.667 -111.999 26s-66.666 37.333 -93.999 66s-49 63.834 -65 105.501s-24 89.834 -24 144.501c0 52 7.66699 99.667 23 143s37.166 80.666 65.499 111.999
s62.333 55.666 102 72.999s83.5 26 131.5 26c48.667 0 92.334 -8.83301 131.001 -26.5s71.334 -41.834 98.001 -72.501s47 -66.667 61 -108s21 -85.666 21 -132.999c0 -40.667 -4.5 -77.834 -13.5 -111.501s-21.167 -63.667 -36.5 -90s-33.666 -48.666 -54.999 -66.999
s-44.333 -32.5 -69 -42.5v-4c26 -7.33301 53.167 -14 81.5 -20l80.5 -17c2 -0.666992 4.33301 -2 7 -4s4 -5 4 -9c0 -3.33301 -0.666992 -6.33301 -2 -9zM356.995 88c29.333 0 55.667 6.5 79 19.5s43 30.667 59 53s28.167 48.833 36.5 79.5s12.5 63.667 12.5 99
c0 32 -4 62.833 -12 92.5s-19.667 56 -35 79s-34.5 41.333 -57.5 55s-49.833 20.5 -80.5 20.5s-57.667 -6.83301 -81 -20.5s-43 -32 -59 -55s-28 -49.667 -36 -80s-12 -62.5 -12 -96.5s4.16699 -65.833 12.5 -95.5s20.5 -55.667 36.5 -78s35.5 -40 58.5 -53
s49.167 -19.5 78.5 -19.5z" />
    <glyph glyph-name="R" unicode="R" horiz-adv-x="600" 
d="M198 367l73 -0.00195312c42 0 74.833 10 98.5 30s35.5 47 35.5 81c0 36.667 -10.833 63.834 -32.5 81.501s-52.5 26.5 -92.5 26.5c-19.333 0 -36.333 -1.16699 -51 -3.5s-25 -4.16602 -31 -5.49902v-210zM541 34.998c1.33301 -4 2.33496 -8.16797 3.00195 -12.501
s1 -7.16602 1 -8.49902c0 -9.33301 -6.33301 -14 -19 -14h-85c-14 0 -23.333 8.33301 -28 25l-39 157c-5.33301 22 -11.333 39.333 -18 52s-14.5 22.167 -23.5 28.5s-19.5 10.333 -31.5 12s-26 2.5 -42 2.5h-61v-251c0 -7.33301 -2.5 -13.5 -7.5 -18.5
s-11.167 -7.5 -18.5 -7.5h-70c-7.33301 0 -13.5 2.5 -18.5 7.5s-7.5 11.167 -7.5 18.5v594c0 12.667 2.83301 21.834 8.5 27.501s11.5 9.16699 17.5 10.5c24.667 5.33301 51.667 10.166 81 14.499s57.666 6.5 84.999 6.5c36.667 0 70.834 -3 102.501 -9
s59.167 -16.333 82.5 -31s41.666 -34.167 54.999 -58.5s20 -54.833 20 -91.5c0 -22 -4 -42 -12 -60s-18.167 -34.167 -30.5 -48.5s-26.5 -26.5 -42.5 -36.5s-32 -17.667 -48 -23v-3c24.667 -9.33301 44.667 -21.5 60 -36.5s27.666 -38.5 36.999 -70.5z" />
    <glyph glyph-name="S" unicode="S" horiz-adv-x="529" 
d="M229 -10c-31.333 0 -60.998 3.00195 -88.998 9.00195s-51.667 13 -71 21c-6 2.66699 -11 5.5 -15 8.5s-6 7.16699 -6 12.5c0 3.33301 1.33301 8.33301 4 15l17 58c2.66699 7.33301 7.66699 11 15 11c3.33301 0 6.33301 -0.5 9 -1.5l9 -3.5
c15.333 -7.33301 34.666 -14 57.999 -20s49 -9 77 -9c39.333 0 69.5 8.33301 90.5 25s31.5 39 31.5 67c0 25.333 -9.16699 46.5 -27.5 63.5s-48.833 33.167 -91.5 48.5c-56.667 20.667 -101.334 46.334 -134.001 77.001s-49 70 -49 118c0 28 5.5 53.833 16.5 77.5
s26.833 44.167 47.5 61.5s45.834 30.833 75.501 40.5s62.834 14.5 99.501 14.5c16.667 0 31.5 -0.666992 44.5 -2s24.833 -3 35.5 -5s20.667 -4.5 30 -7.5s18.666 -5.83301 27.999 -8.5c6 -2 11 -4.5 15 -7.5s6 -7.16699 6 -12.5c0 -1.33301 -0.5 -4.33301 -1.5 -9
s-2.16699 -8.33398 -3.5 -11.001l-16 -50c-2.66699 -7.33301 -7.66699 -11 -15 -11c-3.33301 0 -6.33301 0.333008 -9 1s-5.66699 1.66699 -9 3c-15.333 4.66699 -31 9 -47 13s-36.333 6 -61 6c-19.333 0 -36 -2.33301 -50 -7s-25.5 -10.834 -34.5 -18.501
s-15.667 -16.334 -20 -26.001s-6.5 -19.5 -6.5 -29.5c0 -26 10.167 -46.667 30.5 -62s53.166 -31.333 98.499 -48c58.667 -22.667 102.167 -49.667 130.5 -81s42.5 -71 42.5 -119c0 -27.333 -5.16699 -53.166 -15.5 -77.499s-26 -45.833 -47 -64.5
s-47.5 -33.334 -79.5 -44.001s-69.667 -16 -113 -16z" />
    <glyph glyph-name="T" unicode="T" horiz-adv-x="535" 
d="M328 26c0 -7.33301 -2.50098 -13.501 -7.50098 -18.501s-11.167 -7.5 -18.5 -7.5h-71c-7.33301 0 -13.5 2.5 -18.5 7.5s-7.5 11.167 -7.5 18.5v545h-166c-7.33301 0 -13.5 2.5 -18.5 7.5s-7.5 11.167 -7.5 18.5v51c0 7.33301 2.5 13.5 7.5 18.5s11.167 7.5 18.5 7.5h468
c6.66699 0 11.834 -2.16699 15.501 -6.5s5.5 -9.83301 5.5 -16.5c0 -1.33301 -0.166992 -3.5 -0.5 -6.5s-0.833008 -6.16699 -1.5 -9.5l-6 -40c-1.33301 -7.33301 -4.33301 -13.166 -9 -17.499s-10.667 -6.5 -18 -6.5h-165v-545z" />
    <glyph glyph-name="U" unicode="U" horiz-adv-x="666" 
d="M596 279c0 -52 -6.50098 -96.334 -19.501 -133.001s-31.167 -66.667 -54.5 -90s-51.5 -40.333 -84.5 -51s-69.833 -16 -110.5 -16c-39.333 0 -74.666 5.16699 -105.999 15.5s-58.333 26.833 -81 49.5s-40 52.334 -52 89.001s-18 81.667 -18 135v370
c0 7.33301 2.5 13.5 7.5 18.5s11.167 7.5 18.5 7.5h71c7.33301 0 13.5 -2.5 18.5 -7.5s7.5 -11.167 7.5 -18.5v-377c0 -61.333 12.5 -107.166 37.5 -137.499s58.5 -45.5 100.5 -45.5c44.667 0 79.5 15.167 104.5 45.5s37.5 76.166 37.5 137.499v377
c0 7.33301 2.5 13.5 7.5 18.5s11.167 7.5 18.5 7.5h71c7.33301 0 13.5 -2.5 18.5 -7.5s7.5 -11.167 7.5 -18.5v-369z" />
    <glyph glyph-name="V" unicode="V" horiz-adv-x="611" 
d="M466 653c1.33301 5.33301 4.5 10.166 9.5 14.499s12.167 6.5 21.5 6.5h80c14 0 21 -4.66699 21 -14c0 -2.66699 -0.666992 -6 -2 -10l-215 -621c-2.66699 -8 -6.16699 -14.833 -10.5 -20.5s-10.833 -8.5 -19.5 -8.5h-96c-16 0 -27.333 9.66699 -34 29l-201 621
c-1.33301 4 -2 7.33301 -2 10c0 9.33301 7 14 21 14h82c9.33301 0 16.5 -2.16699 21.5 -6.5s8.16699 -9.16602 9.5 -14.499l86 -287l24 -85.5l21 -78.5l21 -80h2l21 80l22 78.5c8 29 16.667 57.5 26 85.5z" />
    <glyph glyph-name="W" unicode="W" horiz-adv-x="879" 
d="M620 136h1.99902l111 515c1.33301 5.33301 4.33301 10.5 9 15.5s11.667 7.5 21 7.5h75c13.333 0 20 -4.66699 20 -14c0 -1.33301 -0.166992 -3.33301 -0.5 -6s-0.833008 -4.66699 -1.5 -6l-167 -619c-2 -8 -5.33301 -14.833 -10 -20.5s-11.334 -8.5 -20.001 -8.5h-91
c-7.33301 0 -14.333 2.16699 -21 6.5s-11 12.166 -13 23.499l-92 501h-2l-106 -502c-1.33301 -8 -4.5 -14.833 -9.5 -20.5s-11.833 -8.5 -20.5 -8.5h-92c-7.33301 0 -14.166 2 -20.499 6s-10.833 11.667 -13.5 23l-153 621c-1.33301 4 -2 7.33301 -2 10
c0 9.33301 7.33301 14 22 14h79c9.33301 0 16.5 -2.16699 21.5 -6.5s8.16699 -9.16602 9.5 -14.499l104 -520h2l107 513c2.66699 11.333 7 18.833 13 22.5s12.667 5.5 20 5.5h92c8.66699 0 15.334 -2.5 20.001 -7.5s7.66699 -11.5 9 -19.5z" />
    <glyph glyph-name="X" unicode="X" horiz-adv-x="604" 
d="M564 25c2 -4 2.99805 -7.66895 2.99805 -11.002c0 -9.33301 -7 -14 -21 -14h-90c-9.33301 0 -16.166 2.33301 -20.499 7s-7.83301 9.33398 -10.5 14.001l-129 240h-2l-118 -241c-2 -4.66699 -5.16699 -9.16699 -9.5 -13.5s-11.166 -6.5 -20.499 -6.5h-88
c-14 0 -21 4.66699 -21 14v5c0 2 0.666992 3.66699 2 5l186 317l-179 309c-1.33301 1.33301 -2 3 -2 5v5c0 9.33301 7 14 21 14h89c9.33301 0 16.333 -2.5 21 -7.5s8 -9.83301 10 -14.5l117 -230h3l115 231c2 4.66699 5.33301 9.33398 10 14.001s11.667 7 21 7h87
c14 0 21 -4.66699 21 -14v-5c0 -1.33301 -0.666992 -3 -2 -5l-183 -305z" />
    <glyph glyph-name="Y" unicode="Y" horiz-adv-x="585" 
d="M428 653c2 4.66699 5.33398 9.33301 10.001 14s11.667 7 21 7h84c14 0 21 -4.66699 21 -14v-5c0 -1.33301 -0.666992 -3 -2 -5l-210 -376v-248c0 -7.33301 -2.5 -13.5 -7.5 -18.5s-11.167 -7.5 -18.5 -7.5h-71c-7.33301 0 -13.5 2.5 -18.5 7.5s-7.5 11.167 -7.5 18.5v245
l-200 379c-1.33301 1.33301 -2 3 -2 5v5c0 9.33301 7 14 21 14h87c9.33301 0 16.333 -2.33301 21 -7s8 -9.33398 10 -14.001l75 -163c7.33301 -15.333 14.166 -30.666 20.499 -45.999l17.5 -43l17 -44h2l58 134z" />
    <glyph glyph-name="Z" unicode="Z" horiz-adv-x="576" 
d="M376 569l-0.000976562 2.99902h-298c-7.33301 0 -13.5 2.5 -18.5 7.5s-7.5 11.167 -7.5 18.5v50c0 7.33301 2.5 13.5 7.5 18.5s11.167 7.5 18.5 7.5h431c7.33301 0 13.5 -2.5 18.5 -7.5s7.5 -11.167 7.5 -18.5v-26c0 -8.66699 -0.833008 -15.167 -2.5 -19.5
s-4.16699 -9.16602 -7.5 -14.499l-330 -483v-3h328c6.66699 0 11.834 -2.16699 15.501 -6.5s5.5 -9.83301 5.5 -16.5c0 -1.33301 -0.166992 -3.5 -0.5 -6.5s-0.833008 -6.16699 -1.5 -9.5l-6 -39c-1.33301 -7.33301 -4.33301 -13.166 -9 -17.499s-10.667 -6.5 -18 -6.5h-452
c-7.33301 0 -13.5 2.5 -18.5 7.5s-7.5 11.167 -7.5 18.5v22c0 8.66699 0.833008 15.167 2.5 19.5s4.16699 9.16602 7.5 14.499z" />
    <glyph glyph-name="bracketleft" unicode="[" horiz-adv-x="311" 
d="M274 -86c0 -7.33301 -2.5 -13.5 -7.5 -18.5s-11.167 -7.5 -18.5 -7.5h-143c-7.33301 0 -13.5 2.5 -18.5 7.5s-7.5 11.167 -7.5 18.5v746c0 7.33301 2.5 13.5 7.5 18.5s11.167 7.5 18.5 7.5h143c7.33301 0 13.5 -2.5 18.5 -7.5s7.5 -11.167 7.5 -18.5v-19
c0 -7.33301 -2.5 -13.5 -7.5 -18.5s-11.167 -7.5 -18.5 -7.5h-78v-656h78c7.33301 0 13.5 -2.5 18.5 -7.5s7.5 -11.167 7.5 -18.5v-19v0z" />
    <glyph glyph-name="backslash" unicode="\" horiz-adv-x="347" 
d="M15 652c-1.33301 3.33301 -2.33301 6.5 -3 9.5s-1 5.83301 -1 8.5c0 4.66699 2.16699 8.33398 6.5 11.001s9.83301 4 16.5 4h34c7.33301 0 13.666 -2.5 18.999 -7.5s9.33301 -11.167 12 -18.5l224 -666c1.33301 -3.33301 2.33301 -6.5 3 -9.5s1 -5.83301 1 -8.5
c0 -4.66699 -2.16699 -8.33398 -6.5 -11.001s-9.83301 -4 -16.5 -4h-34c-7.33301 0 -13.666 2.5 -18.999 7.5s-9.33301 11.167 -12 18.5z" />
    <glyph glyph-name="bracketright" unicode="]" horiz-adv-x="311" 
d="M37 660c0 7.33301 2.5 13.5 7.5 18.5s11.167 7.5 18.5 7.5h143c7.33301 0 13.5 -2.5 18.5 -7.5s7.5 -11.167 7.5 -18.5v-746c0 -7.33301 -2.5 -13.5 -7.5 -18.5s-11.167 -7.5 -18.5 -7.5h-143c-7.33301 0 -13.5 2.5 -18.5 7.5s-7.5 11.167 -7.5 18.5v19
c0 7.33301 2.5 13.5 7.5 18.5s11.167 7.5 18.5 7.5h78v656h-78c-7.33301 0 -13.5 2.5 -18.5 7.5s-7.5 11.167 -7.5 18.5v19v0z" />
    <glyph glyph-name="asciicircum" unicode="^" horiz-adv-x="606" 
d="M542 195c0 -4.66699 -2.5 -8 -7.5 -10s-10.833 -3 -17.5 -3h-34c-7.33301 0 -13.5 2.5 -18.5 7.5s-9.16699 11.167 -12.5 18.5l-149 345h-2l-147 -345c-3.33301 -7.33301 -7.5 -13.5 -12.5 -18.5s-11.167 -7.5 -18.5 -7.5h-34c-6.66699 0 -12.5 1 -17.5 3
s-7.5 5.33301 -7.5 10c0 2.66699 0.666992 5.83398 2 9.50098l4 10.5l184 409c3.33301 7.33301 7.5 13.5 12.5 18.5s11.167 7.5 18.5 7.5h34c7.33301 0 13.5 -2.5 18.5 -7.5s9.16699 -11.167 12.5 -18.5l186 -409l4 -10.5c1.33301 -3.66699 2 -6.83398 2 -9.50098z" />
    <glyph glyph-name="underscore" unicode="_" horiz-adv-x="500" 
d="M488 -75c8 0 11.999 -3.33203 11.999 -9.99902v-3c0 -2 -0.333008 -4.66699 -1 -8l-3 -17c-1.33301 -8 -5.66602 -12 -12.999 -12h-471c-8 0 -12 3.33301 -12 10v4c-0 1.33301 0.333008 3.66602 1 6.99902l3 17c0.666992 8 5 12 13 12h471z" />
    <glyph glyph-name="grave" unicode="`" horiz-adv-x="300" 
d="M210 584c2 -3.33301 3.5 -6.66602 4.5 -9.99902s1.5 -6 1.5 -8c0 -5.33301 -1.66699 -9.33301 -5 -12s-9.66602 -4 -18.999 -4h-34c-9.33301 0 -16.833 2.5 -22.5 7.5s-11.834 11.5 -18.501 19.5l-73 88c-3.33301 3.33301 -5.5 6.83301 -6.5 10.5s-1.5 6.5 -1.5 8.5
c0 12 9.33301 18 28 18h53c9.33301 0 17 -2.33301 23 -7s11.667 -11.334 17 -20.001z" />
    <glyph glyph-name="a" unicode="a" horiz-adv-x="523" 
d="M334 236c-22 0 -43.166 -1.16699 -63.499 -3.5s-38.333 -6.83301 -54 -13.5s-28.334 -15.667 -38.001 -27s-14.5 -26.333 -14.5 -45c0 -24 6.83301 -41.667 20.5 -53s30.167 -17 49.5 -17c30 0 54.167 8.16699 72.5 24.5s27.5 39.5 27.5 69.5v65zM238.001 411
c-8 0 -16.9971 -0.666992 -26.9971 -2s-20.333 -3 -31 -5s-20.834 -4.5 -30.501 -7.5s-18.5 -6.16699 -26.5 -9.5c-2.66699 -1.33301 -5.33398 -2.5 -8.00098 -3.5s-5.66699 -1.5 -9 -1.5c-7.33301 0 -12 3.66699 -14 11l-12 36
c-1.33301 3.33301 -2.16602 5.83301 -2.49902 7.5s-0.5 3.5 -0.5 5.5c0 6.66699 1.83301 11.667 5.5 15s7.16699 5.66602 10.5 6.99902c25.333 12 52.5 20.667 81.5 26s57.167 8 84.5 8c38.667 0 70.667 -5.16699 96 -15.5s45.333 -24.5 60 -42.5
s24.834 -38.833 30.501 -62.5s8.5 -48.834 8.5 -75.501v-185l10 -85c0 -6 -1.33301 -10.333 -4 -13s-7.33398 -5 -14.001 -7l-65 -18c-3.33301 -1.33301 -6 -2 -8 -2h-4c-6 0 -10.5 2.33301 -13.5 7s-5.16699 11 -6.5 19l-7 36h-3c-14.667 -19.333 -34.334 -35 -59.001 -47
s-53 -18 -85 -18c-24.667 0 -46.5 4 -65.5 12s-35 18.833 -48 32.5s-22.833 29.167 -29.5 46.5s-10 35.333 -10 54c0 30.667 6.83301 57 20.5 79s33 40.167 58 54.5s55.5 25 91.5 32s76.667 10.5 122 10.5v26c0 8 -1 16.333 -3 25s-6.33301 16.834 -13 24.501
s-16.334 13.834 -29.001 18.501s-29.667 7 -51 7z" />
    <glyph glyph-name="b" unicode="b" horiz-adv-x="595" 
d="M194 191c0 -32 10.666 -57.499 31.999 -76.499s48 -28.5 80 -28.5c38.667 0 69 14.167 91 42.5s33 67.5 33 117.5c0 21.333 -2.5 41.5 -7.5 60.5s-12.667 35.5 -23 49.5s-23.166 25.167 -38.499 33.5s-33.333 12.5 -54 12.5c-15.333 0 -29.833 -2.66699 -43.5 -8
s-25.667 -13 -36 -23s-18.5 -21.833 -24.5 -35.5s-9 -28.834 -9 -45.501v-99zM198.999 685.001l0.00292969 -17.998c0 -11.333 -0.333008 -21.666 -1 -30.999l-7 -216h5c15.333 23.333 36 42.166 62 56.499s57.333 21.5 94 21.5c30 0 57.333 -6 82 -18s46 -28.667 64 -50
s32 -47.333 42 -78s15 -64.334 15 -101.001c0 -44 -6.33301 -82.333 -19 -115s-29.334 -59.834 -50.001 -81.501s-44.334 -38 -71.001 -49s-53.667 -16.5 -81 -16.5c-32 0 -61.333 6.5 -88 19.5s-48.667 34.5 -66 64.5h-2l-9 -57
c-1.33301 -7.33301 -2.83301 -13.333 -4.5 -18s-5.83398 -7 -12.501 -7h-4c-1.33301 0 -4 0.666992 -8 2l-68 14c-6 1.33301 -10.5 3.33301 -13.5 6s-4.5 7.33398 -4.5 14.001c0 1.33301 0.166992 6.33301 0.5 15s1.16602 17.334 2.49902 26.001l14 147v456
c0 10 2.83301 17.167 8.5 21.5s12.834 7.16602 21.501 8.49902l47 7c6 1.33301 11.167 2.16602 15.5 2.49902s6.83301 0.5 7.5 0.5c18.667 0 28 -8.66699 28 -26z" />
    <glyph glyph-name="c" unicode="c" horiz-adv-x="459" 
d="M424 41l1.99902 -10.0039c0.666992 -3.33301 1 -5.66602 1 -6.99902c0 -6.66699 -1.66699 -10.667 -5 -12s-6.33301 -2.66602 -9 -3.99902c-14 -5.33301 -31.5 -9.66602 -52.5 -12.999s-44.167 -5 -69.5 -5c-38 0 -72.5 5.83301 -103.5 17.5s-57.333 28.334 -79 50.001
s-38.5 47.834 -50.5 78.501s-18 65 -18 103c0 36.667 6.16699 70.667 18.5 102s30 58.666 53 81.999s51.333 41.666 85 54.999s71.834 20 114.501 20c18 0 35.833 -1.33301 53.5 -4s33.5 -6.33398 47.5 -11.001c3.33301 -1.33301 6.66602 -3 9.99902 -5s5 -6 5 -12
c0 -2 -0.333008 -4.83301 -1 -8.5s-1.66699 -7.83398 -3 -12.501l-10 -44c-2.66699 -8 -7.33398 -12 -14.001 -12c-2.66699 0 -5 0.333008 -7 1l-6 2c-9.33301 3.33301 -19.666 5.83301 -30.999 7.5s-24.666 2.5 -39.999 2.5c-23.333 0 -44.333 -4 -63 -12
s-34.334 -19.167 -47.001 -33.5s-22.334 -31.166 -29.001 -50.499s-10 -40 -10 -62c0 -25.333 3.83301 -47.666 11.5 -66.999s18.167 -35.666 31.5 -48.999s29 -23.5 47 -30.5s37.667 -10.5 59 -10.5c14.667 0 28 0.833008 40 2.5s23 4.16699 33 7.5
c2.66699 1.33301 5.33398 2.5 8.00098 3.5s5.33398 1.5 8.00098 1.5c5.33301 0 9 -4 11 -12z" />
    <glyph glyph-name="d" unicode="d" horiz-adv-x="591" 
d="M397 304c0 12.667 -2.33496 24.999 -7.00195 36.999s-11.667 22.5 -21 31.5s-20.666 16.333 -33.999 22s-29 8.5 -47 8.5c-20 0 -37.5 -4.16699 -52.5 -12.5s-27.833 -19.666 -38.5 -33.999s-18.667 -31.166 -24 -50.499s-8 -40.333 -8 -63
c0 -45.333 10.5 -82.5 31.5 -111.5s51.167 -43.5 90.5 -43.5c16 0 30.667 2.66699 44 8s24.833 12.666 34.5 21.999s17.334 20.333 23.001 33s8.5 26 8.5 40v113zM391.998 670.999c0 10 2.83594 17.1699 8.50293 21.5029s12.834 7.16602 21.501 8.49902l47 7
c6 1.33301 11.167 2.16602 15.5 2.49902s6.83301 0.5 7.5 0.5c18.667 0 28 -8.66699 28 -26v-465l13 -147c1.33301 -8.66699 2.16602 -17.334 2.49902 -26.001s0.5 -13.667 0.5 -15c0 -6.66699 -1.5 -11.334 -4.5 -14.001s-7.5 -4.66699 -13.5 -6l-72 -18
c-4 -1.33301 -6.66699 -2 -8 -2h-4c-6.66699 0 -10.834 2.33301 -12.501 7s-3.16699 10.667 -4.5 18l-8 60h-2c-14.667 -27.333 -35.834 -48.833 -63.501 -64.5s-59.167 -23.5 -94.5 -23.5c-29.333 0 -56.666 6 -81.999 18s-47.5 28.833 -66.5 50.5
s-33.833 47.834 -44.5 78.501s-16 64.667 -16 102c0 40.667 5.83301 77.167 17.5 109.5s27.5 59.666 47.5 81.999s43.167 39.333 69.5 51s54.166 17.5 83.499 17.5c34 0 62.667 -6 86 -18s40.666 -27 51.999 -45h4l-7 193c-0.666992 12.667 -1 22.334 -1 29.001v14z" />
    <glyph glyph-name="e" unicode="e" horiz-adv-x="526" 
d="M158 209c0.666992 -22 5.16406 -41 13.4971 -57s19.333 -29 33 -39s29.5 -17.5 47.5 -22.5s36.667 -7.5 56 -7.5c23.333 0 43.5 1.33301 60.5 4s33.5 6.33398 49.5 11.001l7.5 2.5c3 1 5.83301 1.5 8.5 1.5c6 0 10 -4.33301 12 -13l10 -43c1.33301 -5.33301 2 -10 2 -14
c0 -5.33301 -1.66699 -9.33301 -5 -12s-6.33301 -4.66699 -9 -6c-20 -7.33301 -42.833 -13.166 -68.5 -17.499s-53.834 -6.5 -84.501 -6.5c-39.333 0 -74.666 5.83301 -105.999 17.5s-57.666 28.167 -78.999 49.5s-37.666 47.166 -48.999 77.499s-17 64.166 -17 101.499
c0 34 5 66.667 15 98s25 59.166 45 83.499s44.833 43.833 74.5 58.5s64.167 22 103.5 22c42 0 76.667 -7.33301 104 -22s48.833 -33.834 64.5 -57.501s26.5 -50.167 32.5 -79.5s9 -58.666 9 -87.999c0 -11.333 -1.66699 -21.166 -5 -29.499s-10.666 -12.5 -21.999 -12.5
h-303zM371.997 295c0 14 -1.5 28.002 -4.5 42.002s-8.16699 26.667 -15.5 38s-17.5 20.666 -30.5 27.999s-29.833 11 -50.5 11c-19.333 0 -35.833 -3.83301 -49.5 -11.5s-25 -17.334 -34 -29.001s-15.833 -24.5 -20.5 -38.5s-7.66699 -27.333 -9 -40h214z" />
    <glyph glyph-name="f" unicode="f" horiz-adv-x="329" 
d="M18 459c0 7.33301 2.50098 13.5 7.50098 18.5s11.167 7.5 18.5 7.5h44v33c0 32 4 61 12 87s22.667 49 44 69c18 17.333 38.333 29.5 61 36.5s44.667 10.5 66 10.5c13.333 0 25.166 -0.833008 35.499 -2.5s19.833 -3.5 28.5 -5.5c2.66699 -0.666992 5.5 -2 8.5 -4
s4.5 -5.33301 4.5 -10l-5 -68c-0.666992 -8.66699 -4 -13 -10 -13c-3.33301 0 -6 0.333008 -8 1c-10 2.66699 -22.333 4 -37 4c-30.667 0 -51.834 -9.33301 -63.501 -28s-17.5 -43 -17.5 -73v-35h97c6 0 11 -2 15 -6s6 -9 6 -15c0 -1.33301 -0.166992 -3.33301 -0.5 -6
s-0.833008 -5.66699 -1.5 -9l-5 -35c-1.33301 -6 -4.16602 -11 -8.49902 -15s-9.5 -6 -15.5 -6h-86v-369c0 -7.33301 -2.5 -13.5 -7.5 -18.5s-11.167 -7.5 -18.5 -7.5h-71c-7.33301 0 -13.5 2.5 -18.5 7.5s-7.5 11.167 -7.5 18.5v371h-41c-7.33301 0 -13.5 2.5 -18.5 7.5
s-7.5 11.167 -7.5 18.5v36v0z" />
    <glyph glyph-name="g" unicode="g" horiz-adv-x="531" 
d="M175 26c-17.333 -13.333 -30.0029 -25.5 -38.0029 -36.5s-12 -22.833 -12 -35.5c0 -9.33301 2.66699 -18.5 8 -27.5s13.333 -17.167 24 -24.5s24.334 -13.333 41.001 -18s36 -7 58 -7c20.667 0 39.167 2.33301 55.5 7s29.833 10.834 40.5 18.501s18.834 16 24.501 25
s8.5 18.167 8.5 27.5c0 13.333 -5.16699 24 -15.5 32s-30.5 14 -60.5 18c-24 2.66699 -43.5 5 -58.5 7s-27.167 3.83301 -36.5 5.5s-16.666 3.16699 -21.999 4.5s-11 2.66602 -17 3.99902zM327.997 329c0 26 -7 47.667 -21 65s-33.667 26 -59 26
c-27.333 0 -47.5 -9 -60.5 -27s-19.5 -40.333 -19.5 -67c0 -25.333 6.66699 -46.5 20 -63.5s33.333 -25.5 60 -25.5s46.667 8.66699 60 26s20 39.333 20 66zM500.997 492c13.333 -0.666992 20 -6.33301 20 -17c0 -2 -0.166992 -4.33301 -0.5 -7s-0.833008 -5.66699 -1.5 -9
l-9 -50c-2 -8 -6 -12 -12 -12l-67 -5c4.66699 -9.33301 8 -19.333 10 -30s3 -21.667 3 -33c0 -26 -5.16699 -49.333 -15.5 -70s-24.5 -38.167 -42.5 -52.5s-38.667 -25.333 -62 -33s-48 -11.5 -74 -11.5c-14 0 -27.333 1 -40 3c-6 -5.33301 -10.833 -10.166 -14.5 -14.499
s-5.5 -8.5 -5.5 -12.5s1.5 -7.5 4.5 -10.5s9.66699 -6.16699 20 -9.5s25.666 -6.83301 45.999 -10.5s47.833 -7.83398 82.5 -12.501c50.667 -7.33301 89.834 -19.166 117.501 -35.499s41.5 -43.166 41.5 -80.499c0 -28.667 -6.33301 -54.5 -19 -77.5
s-30.167 -42.667 -52.5 -59s-48.833 -29 -79.5 -38s-64.334 -13.5 -101.001 -13.5c-33.333 0 -64 3.83301 -92 11.5s-52.5 18.334 -73.5 32.001s-37.333 29.5 -49 47.5s-17.5 37 -17.5 57c0 22.667 7.66699 43.167 23 61.5s38.333 36.166 69 53.499
c-19.333 15.333 -29 32.666 -29 51.999c0 27.333 20.667 53.333 62 78c-29.333 13.333 -52 32.166 -68 56.499s-24 52.833 -24 85.5c0 26.667 5.16699 50.5 15.5 71.5s24.333 39 42 54s38.334 26.5 62.001 34.5s49.167 12 76.5 12c54.667 0 100.667 -15 138 -45l96 35
c8 2.66699 14.667 4 20 4z" />
    <glyph glyph-name="h" unicode="h" horiz-adv-x="582" 
d="M71 671c0 18.667 9.66699 29.665 29 32.998l37 6c5.33301 1.33301 11.333 2.33301 18 3s11 1 13 1c17.333 0 26 -8.66699 26 -26v-267h2c16 24 36.833 42.833 62.5 56.5s53.5 20.5 83.5 20.5c20.667 0 41.167 -3.16699 61.5 -9.5s38.5 -17.166 54.5 -32.499
s29 -36 39 -62s15 -58.333 15 -97v-271c0 -7.33301 -2.5 -13.5 -7.5 -18.5s-11.167 -7.5 -18.5 -7.5h-71c-7.33301 0 -13.5 2.5 -18.5 7.5s-7.5 11.167 -7.5 18.5v268c0 35.333 -7.16699 61.5 -21.5 78.5s-38.5 25.5 -72.5 25.5c-32 0 -56.833 -9.16699 -74.5 -27.5
s-26.5 -41.166 -26.5 -68.499v-276c0 -7.33301 -2.5 -13.5 -7.5 -18.5s-11.167 -7.5 -18.5 -7.5h-71c-7.33301 0 -13.5 2.5 -18.5 7.5s-7.5 11.167 -7.5 18.5v645z" />
    <glyph glyph-name="i" unicode="i" horiz-adv-x="266" 
d="M132 557c-20.667 0 -37.1689 6.5 -49.502 19.5s-18.5 28.5 -18.5 46.5c0 19.333 6.33301 35.333 19 48s29.334 19 50.001 19c21.333 0 38 -6.33301 50 -19s18.333 -28.667 19 -48c0 -18 -6.16699 -33.5 -18.5 -46.5s-29.166 -19.5 -50.499 -19.5h-1zM193.998 26
c0 -7.33301 -2.5 -13.5 -7.5 -18.5s-11.167 -7.5 -18.5 -7.5h-71c-7.33301 0 -13.5 2.5 -18.5 7.5s-7.5 11.167 -7.5 18.5v431c0 18.667 9.66699 29.667 29 33l37 6c5.33301 1.33301 11.333 2.33301 18 3s11 1 13 1c17.333 0 26 -8.66699 26 -26v-448z" />
    <glyph glyph-name="j" unicode="j" horiz-adv-x="280" 
d="M148 557c-21.333 0 -38.001 6.5 -50.001 19.5s-18 28.5 -18 46.5c0 19.333 6.33301 35.333 19 48s29.667 19 51 19c20.667 0 37 -6.33301 49 -19s18.333 -28.667 19 -48c0 -18 -6.16699 -33.5 -18.5 -46.5s-29.166 -19.5 -50.499 -19.5h-1zM209.999 42
c0 -85.333 -17 -149.17 -51 -191.503s-88.667 -63.5 -164 -63.5c-6 0 -11 1.5 -15 4.5s-6.66699 9.16699 -8 18.5l-5 40c-0.666992 4 -1.16699 7.66699 -1.5 11s-0.5 5.33301 -0.5 6c0 8 2.5 12.833 7.5 14.5s9.83301 2.83398 14.5 3.50098
c22.667 2.66699 40.667 7.33398 54 14.001s23.333 17 30 31s11 32.833 13 56.5s3 53.834 3 90.501v380c0 18.667 9.66699 29.667 29 33l37 6c5.33301 1.33301 11.333 2.33301 18 3s11 1 13 1c17.333 0 26 -8.66699 26 -26v-432z" />
    <glyph glyph-name="k" unicode="k" horiz-adv-x="519" 
d="M194 26c0 -7.33301 -2.49902 -13.5 -7.49902 -18.5s-11.167 -7.5 -18.5 -7.5h-71c-7.33301 0 -13.5 2.5 -18.5 7.5s-7.5 11.167 -7.5 18.5v645c0 18.667 9.66699 29.667 29 33l37 6c5.33301 1.33301 11.333 2.33301 18 3s11 1 13 1c17.333 0 26 -8.66699 26 -26v-399h2
l52 71l86 105c7.33301 8.66699 14.666 14.5 21.999 17.5s17 4.5 29 4.5h77c6.66699 0 12.334 -1 17.001 -3s7 -5 7 -9c0 -3.33301 -2 -7 -6 -11l-160 -176l188 -262c2 -3.33301 3 -6.33301 3 -9c0 -5.33301 -1.83301 -9.5 -5.5 -12.5s-10.5 -4.5 -20.5 -4.5h-81
c-11.333 -0 -19.833 1.33301 -25.5 4s-11.834 9 -18.501 19l-125 198l-41 -26v-169z" />
    <glyph glyph-name="l" unicode="l" horiz-adv-x="267" 
d="M194 26c0 -7.33301 -2.5 -13.5 -7.5 -18.5s-11.167 -7.5 -18.5 -7.5h-71c-7.33301 0 -13.5 2.5 -18.5 7.5s-7.5 11.167 -7.5 18.5v645c0 18.667 9.66699 29.667 29 33l37 6c5.33301 1.33301 11.333 2.33301 18 3s11 1 13 1c17.333 0 26 -8.66699 26 -26v-662z" />
    <glyph glyph-name="m" unicode="m" horiz-adv-x="854" 
d="M141 492c3.33301 1.33301 6.00195 1.99902 8.00195 1.99902h4c6 0 10.167 -2.33301 12.5 -7s4.16602 -11 5.49902 -19l7 -53h3c6 9.33301 13.167 19 21.5 29s18.666 19 30.999 27s26.5 14.5 42.5 19.5s34.333 7.5 55 7.5c32 0 59.833 -8.16699 83.5 -24.5
s40.834 -38.166 51.501 -65.499h2c19.333 29.333 41.5 51.666 66.5 66.999s55.833 23 92.5 23c20 0 39.667 -3.16699 59 -9.5s36.666 -17.166 51.999 -32.499s27.666 -36 36.999 -62s14 -58.333 14 -97v-271c0 -7.33301 -2.5 -13.5 -7.5 -18.5s-11.167 -7.5 -18.5 -7.5h-68
c-7.33301 0 -13.5 2.5 -18.5 7.5s-7.5 11.167 -7.5 18.5v253c0 79.333 -29 119 -87 119c-30 0 -52.833 -9.5 -68.5 -28.5s-23.5 -41.5 -23.5 -67.5v-276c0 -7.33301 -2.5 -13.5 -7.5 -18.5s-11.167 -7.5 -18.5 -7.5h-68c-7.33301 0 -13.5 2.5 -18.5 7.5
s-7.5 11.167 -7.5 18.5v266c0 34 -6.83301 60.167 -20.5 78.5s-34.834 27.5 -63.501 27.5c-16 0 -29.833 -2.83301 -41.5 -8.5s-21.5 -13.167 -29.5 -22.5s-14 -20 -18 -32s-6 -24.333 -6 -37v-272c0 -7.33301 -2.5 -13.5 -7.5 -18.5s-11.167 -7.5 -18.5 -7.5h-68
c-7.33301 0 -13.5 2.5 -18.5 7.5s-7.5 11.167 -7.5 18.5v273l-8 103c-1.33301 15.333 -2.16602 27.5 -2.49902 36.5s-0.5 14.167 -0.5 15.5c0 6 1.33301 10.333 4 13s7.33398 5 14.001 7z" />
    <glyph glyph-name="n" unicode="n" horiz-adv-x="577" 
d="M183 414c5.33301 9.33301 12.666 18.998 21.999 28.998s20.5 19 33.5 27s28 14.667 45 20s35.5 8 55.5 8c21.333 0 42.333 -3.16699 63 -9.5s39.167 -17.166 55.5 -32.499s29.5 -35.666 39.5 -60.999s15 -57.333 15 -96v-273c0 -7.33301 -2.5 -13.5 -7.5 -18.5
s-11.167 -7.5 -18.5 -7.5h-71c-7.33301 0 -13.5 2.5 -18.5 7.5s-7.5 11.167 -7.5 18.5v259c0 35.333 -7 63 -21 83s-38 30 -72 30c-32.667 0 -57.834 -10 -75.501 -30s-26.5 -43.667 -26.5 -71v-271c0 -7.33301 -2.5 -13.5 -7.5 -18.5s-11.167 -7.5 -18.5 -7.5h-71
c-7.33301 0 -13.5 2.5 -18.5 7.5s-7.5 11.167 -7.5 18.5v273l-8 103c-1.33301 15.333 -2.16602 27.5 -2.49902 36.5s-0.5 14.167 -0.5 15.5c0 6 1.33301 10.333 4 13s7.33398 5 14.001 7l65 18c3.33301 1.33301 6 2 8 2h4c10.667 0 16.667 -8.66699 18 -26l7 -54h3z" />
    <glyph glyph-name="o" unicode="o" horiz-adv-x="580" 
d="M413 243c0 24.667 -3.16699 47.167 -9.5 67.5s-15 37.833 -26 52.5s-24 26 -39 34s-31.167 12 -48.5 12s-33.5 -4 -48.5 -12s-28 -19.333 -39 -34s-19.667 -32.167 -26 -52.5s-9.5 -42.833 -9.5 -67.5s3.16699 -47.167 9.5 -67.5s15 -37.666 26 -51.999
s24 -25.5 39 -33.5s31.167 -12 48.5 -12s33.5 4 48.5 12s28 19.167 39 33.5s19.667 31.666 26 51.999s9.5 42.833 9.5 67.5zM540 243c0 -44.667 -7.33301 -83 -22 -115s-33.667 -58.333 -57 -79s-50 -35.834 -80 -45.501s-60.333 -14.5 -91 -14.5s-61 4.83301 -91 14.5
s-56.667 24.834 -80 45.501s-42.333 47 -57 79s-22 70.333 -22 115s7.33301 83.167 22 115.5s33.667 58.833 57 79.5s50 35.834 80 45.501s60.333 14.5 91 14.5s61 -4.83301 91 -14.5s56.667 -24.834 80 -45.501s42.333 -47.167 57 -79.5s22 -70.833 22 -115.5z" />
    <glyph glyph-name="p" unicode="p" horiz-adv-x="595" 
d="M194 194c0 -32 10.334 -58.332 31.001 -78.999s47.667 -31 81 -31c39.333 0 69.833 14.833 91.5 44.5s32.5 68.5 32.5 116.5c0 21.333 -2.66699 41.5 -8 60.5s-13 35.5 -23 49.5s-22.5 25.167 -37.5 33.5s-32.5 12.5 -52.5 12.5c-15.333 0 -29.833 -2.66699 -43.5 -8
s-25.834 -13 -36.501 -23s-19.167 -21.833 -25.5 -35.5s-9.5 -28.834 -9.5 -45.501v-95zM183.001 412.001c18 28 41.002 49.332 69.002 63.999s60.667 22 98 22c28 0 54.5 -5.83301 79.5 -17.5s46.667 -28.167 65 -49.5s33 -47.333 44 -78s16.5 -65 16.5 -103
c0 -44 -6.33301 -82.333 -19 -115s-29.5 -59.834 -50.5 -81.501s-44.667 -37.834 -71 -48.501s-53.5 -16 -81.5 -16c-30.667 0 -58.334 6.16699 -83.001 18.5s-43.334 28.166 -56.001 47.499h-3l7 -180c0.666992 -9.33301 1 -17.333 1 -24v-11
c0 -10 -2.83301 -17.167 -8.5 -21.5s-12.834 -7.16602 -21.501 -8.49902l-49 -7c-4 -1.33301 -8.33301 -2.16602 -13 -2.49902s-7.33398 -0.5 -8.00098 -0.5c-18.667 0 -28 8.66699 -28 26v440l-13 147c-1.33301 8.66699 -2.16602 17.334 -2.49902 26.001
s-0.5 13.667 -0.5 15c0 6.66699 1.5 11.334 4.5 14.001s7.5 4.66699 13.5 6l71 18c4 1.33301 6.66699 2 8 2h4c6.66699 0 10.834 -2.16699 12.501 -6.5s3.16699 -10.5 4.5 -18.5l8 -57h2z" />
    <glyph glyph-name="q" unicode="q" horiz-adv-x="591" 
d="M397 296c0 30 -9.49902 55 -28.499 75s-45.5 30 -79.5 30c-40 0 -70.667 -15 -92 -45s-32 -68 -32 -114c0 -22 2.66699 -42.5 8 -61.5s13.166 -35.5 23.499 -49.5s23 -25 38 -33s32.167 -12 51.5 -12c32 0 58.5 10.167 79.5 30.5s31.5 46.5 31.5 78.5v101zM520.001 -160
c0 -10 -2.83105 -17.1709 -8.49805 -21.5039s-12.834 -7.16602 -21.501 -8.49902l-48 -7c-4 -1.33301 -8.5 -2.16602 -13.5 -2.49902s-7.83301 -0.5 -8.5 -0.5c-8.66699 0 -15.667 2.33301 -21 7s-8 11 -8 19v6c0 3.33301 0.166992 7.5 0.5 12.5
s0.666016 10.5 0.999023 16.5s0.5 11.333 0.5 16l7 190h-5c-14.667 -23.333 -34.5 -42.166 -59.5 -56.499s-55.5 -21.5 -91.5 -21.5c-27.333 0 -53.333 5.66699 -78 17s-46.334 27.833 -65.001 49.5s-33.5 47.667 -44.5 78s-16.5 64.5 -16.5 102.5
c0 44.667 6.5 83.334 19.5 116.001s29.833 59.834 50.5 81.501s44 37.834 70 48.501s52 16 78 16c34 0 62.833 -7.16699 86.5 -21.5s42.167 -32.833 55.5 -55.5h3l8 48c1.33301 8.66699 3 15 5 19s5.66699 6 11 6c1.33301 -0.666992 3 -1 5 -1
c1.33301 0 2.83301 -0.166992 4.5 -0.5s3.16699 -0.5 4.5 -0.5l77 -18c6 -1.33301 10.5 -3.33301 13.5 -6s4.5 -7.33398 4.5 -14.001c0 -1.33301 -0.166992 -6.33301 -0.5 -15s-1.16602 -17.334 -2.49902 -26.001l-13 -147v-426z" />
    <glyph glyph-name="r" unicode="r" horiz-adv-x="380" 
d="M182 395c6 18 13.9971 33.4971 23.9971 46.4971s21 23.5 33 31.5s24.5 14 37.5 18s25.5 6 37.5 6c4.66699 0 10.834 -0.166992 18.501 -0.5s13.167 -1.16602 16.5 -2.49902s6 -2.5 8 -3.5s3 -4.5 3 -10.5c0 -3.33301 -0.166992 -6.66602 -0.5 -9.99902
s-0.833008 -8 -1.5 -14l-6 -50c-1.33301 -9.33301 -3 -15.833 -5 -19.5s-5.66699 -5.5 -11 -5.5c-2.66699 0 -6 0.333008 -10 1s-10.333 1 -19 1c-36 0 -63.833 -11.167 -83.5 -33.5s-29.5 -51.166 -29.5 -86.499v-237c0 -7.33301 -2.5 -13.5 -7.5 -18.5
s-11.167 -7.5 -18.5 -7.5h-71c-7.33301 0 -13.5 2.5 -18.5 7.5s-7.5 11.167 -7.5 18.5v273l-8 103c-1.33301 15.333 -2.16602 27.5 -2.49902 36.5s-0.5 14.167 -0.5 15.5c0 6 1.33301 10.333 4 13s7.33398 5 14.001 7l63 18c3.33301 1.33301 6 2 8 2h4
c10.667 0 16.667 -8.66699 18 -26l7 -73h4z" />
    <glyph glyph-name="s" unicode="s" horiz-adv-x="427" 
d="M60 92c2.66699 9.33301 8 13.999 16 13.999c4 0 8.66699 -1.33301 14 -4c14 -6.66699 30 -12.334 48 -17.001s35.333 -7 52 -7c27.333 0 47.166 5.16699 59.499 15.5s18.5 23.5 18.5 39.5c0 16.667 -5.83301 30 -17.5 40s-32.5 20.333 -62.5 31
c-48 16.667 -82.333 37.167 -103 61.5s-31 51.166 -31 80.499c0 21.333 4.33301 41.333 13 60s21 34.834 37 48.501s35.333 24.334 58 32.001s48 11.5 76 11.5c22 0 42.5 -2 61.5 -6s36.167 -9 51.5 -15c2.66699 -1.33301 5.33398 -3.16602 8.00098 -5.49902
s4 -6.16602 4 -11.499s-1 -11.333 -3 -18l-11 -40c-2.66699 -8 -7.66699 -12 -15 -12c-4 0 -8.66699 1.33301 -14 4c-10.667 4.66699 -22.834 8.66699 -36.501 12s-28.167 5 -43.5 5c-22 0 -38.833 -4.83301 -50.5 -14.5s-17.5 -22.167 -17.5 -37.5
s6.33301 -27.833 19 -37.5s34.667 -19.834 66 -30.501c44.667 -16 77.5 -35.667 98.5 -59s31.5 -53 31.5 -89c0 -44.667 -16.833 -81.334 -50.5 -110.001s-82.834 -43 -147.501 -43c-25.333 0 -49.166 2.33301 -71.499 7s-42.166 10.667 -59.499 18
c-2.66699 1.33301 -5.5 3.33301 -8.5 6s-4.5 7.33398 -4.5 14.001c0 4 1 9 3 15z" />
    <glyph glyph-name="t" unicode="t" horiz-adv-x="361" 
d="M236 -10c-54.667 0 -92.502 14.334 -113.502 43.001s-31.5 70 -31.5 124v240h-47c-7.33301 0 -13.5 2.5 -18.5 7.5s-7.5 11.167 -7.5 18.5v36c0 7.33301 2.5 13.5 7.5 18.5s11.167 7.5 18.5 7.5h47v82c0 18.667 9.66699 29.667 29 33l37 7
c5.33301 1.33301 11 2.33301 17 3s10 1 12 1c17.333 0 26 -8.66699 26 -26v-98h102c6 0 11 -2 15 -6s6 -9 6 -15c0 -1.33301 -0.166992 -3.33301 -0.5 -6s-0.833008 -5.66699 -1.5 -9l-5 -35c-1.33301 -6 -4.16602 -11 -8.49902 -15s-9.5 -6 -15.5 -6h-92v-224
c0 -30 3.33301 -50.833 10 -62.5s21.667 -17.5 45 -17.5h48c3.33301 0 6.33301 -0.833008 9 -2.5s4.66699 -5.16699 6 -10.5l4 -63c0 -6.66699 -4.33301 -11.334 -13 -14.001c-12.667 -3.33301 -25.167 -6 -37.5 -8s-28.166 -3 -47.499 -3z" />
    <glyph glyph-name="u" unicode="u" horiz-adv-x="575" 
d="M394 73l-2.99902 0.00195312c-5.33301 -8.66699 -12.333 -17.834 -21 -27.501s-19.5 -18.667 -32.5 -27s-28 -15.333 -45 -21s-36.5 -8.5 -58.5 -8.5s-43.167 3 -63.5 9s-38.333 16.667 -54 32s-28.167 36 -37.5 62s-14 59 -14 99v270c0 7.33301 2.5 13.5 7.5 18.5
s11.167 7.5 18.5 7.5h71c7.33301 0 13.5 -2.5 18.5 -7.5s7.5 -11.167 7.5 -18.5v-249c0 -40.667 7 -71.334 21 -92.001s37.333 -31 70 -31s57.667 9.33301 75 28s26 40.667 26 66v278c0 7.33301 2.5 13.5 7.5 18.5s11.167 7.5 18.5 7.5h71c7.33301 0 13.5 -2.5 18.5 -7.5
s7.5 -11.167 7.5 -18.5v-283l8 -97c2 -30 3 -46 3 -48c0 -6 -1.33301 -10.333 -4 -13s-7.33398 -5 -14.001 -7l-65 -18c-3.33301 -1.33301 -6 -2 -8 -2h-4c-10.667 0 -16.667 8.66699 -18 26z" />
    <glyph glyph-name="v" unicode="v" horiz-adv-x="518" 
d="M369 466c1.33301 5.33301 4.49902 10.166 9.49902 14.499s12.167 6.5 21.5 6.5h75c14.667 0 22 -4.66699 22 -14c0 -2.66699 -0.666992 -6 -2 -10l-166 -434c-3.33301 -8 -7 -14.833 -11 -20.5s-10.333 -8.5 -19 -8.5h-79c-15.333 0 -26.666 9.66699 -33.999 29l-161 434
c-1.33301 4 -2 7.33301 -2 10c0 9.33301 7.33301 14 22 14h79c9.33301 0 16.5 -2.16699 21.5 -6.5s8.16699 -9.16602 9.5 -14.499l106 -348h3z" />
    <glyph glyph-name="w" unicode="w" horiz-adv-x="759" 
d="M597 29c-2.66699 -8 -6.16699 -14.8311 -10.5 -20.498s-10.833 -8.5 -19.5 -8.5h-68c-7.33301 0 -14 2.16699 -20 6.5s-10.667 12.166 -14 23.499l-56 188l-30 136h-2l-33 -138l-57 -187c-2.66699 -8 -6.16699 -14.833 -10.5 -20.5s-10.833 -8.5 -19.5 -8.5h-69
c-7.33301 0 -14 2.16699 -20 6.5s-10.667 12.166 -14 23.499l-128 433c-1.33301 4 -2 7.66699 -2 11c0 8.66699 7.33301 13 22 13h73c9.33301 0 16.5 -2.16699 21.5 -6.5s8.16699 -9.16602 9.5 -14.499l48 -206c4.66699 -19.333 8.66699 -38.166 12 -56.499l9 -48.5
c2.66699 -16.667 5.33398 -32.334 8.00098 -47.001h2c4 17.333 8.33301 34.666 13 51.999l12.5 49.5c4.33301 17.667 8.83301 34.167 13.5 49.5l56 199c3.33301 11.333 8 19 14 23s12.667 6 20 6h52c8.66699 0 15.167 -2.66699 19.5 -8s7.83301 -12 10.5 -20l54 -190
c5.33301 -17.333 10.166 -35.666 14.499 -54.999l11.5 -52l12 -54h2c2 15.333 4.66699 31.666 8 48.999c2.66699 15.333 6 32.5 10 51.5s8.66699 38.833 14 59.5l49 198c1.33301 5.33301 4.5 10.166 9.5 14.499s12.167 6.5 21.5 6.5h68c6.66699 0 12 -0.666992 16 -2
s6 -4.66602 6 -9.99902c0 -3.33301 -0.666992 -7 -2 -11z" />
    <glyph glyph-name="x" unicode="x" horiz-adv-x="504" 
d="M475 24c2 -3.33301 3 -6.66699 3 -10c0 -5.33301 -2.16699 -9 -6.5 -11s-9.83301 -3 -16.5 -3h-85c-9.33301 -0 -16.166 2.33301 -20.499 7s-7.83301 9.33398 -10.5 14.001l-91 156h-2l-89 -156c-2.66699 -4.66699 -6.16699 -9.33398 -10.5 -14.001
s-11.166 -7 -20.499 -7h-80c-6.66699 0 -12.167 1 -16.5 3s-6.5 5.66699 -6.5 11c0 3.33301 1 6.66602 3 9.99902l153 225l-147 214c-2 2.66699 -3 6 -3 10c0 5.33301 2.16699 9 6.5 11s9.83301 3 16.5 3h82c9.33301 0 16.166 -2.16699 20.499 -6.5
s7.83301 -8.83301 10.5 -13.5l90 -147h2l85 146c2.66699 4.66699 6.16699 9.33398 10.5 14.001s11.166 7 20.499 7h78c6.66699 0 12.167 -1 16.5 -3s6.5 -5.66699 6.5 -11c0 -4 -1 -7.33301 -3 -10l-146 -209z" />
    <glyph glyph-name="y" unicode="y" horiz-adv-x="510" 
d="M363 113c-16.667 -46 -34.498 -88.998 -53.498 -128.998s-39.5 -74.833 -61.5 -104.5s-45.833 -53 -71.5 -70s-53.834 -25.5 -84.501 -25.5c-5.33301 0 -9.33301 1.16699 -12 3.5s-5 7.16602 -7 14.499l-15 60c-1.33301 6.66699 -2 10.667 -2 12
c0 3.33301 0.833008 6.33301 2.5 9s5.16699 4.33398 10.5 5.00098c26.667 3.33301 52.167 15.666 76.5 36.999s44.166 47.666 59.499 78.999l-180 453c-2 6 -3 9.66699 -3 11c0 6.66699 5.33301 11.334 16 14.001l70 16c4 1.33301 7.66699 2 11 2h7
c7.33301 0 12.833 -1.83301 16.5 -5.5s6.16699 -7.16699 7.5 -10.5l114 -352h3l96 334c1.33301 5.33301 4.5 10.166 9.5 14.499s12.167 6.5 21.5 6.5h77c14.667 0 22 -4.66699 22 -14c0 -2.66699 -0.666992 -6 -2 -10z" />
    <glyph glyph-name="z" unicode="z" horiz-adv-x="460" 
d="M64 390c-7.33301 0 -13.501 2.5 -18.501 7.5s-7.5 11.167 -7.5 18.5v45c0 7.33301 2.5 13.5 7.5 18.5s11.167 7.5 18.5 7.5h339c7.33301 0 13.5 -2.5 18.5 -7.5s7.5 -11.167 7.5 -18.5v-32c0 -7.33301 -0.833008 -13 -2.5 -17s-4.16699 -8 -7.5 -12l-240 -300v-2h239
c6 0 11 -2 15 -6s6 -9 6 -15c0 -1.33301 -0.166992 -3.33301 -0.5 -6s-0.833008 -5.66699 -1.5 -9l-6 -41c-1.33301 -6 -4.16602 -11 -8.49902 -15s-9.5 -6 -15.5 -6h-356c-7.33301 0 -13.5 2.5 -18.5 7.5s-7.5 11.167 -7.5 18.5v28c0 7.33301 0.833008 13 2.5 17
s4.16699 8 7.5 12l244 304v2z" />
    <glyph glyph-name="braceleft" unicode="{" horiz-adv-x="301" 
d="M48 254c-10.667 0 -16.665 5.33594 -17.998 16.0029l-4 24c-0.666992 3.33301 -1 5.66602 -1 6.99902v4c0 4 1.16699 7.5 3.5 10.5s5.83301 4.5 10.5 4.5h14c12 0 21.5 2.5 28.5 7.5s12.333 11 16 18s5.83398 14.667 6.50098 23s1 15.833 1 22.5
c0 26.667 -2.16699 53.334 -6.5 80.001s-6.5 54 -6.5 82c0 46 13.167 79.667 39.5 101s62.833 32 109.5 32c14 0 23 -1.83301 27 -5.5s6 -8.16699 6 -13.5v-4c0 -1.33301 -0.666992 -4 -2 -8l-4 -18c-2.66699 -14.667 -11 -22 -25 -22s-25 -2 -33 -6s-14 -9.5 -18 -16.5
s-6.66699 -15.333 -8 -25s-2 -19.834 -2 -30.501c0 -20.667 2 -42 6 -64s6 -45.667 6 -71c0 -36 -6.66699 -62.333 -20 -79s-33 -28 -59 -34v-2c25.333 -6 44.833 -17.167 58.5 -33.5s20.5 -41.5 20.5 -75.5c0 -28 -2 -53 -6 -75s-6 -43.667 -6 -65c0 -12 0.5 -23 1.5 -33
s3.66699 -18.333 8 -25s10.833 -11.834 19.5 -15.501s20.667 -5.5 36 -5.5c7.33301 0 12.333 -1.83301 15 -5.5s4.66699 -9.16699 6 -16.5l4 -18c1.33301 -4 2 -6.66699 2 -8v-4c0 -12.667 -12.667 -19 -38 -19c-20.667 0 -39.834 2.33301 -57.501 7
s-32.834 12.5 -45.501 23.5s-22.667 25.167 -30 42.5s-11 38.666 -11 63.999c0 27.333 2.16699 54.333 6.5 81s6.5 52.667 6.5 78c0 6 -0.5 13.167 -1.5 21.5s-3.33301 16 -7 23s-8.83398 13 -15.501 18s-16 7.5 -28 7.5h-5z" />
    <glyph glyph-name="bar" unicode="|" horiz-adv-x="263" 
d="M176 -227c0 -7.33301 -2.33301 -13.5 -7 -18.5s-10.667 -7.5 -18 -7.5h-37c-7.33301 0 -13.5 2.5 -18.5 7.5s-7.5 11.167 -7.5 18.5h-1v951c0 7.33301 2.5 13.5 7.5 18.5s11.167 7.5 18.5 7.5h37c7.33301 0 13.5 -2.5 18.5 -7.5s7.5 -11.167 7.5 -18.5v-951v0z" />
    <glyph glyph-name="braceright" unicode="}" horiz-adv-x="301" 
d="M245 254c-12 0 -21.3311 -2.50293 -27.998 -7.50293s-11.834 -11 -15.501 -18s-6 -14.667 -7 -23s-1.5 -15.5 -1.5 -21.5c0 -25.333 2.16699 -51.333 6.5 -78s6.5 -53.667 6.5 -81c0 -25.333 -3.66699 -46.666 -11 -63.999s-17.333 -31.5 -30 -42.5
s-27.834 -18.833 -45.501 -23.5s-36.834 -7 -57.501 -7c-25.333 0 -38 6.33301 -38 19v4c0 1.33301 0.666992 4 2 8l4 18c1.33301 7.33301 3.33301 12.833 6 16.5s7.66699 5.5 15 5.5c15.333 0 27.333 1.83301 36 5.5s15.167 8.83398 19.5 15.501s7 15 8 25s1.5 21 1.5 33
c0 21.333 -2 43 -6 65s-6 47 -6 75c0 34 6.83301 59.167 20.5 75.5s33.167 27.5 58.5 33.5v2c-26 6 -45.667 17.333 -59 34s-20 43 -20 79c0 25.333 2 49 6 71s6 43.333 6 64c0 10.667 -0.666992 20.834 -2 30.501s-4 18 -8 25s-10 12.5 -18 16.5s-19 6 -33 6
s-22.333 7.33301 -25 22l-4 18c-1.33301 4 -2 6.66699 -2 8v4c0 5.33301 2 9.83301 6 13.5s13 5.5 27 5.5c46.667 0 83.167 -10.667 109.5 -32s39.5 -55 39.5 -101c0 -28 -2.16699 -55.333 -6.5 -82s-6.5 -53.334 -6.5 -80.001c0 -6.66699 0.333008 -14.167 1 -22.5
s2.83398 -16 6.50098 -23s9 -13 16 -18s16.5 -7.5 28.5 -7.5h14c4.66699 0 8.16699 -1.5 10.5 -4.5s3.5 -6.5 3.5 -10.5v-4c0 -1.33301 -0.333008 -3.66602 -1 -6.99902l-4 -24c-1.33301 -10.667 -7.33301 -16 -18 -16h-5z" />
    <glyph glyph-name="asciitilde" unicode="~" horiz-adv-x="596" 
d="M317 325l59 -30.5c16 -8.33301 31.667 -12.5 47 -12.5c12.667 0 24.334 4.16699 35.001 12.5s16 23.166 16 44.499c0 7.33301 2.33301 13.5 7 18.5s10.667 7.5 18 7.5h29c7.33301 0 13.5 -2.5 18.5 -7.5s7.5 -11.167 7.5 -18.5
c-3.33301 -50 -16.666 -86.5 -39.999 -109.5s-53 -34.5 -89 -34.5c-11.333 0 -22.166 1 -32.499 3s-21 4.83301 -32 8.5s-22.667 8.33398 -35 14.001s-26.166 12.5 -41.499 20.5l-59 30.5c-16 8.33301 -31.667 12.5 -47 12.5c-12.667 0 -24.334 -4.16699 -35.001 -12.5
s-16 -23.166 -16 -44.499c0 -7.33301 -2.33301 -13.5 -7 -18.5s-10.667 -7.5 -18 -7.5h-29c-7.33301 0 -13.5 2.5 -18.5 7.5s-7.5 11.167 -7.5 18.5c3.33301 50 16.666 86.5 39.999 109.5s53 34.5 89 34.5c11.333 0 22.166 -1 32.499 -3s21 -4.83301 32 -8.5
s22.667 -8.33398 35 -14.001s26.166 -12.5 41.499 -20.5z" />
    <glyph glyph-name="currency" unicode="&#xa4;" horiz-adv-x="546" 
d="M451 421c8 0 11.998 -3.33887 11.998 -10.0059v-4c0 -1.33301 -0.333008 -3.66602 -1 -6.99902l-5 -27c-1.33301 -8 -5.66602 -12 -12.999 -12h-248v-51h235c8 0 12 -3.33301 12 -10v-4c0 -1.33301 -0.333008 -3.66602 -1 -6.99902l-5 -27
c-1.33301 -8 -5.66602 -12 -12.999 -12h-221c10 -50 29.5 -88.833 58.5 -116.5s69.5 -41.5 121.5 -41.5c30 0 60 4.66699 90 14c3.33301 1.33301 6.33301 2.33301 9 3s5.33398 1 8.00098 1c7.33301 0 11.666 -4 12.999 -12l11 -55c0.666992 -2 1 -4.33301 1 -7v-5
c0 -5.33301 -1.66699 -9.66602 -5 -12.999s-7.33301 -5.66602 -12 -6.99902c-15.333 -5.33301 -33.833 -10.333 -55.5 -15s-47.5 -7 -77.5 -7c-40 0 -76.5 6 -109.5 18s-62 29.333 -87 52s-45.5 50.167 -61.5 82.5s-27 68.5 -33 108.5h-63c-8 0 -12 3.33301 -12 10v3
c0 2 0.333008 4.66699 1 8l5 27c0.666992 8 5 12 13 12h50v18v16c0 6 0.333008 11.667 1 17h-48c-8 0 -12 3.33301 -12 10v3c0 2 0.333008 4.66699 1 8l5 27c0.666992 8 5 12 13 12h48c8 41.333 21.167 78.333 39.5 111s40.833 60.167 67.5 82.5s56.5 39.5 89.5 51.5
s68.5 18 106.5 18c27.333 0 50.333 -1.83301 69 -5.5s36.334 -8.5 53.001 -14.5c5.33301 -2 9.66602 -4.5 12.999 -7.5s5 -7.16699 5 -12.5c0 -1.33301 -0.333008 -3.5 -1 -6.5s-1.33398 -5.83301 -2.00098 -8.5l-15 -54c-1.33301 -4 -2.83301 -6.83301 -4.5 -8.5
s-4.5 -2.5 -8.5 -2.5c-2.66699 0 -5.16699 0.333008 -7.5 1s-5.16602 1.66699 -8.49902 3c-13.333 4.66699 -26.333 8.33398 -39 11.001s-29 4 -49 4c-48 0 -87.5 -13.667 -118.5 -41s-51.833 -67.666 -62.5 -120.999h248z" />
    <glyph glyph-name="afii10050" unicode="&#xa5;" horiz-adv-x="536" 
d="M458 122c-0.666992 -10.667 -7.66504 -17.668 -20.998 -21.001c-23.333 -7.33301 -50.333 -12.666 -81 -15.999v-72c0 -7.33301 -2.5 -13.5 -7.5 -18.5s-11.167 -7.5 -18.5 -7.5h-30c-7.33301 0 -13.5 2.5 -18.5 7.5s-7.5 11.167 -7.5 18.5v74
c-65.333 9.33301 -115.5 34.833 -150.5 76.5s-52.5 96.167 -52.5 163.5c0 30.667 4.5 59.834 13.5 87.501s22.333 52.5 40 74.5s39 40.5 64 55.5s53.5 25.167 85.5 30.5v72c0 7.33301 2.5 13.5 7.5 18.5s11.167 7.5 18.5 7.5h30c7.33301 0 13.5 -2.5 18.5 -7.5
s7.5 -11.167 7.5 -18.5v-68c13.333 -0.666992 26.666 -2.16699 39.999 -4.5s25.666 -5.16602 36.999 -8.49902c13.333 -4.66699 20 -12 20 -22c0 -1.33301 -0.666992 -5.33301 -2 -12l-9 -38c-1.33301 -6 -3.83301 -11 -7.5 -15s-8.16699 -6 -13.5 -6
c-1.33301 0 -3.33301 0.166992 -6 0.5s-4.66699 0.833008 -6 1.5c-9.33301 3.33301 -19.666 6 -30.999 8s-24.333 3 -39 3c-22 0 -41.833 -3.83301 -59.5 -11.5s-32.667 -18.5 -45 -32.5s-21.833 -30.333 -28.5 -49s-10 -39 -10 -61c0 -24.667 3.66699 -46.5 11 -65.5
s17.5 -35 30.5 -48s28.167 -22.833 45.5 -29.5s35.666 -10 54.999 -10c14 0 27 1.16699 39 3.5s22.667 4.16602 32 5.49902c5.33301 1.33301 9.5 2.16602 12.5 2.49902s6.16699 0.5 9.5 0.5c5.33301 0 9.5 -1.5 12.5 -4.5s5.16699 -8.83301 6.5 -17.5l6 -35
c1.33301 -6.66699 2 -10.667 2 -12z" />
    <glyph glyph-name="afii10050" unicode="&#x490;" horiz-adv-x="536" 
d="M458 122c-0.666992 -10.667 -7.66504 -17.668 -20.998 -21.001c-23.333 -7.33301 -50.333 -12.666 -81 -15.999v-72c0 -7.33301 -2.5 -13.5 -7.5 -18.5s-11.167 -7.5 -18.5 -7.5h-30c-7.33301 0 -13.5 2.5 -18.5 7.5s-7.5 11.167 -7.5 18.5v74
c-65.333 9.33301 -115.5 34.833 -150.5 76.5s-52.5 96.167 -52.5 163.5c0 30.667 4.5 59.834 13.5 87.501s22.333 52.5 40 74.5s39 40.5 64 55.5s53.5 25.167 85.5 30.5v72c0 7.33301 2.5 13.5 7.5 18.5s11.167 7.5 18.5 7.5h30c7.33301 0 13.5 -2.5 18.5 -7.5
s7.5 -11.167 7.5 -18.5v-68c13.333 -0.666992 26.666 -2.16699 39.999 -4.5s25.666 -5.16602 36.999 -8.49902c13.333 -4.66699 20 -12 20 -22c0 -1.33301 -0.666992 -5.33301 -2 -12l-9 -38c-1.33301 -6 -3.83301 -11 -7.5 -15s-8.16699 -6 -13.5 -6
c-1.33301 0 -3.33301 0.166992 -6 0.5s-4.66699 0.833008 -6 1.5c-9.33301 3.33301 -19.666 6 -30.999 8s-24.333 3 -39 3c-22 0 -41.833 -3.83301 -59.5 -11.5s-32.667 -18.5 -45 -32.5s-21.833 -30.333 -28.5 -49s-10 -39 -10 -61c0 -24.667 3.66699 -46.5 11 -65.5
s17.5 -35 30.5 -48s28.167 -22.833 45.5 -29.5s35.666 -10 54.999 -10c14 0 27 1.16699 39 3.5s22.667 4.16602 32 5.49902c5.33301 1.33301 9.5 2.16602 12.5 2.49902s6.16699 0.5 9.5 0.5c5.33301 0 9.5 -1.5 12.5 -4.5s5.16699 -8.83301 6.5 -17.5l6 -35
c1.33301 -6.66699 2 -10.667 2 -12z" />
    <glyph glyph-name="brokenbar" unicode="&#xa6;" horiz-adv-x="263" 
d="M176 -227c0 -7.33301 -2.33301 -13.5 -7 -18.5s-10.667 -7.5 -18 -7.5h-38c-7.33301 0 -13.5 2.5 -18.5 7.5s-7.5 11.167 -7.5 18.5v297c0 7.33301 2.5 13.5 7.5 18.5s11.167 7.5 18.5 7.5h37c7.33301 0 13.5 -2.5 18.5 -7.5s7.5 -11.167 7.5 -18.5v-297v0zM176 427
c0 -7.33301 -2.33301 -13.5 -7 -18.5s-10.667 -7.5 -18 -7.5h-38c-7.33301 0 -13.5 2.5 -18.5 7.5s-7.5 11.167 -7.5 18.5v297c0 7.33301 2.5 13.5 7.5 18.5s11.167 7.5 18.5 7.5h37c7.33301 0 13.5 -2.5 18.5 -7.5s7.5 -11.167 7.5 -18.5v-297v0z" />
    <glyph glyph-name="section" unicode="&#xa7;" horiz-adv-x="542" 
d="M454 635c0 -2 -0.165039 -4.49707 -0.498047 -7.49707s-1.16602 -5.5 -2.49902 -7.5l-10 -24c-2 -5.33301 -4.16699 -9.83301 -6.5 -13.5s-6.16602 -5.5 -11.499 -5.5c-2 0 -4.66699 0.5 -8 1.5s-6 2.16699 -8 3.5c-13.333 6 -29.166 11.167 -47.499 15.5
s-38.5 6.5 -60.5 6.5c-26.667 0 -47.834 -4.83301 -63.501 -14.5s-24.167 -23.167 -25.5 -40.5c0 -20 9.33301 -36 28 -48s46.334 -24.667 83.001 -38c24 -8.66699 46.333 -18 67 -28s38.5 -21.5 53.5 -34.5s26.833 -28 35.5 -45s13 -36.833 13 -59.5
c0 -29.333 -6.66699 -54.333 -20 -75s-31.666 -38 -54.999 -52c8 -7.33301 16.333 -18.666 25 -33.999s13 -33.333 13 -54c0 -28 -6.33301 -51.5 -19 -70.5s-28.834 -34.5 -48.501 -46.5s-41.334 -20.5 -65.001 -25.5s-46.834 -7.5 -69.501 -7.5
c-27.333 0 -55.333 3.16699 -84 9.5s-54.667 15.5 -78 27.5c-5.33301 2.66699 -9.5 5.33398 -12.5 8.00098s-4.5 6.66699 -4.5 12c0 2 0.166992 4.5 0.5 7.5s1.16602 5.5 2.49902 7.5l11 26c2 5.33301 4.16699 9.83301 6.5 13.5s6.16602 5.5 11.499 5.5
c2 0 4.66699 -0.5 8 -1.5s6 -2.16699 8 -3.5c16 -8 35.167 -15.667 57.5 -23s45.833 -11 70.5 -11c26 0 47.833 5 65.5 15s26.5 25 26.5 45c0 19.333 -7.83301 35.833 -23.5 49.5s-43.834 28.5 -84.501 44.5c-25.333 9.33301 -48.833 19.333 -70.5 30s-40.667 22.5 -57 35.5
s-29.166 28 -38.499 45s-14 36.5 -14 58.5c0 21.333 6.66699 43.166 20 65.499s35 41.166 65 56.499c-9.33301 8 -17.333 19.667 -24 35s-10 31.666 -10 48.999c0 23.333 5 44 15 62s23.5 33.167 40.5 45.5s37.167 21.666 60.5 27.999s48.666 9.5 75.999 9.5
c54 0 101.333 -9.33301 142 -28c5.33301 -2.66699 9.5 -5.33398 12.5 -8.00098s4.5 -6.66699 4.5 -12zM150.002 352.003c0 -16.667 6.50098 -32.167 19.501 -46.5s36.833 -28.833 71.5 -43.5l66.5 -27c20.333 -8 36.166 -15.667 47.499 -23
c11.333 7.33301 20.166 16.833 26.499 28.5s9.5 24.167 9.5 37.5c0 17.333 -6.66699 32 -20 44s-30 23 -50 33s-41.5 19.5 -64.5 28.5s-44.167 19.167 -63.5 30.5c-13.333 -7.33301 -23.666 -16 -30.999 -26s-11.333 -21.667 -12 -35v-1z" />
    <glyph glyph-name="afii10023" unicode="&#xa8;" horiz-adv-x="525" 
d="M171 716c-17.333 0 -31.499 6 -42.499 18s-16.5 26 -16.5 42c0 17.333 5.66699 31.833 17 43.5s25.666 17.5 42.999 17.5c16.667 0 30.5 -5.83301 41.5 -17.5s16.5 -26.167 16.5 -43.5c0 -16 -5.33301 -30 -16 -42s-24.667 -18 -42 -18h-1zM368.001 716
c-17.333 0 -31.332 6 -41.999 18s-16 26 -16 42c0 17.333 5.66699 31.833 17 43.5s25.666 17.5 42.999 17.5c16.667 0 30.5 -5.83301 41.5 -17.5s16.5 -26.167 16.5 -43.5c0 -16 -5.5 -30 -16.5 -42s-25.167 -18 -42.5 -18h-1zM483.002 26
c0 -7.33301 -2.50195 -13.502 -7.50195 -18.502s-11.167 -7.5 -18.5 -7.5h-355c-7.33301 0 -13.5 2.5 -18.5 7.5s-7.5 11.167 -7.5 18.5v622c0 7.33301 2.5 13.5 7.5 18.5s11.167 7.5 18.5 7.5h354c6.66699 0 11.834 -2.16699 15.501 -6.5s5.5 -9.83301 5.5 -16.5
c0 -1.33301 -0.166992 -3.5 -0.5 -6.5s-0.833008 -6.16699 -1.5 -9.5l-6 -38c-1.33301 -7.33301 -4.33301 -13.166 -9 -17.499s-10.667 -6.5 -18 -6.5h-243v-173h236c6.66699 0 11.834 -2.16699 15.501 -6.5s5.5 -9.83301 5.5 -16.5c0 -1.33301 -0.166992 -3.5 -0.5 -6.5
s-0.833008 -6.16699 -1.5 -9.5l-6 -38c-1.33301 -7.33301 -4.33301 -13.166 -9 -17.499s-10.667 -6.5 -18 -6.5h-222v-198h258c7.33301 0 13.5 -2.5 18.5 -7.5s7.5 -11.167 7.5 -18.5v-49z" />
    <glyph glyph-name="afii10023" unicode="&#x401;" horiz-adv-x="525" 
d="M171 716c-17.333 0 -31.499 6 -42.499 18s-16.5 26 -16.5 42c0 17.333 5.66699 31.833 17 43.5s25.666 17.5 42.999 17.5c16.667 0 30.5 -5.83301 41.5 -17.5s16.5 -26.167 16.5 -43.5c0 -16 -5.33301 -30 -16 -42s-24.667 -18 -42 -18h-1zM368.001 716
c-17.333 0 -31.332 6 -41.999 18s-16 26 -16 42c0 17.333 5.66699 31.833 17 43.5s25.666 17.5 42.999 17.5c16.667 0 30.5 -5.83301 41.5 -17.5s16.5 -26.167 16.5 -43.5c0 -16 -5.5 -30 -16.5 -42s-25.167 -18 -42.5 -18h-1zM483.002 26
c0 -7.33301 -2.50195 -13.502 -7.50195 -18.502s-11.167 -7.5 -18.5 -7.5h-355c-7.33301 0 -13.5 2.5 -18.5 7.5s-7.5 11.167 -7.5 18.5v622c0 7.33301 2.5 13.5 7.5 18.5s11.167 7.5 18.5 7.5h354c6.66699 0 11.834 -2.16699 15.501 -6.5s5.5 -9.83301 5.5 -16.5
c0 -1.33301 -0.166992 -3.5 -0.5 -6.5s-0.833008 -6.16699 -1.5 -9.5l-6 -38c-1.33301 -7.33301 -4.33301 -13.166 -9 -17.499s-10.667 -6.5 -18 -6.5h-243v-173h236c6.66699 0 11.834 -2.16699 15.501 -6.5s5.5 -9.83301 5.5 -16.5c0 -1.33301 -0.166992 -3.5 -0.5 -6.5
s-0.833008 -6.16699 -1.5 -9.5l-6 -38c-1.33301 -7.33301 -4.33301 -13.166 -9 -17.499s-10.667 -6.5 -18 -6.5h-222v-198h258c7.33301 0 13.5 -2.5 18.5 -7.5s7.5 -11.167 7.5 -18.5v-49z" />
    <glyph glyph-name="copyright" unicode="&#xa9;" horiz-adv-x="677" 
d="M443 504c4.66699 -2 8.49805 -4.16699 11.498 -6.5s4.5 -5.83301 4.5 -10.5c0 -3.33301 -0.666992 -7 -2 -11l-4 -14c-2.66699 -8.66699 -6 -13 -10 -13c-1.33301 0 -3.66602 0.666992 -6.99902 2s-5.66602 2.33301 -6.99902 3c-9.33301 3.33301 -20.666 6.5 -33.999 9.5
s-27.666 4.5 -42.999 4.5c-42 0 -74.333 -11.833 -97 -35.5s-34 -55.5 -34 -95.5c0 -38 11.5 -69.5 34.5 -94.5s55.5 -37.5 97.5 -37.5c15.333 0 29.833 1.33301 43.5 4s26.167 6.33398 37.5 11.001c1.33301 0.666992 3.5 1.66699 6.5 3s5.16699 2 6.5 2
c4 0 7.33301 -4.33301 10 -13l4 -12c1.33301 -4 2 -7.33301 2 -10c0 -4.66699 -1.5 -8.16699 -4.5 -10.5s-6.83301 -4.5 -11.5 -6.5c-16 -7.33301 -33 -12.5 -51 -15.5s-35.667 -4.5 -53 -4.5c-29.333 0 -55.333 4.66699 -78 14s-41.834 22.166 -57.501 38.499
s-27.667 35.5 -36 57.5s-12.5 45.667 -12.5 71c0 28.667 5.33301 54.5 16 77.5s24.834 42.5 42.501 58.5s38.167 28.333 61.5 37s47.666 13 72.999 13c17.333 0 34.166 -1.5 50.499 -4.5s29.833 -6.83301 40.5 -11.5zM643.998 338c0 -43.333 -8 -83.6689 -24 -121.002
s-37.833 -69.833 -65.5 -97.5s-60 -49.5 -97 -65.5s-76.833 -24 -119.5 -24c-42 0 -81.667 8.16699 -119 24.5s-69.833 38.5 -97.5 66.5s-49.5 60.833 -65.5 98.5s-24 77.834 -24 120.501s8 82.834 24 120.501s37.833 70.334 65.5 98.001s60 49.5 97 65.5
s76.833 24 119.5 24c42 0 81.667 -8.16699 119 -24.5s69.833 -38.5 97.5 -66.5s49.5 -60.833 65.5 -98.5s24 -77.834 24 -120.501zM584.998 337.997c0 36 -6.5 69.833 -19.5 101.5s-30.667 59.167 -53 82.5s-48.5 41.833 -78.5 55.5s-62 20.5 -96 20.5s-66 -6.66699 -96 -20
s-56.167 -31.5 -78.5 -54.5s-40 -50.333 -53 -82s-19.5 -65.5 -19.5 -101.5s6.5 -69.833 19.5 -101.5s30.667 -59.167 53 -82.5s48.5 -41.833 78.5 -55.5s62 -20.5 96 -20.5s66 6.66699 96 20s56.167 31.5 78.5 54.5s40 50.333 53 82s19.5 65.5 19.5 101.5z" />
    <glyph glyph-name="guillemotleft" unicode="&#xab;" horiz-adv-x="444" 
d="M231 75c0 -4.66699 -2.16699 -7.66895 -6.5 -9.00195s-9.83301 -2 -16.5 -2h-44c-7.33301 0 -13 2.33301 -17 7s-8.66699 11 -14 19l-99 151c-2.66699 4 -4 7.66699 -4 11s1.33301 7 4 11l99 151c5.33301 8 10 14.333 14 19s9.66699 7 17 7h44
c6.66699 0 12.167 -0.666992 16.5 -2s6.5 -4.33301 6.5 -9c0 -2.66699 -1.66699 -6.16699 -5 -10.5s-6 -8.16602 -8 -11.499l-103 -155l103 -155c2 -3.33301 4.66699 -7.16602 8 -11.499s5 -7.83301 5 -10.5zM411 74.998c0 -4.66699 -2.16699 -7.66895 -6.5 -9.00195
s-9.83301 -2 -16.5 -2h-44c-7.33301 0 -13 2.33301 -17 7s-8.66699 11 -14 19l-99 151c-2.66699 4 -4 7.66699 -4 11s1.33301 7 4 11l99 151c5.33301 8 10 14.333 14 19s9.66699 7 17 7h44c6.66699 0 12.167 -0.666992 16.5 -2s6.5 -4.33301 6.5 -9
c0 -2.66699 -1.66699 -6.16699 -5 -10.5s-6 -8.16602 -8 -11.499l-103 -155l103 -155c2 -3.33301 4.66699 -7.16602 8 -11.499s5 -7.83301 5 -10.5z" />
    <glyph glyph-name="logicalnot" unicode="&#xac;" horiz-adv-x="596" 
d="M67 334c-7.33301 0 -13.5 2.5 -18.5 7.5s-7.5 11.167 -7.5 18.5v27c0 7.33301 2.5 13.5 7.5 18.5s11.167 7.5 18.5 7.5h464c7.33301 0 13.333 -2.5 18 -7.5s7 -11.167 7 -18.5v-248c0 -7.33301 -2.33301 -13.5 -7 -18.5s-10.667 -7.5 -18 -7.5h-31
c-7.33301 0 -13.5 2.5 -18.5 7.5s-7.5 11.167 -7.5 18.5v195h-407z" />
    <glyph glyph-name="registered" unicode="&#xae;" horiz-adv-x="441" 
d="M394 515c0 -24 -4.5 -46.167 -13.5 -66.5s-21.333 -38.166 -37 -53.499s-34 -27.333 -55 -36s-43.5 -13 -67.5 -13s-46.5 4.5 -67.5 13.5s-39.333 21.167 -55 36.5s-28 33.166 -37 53.499s-13.5 42.166 -13.5 65.499c0 24 4.5 46.167 13.5 66.5s21.333 38.166 37 53.499
s34 27.333 55 36s43.5 13 67.5 13s46.5 -4.5 67.5 -13.5s39.333 -21.167 55 -36.5s28 -33.166 37 -53.499s13.5 -42.166 13.5 -65.499zM360 515c0 18.667 -3.83301 36.5 -11.5 53.5s-17.834 31.833 -30.501 44.5s-27.334 22.667 -44.001 30s-34.334 11 -53.001 11
s-36.334 -3.83301 -53.001 -11.5s-31.334 -17.834 -44.001 -30.501s-22.834 -27.334 -30.501 -44.001s-11.5 -34.334 -11.5 -53.001s3.83301 -36.5 11.5 -53.5s17.834 -31.833 30.501 -44.5s27.334 -22.667 44.001 -30s34.334 -11 53.001 -11s36.334 3.83301 53.001 11.5
s31.334 17.834 44.001 30.501s22.834 27.334 30.501 44.001s11.5 34.334 11.5 53.001zM250 557c0 16.667 -13.333 25.001 -40 25.001h-18v-49h19c12 0 21.5 2.16699 28.5 6.5s10.5 10.166 10.5 17.499zM305 435.001c0 -6.66699 -5.33496 -10 -16.002 -10h-14
c-5.33301 0 -8.83301 0.666992 -10.5 2s-3.16699 3.66602 -4.5 6.99902l-17 37c-4.66699 10 -9.16699 17.333 -13.5 22s-11.166 7 -20.499 7h-17v-62c0 -3.33301 -1.33301 -6.33301 -4 -9s-5.66699 -4 -9 -4h-17c-3.33301 0 -6.16602 1.33301 -8.49902 4
s-3.5 5.66699 -3.5 9v158c0 5.33301 1.5 9 4.5 11s6.16699 3.33301 9.5 4c6 1.33301 12.667 2.33301 20 3s16 1 26 1c24 0 43.667 -4 59 -12s23 -22 23 -42c0 -9.33301 -2.33301 -18 -7 -26s-10.667 -14.667 -18 -20c3.33301 -3.33301 6 -7.16602 8 -11.499l7 -14.5l19 -41
c2.66699 -4.66699 4 -9 4 -13z" />
    <glyph glyph-name="degree" unicode="&#xb0;" horiz-adv-x="339" 
d="M172 685c21.333 0 40.8311 -3.66602 58.498 -10.999s32.667 -17.333 45 -30s21.833 -27.334 28.5 -44.001s10 -34.334 10 -53.001c0 -20.667 -4 -39.667 -12 -57s-18.667 -32.166 -32 -44.499s-28.666 -22 -45.999 -29s-35.333 -10.5 -54 -10.5
c-21.333 0 -40.666 3.66699 -57.999 11s-32.333 17.166 -45 29.499s-22.5 26.833 -29.5 43.5s-10.5 34.334 -10.5 53.001c0 20 3.66699 38.667 11 56s17.5 32.333 30.5 45s28.333 22.667 46 30s36.5 11 56.5 11h1zM168.998 626.001
c-23.333 0 -41.334 -8.50098 -54.001 -25.501s-19 -35.833 -19 -56.5c0 -22 7 -40.667 21 -56s31.667 -23 53 -23c22 0 40 7.66699 54 23s21 34.666 21 57.999c0 9.33301 -1.5 18.833 -4.5 28.5s-7.66699 18.334 -14 26.001s-14.166 13.834 -23.499 18.501s-20.333 7 -33 7
h-1z" />
    <glyph glyph-name="plusminus" unicode="&#xb1;" horiz-adv-x="596" 
d="M557 341c0 -7.33301 -2.5 -13.5 -7.5 -18.5s-11.167 -7.5 -18.5 -7.5h-191v-162c0 -7.33301 -2.5 -13.5 -7.5 -18.5s-11.167 -7.5 -18.5 -7.5h-31c-7.33301 0 -13.5 2.5 -18.5 7.5s-7.5 11.167 -7.5 18.5v162h-191c-7.33301 0 -13.5 2.5 -18.5 7.5s-7.5 11.167 -7.5 18.5
v26c0 7.33301 2.5 13.5 7.5 18.5s11.167 7.5 18.5 7.5h191v156c0 7.33301 2.5 13.5 7.5 18.5s11.167 7.5 18.5 7.5h31c7.33301 0 13.5 -2.5 18.5 -7.5s7.5 -11.167 7.5 -18.5v-156h191c7.33301 0 13.5 -2.5 18.5 -7.5s7.5 -11.167 7.5 -18.5v-26v0zM558 68
l-0.000976562 -4.00098c0 -1.33301 -0.333008 -3.66602 -1 -6.99902l-7 -45c-1.33301 -8 -5.66602 -12 -12.999 -12h-483c-8 -0 -12 3.33301 -12 10v3c0 2 0.333008 4.66699 1 8l7 45c0.666992 8 5 12 13 12h483c8 0 12 -3.33301 12 -10z" />
    <glyph glyph-name="paragraph" unicode="&#xb6;" horiz-adv-x="529" 
d="M450 -41c0 -7.33301 -2.49902 -13.501 -7.49902 -18.501s-11.167 -7.5 -18.5 -7.5h-29c-7.33301 0 -13.5 2.5 -18.5 7.5s-7.5 11.167 -7.5 18.5v639h-71v-639c0 -7.33301 -2.5 -13.5 -7.5 -18.5s-11.167 -7.5 -18.5 -7.5h-29c-7.33301 0 -13.5 2.5 -18.5 7.5
s-7.5 11.167 -7.5 18.5v305h-7c-16.667 0 -35.334 3.83301 -56.001 11.5s-40 19.167 -58 34.5s-33 34.833 -45 58.5s-18 51.5 -18 83.5c0 26.667 4 53.334 12 80.001s22.667 50.667 44 72s50.5 38.833 87.5 52.5s84.5 20.5 142.5 20.5c28.667 0 54 -0.833008 76 -2.5
s40.333 -4.16699 55 -7.5v-708z" />
    <glyph glyph-name="periodcentered" unicode="&#xb7;" horiz-adv-x="236" 
d="M126 219c-22 0 -40 7.5 -54 22.5s-21 33.833 -21 56.5c0 23.333 7.16699 42.333 21.5 57s32.5 22 54.5 22c22.667 0 41 -7.33301 55 -22s21 -33.667 21 -57c0 -22.667 -6.83301 -41.5 -20.5 -56.5s-32.167 -22.5 -55.5 -22.5h-1z" />
    <glyph glyph-name="afii10071" unicode="&#xb8;" horiz-adv-x="526" 
d="M180 563c-17.333 0 -31.834 6 -43.501 18s-17.5 26.667 -17.5 44s6 31.833 18 43.5s27 17.5 45 17.5c16.667 0 30.667 -5.83301 42 -17.5s17 -26.167 17 -43.5s-5.66699 -32 -17 -44s-25.666 -18 -42.999 -18h-1zM377.999 563c-17.333 0 -31.667 6 -43 18
s-17 26.667 -17 44s6 31.833 18 43.5s26.667 17.5 44 17.5s31.666 -5.83301 42.999 -17.5s17 -26.167 17 -43.5s-5.66699 -32 -17 -44s-25.666 -18 -42.999 -18h-2zM157.998 209c0.666992 -22 5.16406 -41 13.4971 -57s19.333 -29 33 -39s29.5 -17.5 47.5 -22.5
s36.667 -7.5 56 -7.5c23.333 0 43.5 1.33301 60.5 4s33.5 6.33398 49.5 11.001l7.5 2.5c3 1 5.83301 1.5 8.5 1.5c6 0 10 -4.33301 12 -13l10 -43c1.33301 -5.33301 2 -10 2 -14c0 -5.33301 -1.66699 -9.33301 -5 -12s-6.33301 -4.66699 -9 -6
c-20 -7.33301 -42.833 -13.166 -68.5 -17.499s-53.834 -6.5 -84.501 -6.5c-39.333 0 -74.666 5.83301 -105.999 17.5s-57.666 28.167 -78.999 49.5s-37.666 47.166 -48.999 77.499s-17 64.166 -17 101.499c0 34 5 66.667 15 98s25 59.166 45 83.499s44.833 43.833 74.5 58.5
s64.167 22 103.5 22c42 0 76.667 -7.33301 104 -22s48.833 -33.834 64.5 -57.501s26.5 -50.167 32.5 -79.5s9 -58.666 9 -87.999c0 -11.333 -1.66699 -21.166 -5 -29.499s-10.666 -12.5 -21.999 -12.5h-303zM371.995 295c0 14 -1.5 28.002 -4.5 42.002
s-8.16699 26.667 -15.5 38s-17.5 20.666 -30.5 27.999s-29.833 11 -50.5 11c-19.333 0 -35.833 -3.83301 -49.5 -11.5s-25 -17.334 -34 -29.001s-15.833 -24.5 -20.5 -38.5s-7.66699 -27.333 -9 -40h214z" />
    <glyph glyph-name="afii10071" unicode="&#x451;" horiz-adv-x="526" 
d="M180 563c-17.333 0 -31.834 6 -43.501 18s-17.5 26.667 -17.5 44s6 31.833 18 43.5s27 17.5 45 17.5c16.667 0 30.667 -5.83301 42 -17.5s17 -26.167 17 -43.5s-5.66699 -32 -17 -44s-25.666 -18 -42.999 -18h-1zM377.999 563c-17.333 0 -31.667 6 -43 18
s-17 26.667 -17 44s6 31.833 18 43.5s26.667 17.5 44 17.5s31.666 -5.83301 42.999 -17.5s17 -26.167 17 -43.5s-5.66699 -32 -17 -44s-25.666 -18 -42.999 -18h-2zM157.998 209c0.666992 -22 5.16406 -41 13.4971 -57s19.333 -29 33 -39s29.5 -17.5 47.5 -22.5
s36.667 -7.5 56 -7.5c23.333 0 43.5 1.33301 60.5 4s33.5 6.33398 49.5 11.001l7.5 2.5c3 1 5.83301 1.5 8.5 1.5c6 0 10 -4.33301 12 -13l10 -43c1.33301 -5.33301 2 -10 2 -14c0 -5.33301 -1.66699 -9.33301 -5 -12s-6.33301 -4.66699 -9 -6
c-20 -7.33301 -42.833 -13.166 -68.5 -17.499s-53.834 -6.5 -84.501 -6.5c-39.333 0 -74.666 5.83301 -105.999 17.5s-57.666 28.167 -78.999 49.5s-37.666 47.166 -48.999 77.499s-17 64.166 -17 101.499c0 34 5 66.667 15 98s25 59.166 45 83.499s44.833 43.833 74.5 58.5
s64.167 22 103.5 22c42 0 76.667 -7.33301 104 -22s48.833 -33.834 64.5 -57.501s26.5 -50.167 32.5 -79.5s9 -58.666 9 -87.999c0 -11.333 -1.66699 -21.166 -5 -29.499s-10.666 -12.5 -21.999 -12.5h-303zM371.995 295c0 14 -1.5 28.002 -4.5 42.002
s-8.16699 26.667 -15.5 38s-17.5 20.666 -30.5 27.999s-29.833 11 -50.5 11c-19.333 0 -35.833 -3.83301 -49.5 -11.5s-25 -17.334 -34 -29.001s-15.833 -24.5 -20.5 -38.5s-7.66699 -27.333 -9 -40h214z" />
    <glyph glyph-name="afii61352" unicode="&#xb9;" horiz-adv-x="955" 
d="M756 635c-24 0 -46.332 -3.99902 -66.999 -11.999s-38.5 -19.667 -53.5 -35s-26.833 -34 -35.5 -56s-13 -47 -13 -75s4.16699 -52.667 12.5 -74s20 -39.333 35 -54s32.667 -25.834 53 -33.501s42.5 -11.5 66.5 -11.5c22 0 43.167 3.33301 63.5 10
s38.166 17.334 53.499 32.001s27.666 33.167 36.999 55.5s14 49.166 14 80.499c0 52 -14.667 93.833 -44 125.5s-69.666 47.5 -120.999 47.5h-1zM754.001 571.001c12.667 0 23.4971 -3.33203 32.4971 -9.99902s16.333 -15.334 22 -26.001s9.83398 -22.667 12.501 -36
s4 -26.666 4 -39.999c0 -32.667 -6 -59.5 -18 -80.5s-29.333 -31.5 -52 -31.5c-20 0 -36.833 10.333 -50.5 31s-20.5 47 -20.5 79c0 13.333 1.33301 26.666 4 39.999s6.83398 25.5 12.501 36.5s12.834 20 21.501 27s19 10.5 31 10.5h1zM447.998 156.002
c-1.33301 27.333 -2.66895 57 -4.00195 89c-1.33301 26.667 -2.33301 57 -3 91s-1 69 -1 105v207c0 7.33301 2 13.5 6 18.5s9 7.5 15 7.5h53c6.66699 0 12 -2.5 16 -7.5s6 -11.167 6 -18.5v-622c0 -7.33301 -2 -13.5 -6 -18.5s-9.33301 -7.5 -16 -7.5h-74
c-7.33301 0 -12.833 2.66699 -16.5 8s-7.16699 11.333 -10.5 18l-190 386l-49 123h-2c0.666992 -38 1.66699 -75.333 3 -112c0.666992 -31.333 1.33398 -64.5 2.00098 -99.5s1 -65.167 1 -90.5v-207c0 -7.33301 -2 -13.5 -6 -18.5s-9 -7.5 -15 -7.5h-53
c-6.66699 0 -12 2.5 -16 7.5s-6 11.167 -6 18.5v622c0 7.33301 2 13.5 6 18.5s9.33301 7.5 16 7.5h86c6.66699 0 11.834 -2.66699 15.501 -8s7.16699 -11.333 10.5 -18l183 -371l47 -121h2zM632.995 214.002c-8 0 -12.332 -3.99902 -12.999 -11.999l-6 -31
c-0.666992 -3.33301 -1 -6 -1 -8v-3c0 -6.66699 4 -10 12 -10h250c7.33301 0 11.666 4 12.999 12l6 31c0.666992 3.33301 1 5.66602 1 6.99902v4c0 6.66699 -4 10 -12 10h-250z" />
    <glyph glyph-name="afii61352" unicode="&#x2116;" horiz-adv-x="955" 
d="M756 635c-24 0 -46.332 -3.99902 -66.999 -11.999s-38.5 -19.667 -53.5 -35s-26.833 -34 -35.5 -56s-13 -47 -13 -75s4.16699 -52.667 12.5 -74s20 -39.333 35 -54s32.667 -25.834 53 -33.501s42.5 -11.5 66.5 -11.5c22 0 43.167 3.33301 63.5 10
s38.166 17.334 53.499 32.001s27.666 33.167 36.999 55.5s14 49.166 14 80.499c0 52 -14.667 93.833 -44 125.5s-69.666 47.5 -120.999 47.5h-1zM754.001 571.001c12.667 0 23.4971 -3.33203 32.4971 -9.99902s16.333 -15.334 22 -26.001s9.83398 -22.667 12.501 -36
s4 -26.666 4 -39.999c0 -32.667 -6 -59.5 -18 -80.5s-29.333 -31.5 -52 -31.5c-20 0 -36.833 10.333 -50.5 31s-20.5 47 -20.5 79c0 13.333 1.33301 26.666 4 39.999s6.83398 25.5 12.501 36.5s12.834 20 21.501 27s19 10.5 31 10.5h1zM447.998 156.002
c-1.33301 27.333 -2.66895 57 -4.00195 89c-1.33301 26.667 -2.33301 57 -3 91s-1 69 -1 105v207c0 7.33301 2 13.5 6 18.5s9 7.5 15 7.5h53c6.66699 0 12 -2.5 16 -7.5s6 -11.167 6 -18.5v-622c0 -7.33301 -2 -13.5 -6 -18.5s-9.33301 -7.5 -16 -7.5h-74
c-7.33301 0 -12.833 2.66699 -16.5 8s-7.16699 11.333 -10.5 18l-190 386l-49 123h-2c0.666992 -38 1.66699 -75.333 3 -112c0.666992 -31.333 1.33398 -64.5 2.00098 -99.5s1 -65.167 1 -90.5v-207c0 -7.33301 -2 -13.5 -6 -18.5s-9 -7.5 -15 -7.5h-53
c-6.66699 0 -12 2.5 -16 7.5s-6 11.167 -6 18.5v622c0 7.33301 2 13.5 6 18.5s9.33301 7.5 16 7.5h86c6.66699 0 11.834 -2.66699 15.501 -8s7.16699 -11.333 10.5 -18l183 -371l47 -121h2zM632.995 214.002c-8 0 -12.332 -3.99902 -12.999 -11.999l-6 -31
c-0.666992 -3.33301 -1 -6 -1 -8v-3c0 -6.66699 4 -10 12 -10h250c7.33301 0 11.666 4 12.999 12l6 31c0.666992 3.33301 1 5.66602 1 6.99902v4c0 6.66699 -4 10 -12 10h-250z" />
    <glyph glyph-name="guillemotright" unicode="&#xbb;" horiz-adv-x="444" 
d="M411 252c0 -3.33301 -1.33301 -6.99805 -4 -10.998l-99 -151c-5.33301 -8 -10 -14.333 -14 -19s-9.66699 -7 -17 -7h-44c-6.66699 0 -12.167 0.666992 -16.5 2s-6.5 4.33301 -6.5 9c0 2.66699 1.66699 6.16699 5 10.5s6 8.16602 8 11.499l103 155l-103 155
c-2 3.33301 -4.66699 7.16602 -8 11.499s-5 7.83301 -5 10.5c0 4.66699 2.16699 7.66699 6.5 9s9.83301 2 16.5 2h44c7.33301 0 13 -2.33301 17 -7s8.66699 -11 14 -19l99 -151c2.66699 -4 4 -7.66699 4 -11zM231 252.002c0 -3.33301 -1.33301 -6.99805 -4 -10.998l-99 -151
c-5.33301 -8 -10 -14.333 -14 -19s-9.66699 -7 -17 -7h-44c-6.66699 0 -12.167 0.666992 -16.5 2s-6.5 4.33301 -6.5 9c0 2.66699 1.66699 6.16699 5 10.5s6 8.16602 8 11.499l103 155l-103 155c-2 3.33301 -4.66699 7.16602 -8 11.499s-5 7.83301 -5 10.5
c0 4.66699 2.16699 7.66699 6.5 9s9.83301 2 16.5 2h44c7.33301 0 13 -2.33301 17 -7s8.66699 -11 14 -19l99 -151c2.66699 -4 4 -7.66699 4 -11z" />
    <glyph glyph-name="afii10017" unicode="&#xc0;" horiz-adv-x="646" 
d="M610 24c1.33301 -4 2 -7.33301 2 -10c0 -9.33301 -7 -14 -21 -14h-83c-9.33301 0 -16.5 2.16699 -21.5 6.5s-8.16699 9.16602 -9.5 14.499l-52 170h-214l-52 -170c-1.33301 -5.33301 -4.5 -10.166 -9.5 -14.499s-12.167 -6.5 -21.5 -6.5h-75c-14 0 -21 4.66699 -21 14
c0 2.66699 0.666992 6 2 10l199 621c6.66699 19.333 18 29 34 29h111c8.66699 0 15.167 -2.83301 19.5 -8.5s7.83301 -12.5 10.5 -20.5zM315 576l-32 -127l-52 -165h173l-54 165l-33 127h-2z" />
    <glyph glyph-name="afii10017" unicode="&#x410;" horiz-adv-x="646" 
d="M610 24c1.33301 -4 2 -7.33301 2 -10c0 -9.33301 -7 -14 -21 -14h-83c-9.33301 0 -16.5 2.16699 -21.5 6.5s-8.16699 9.16602 -9.5 14.499l-52 170h-214l-52 -170c-1.33301 -5.33301 -4.5 -10.166 -9.5 -14.499s-12.167 -6.5 -21.5 -6.5h-75c-14 0 -21 4.66699 -21 14
c0 2.66699 0.666992 6 2 10l199 621c6.66699 19.333 18 29 34 29h111c8.66699 0 15.167 -2.83301 19.5 -8.5s7.83301 -12.5 10.5 -20.5zM315 576l-32 -127l-52 -165h173l-54 165l-33 127h-2z" />
    <glyph glyph-name="afii10018" unicode="&#xc1;" horiz-adv-x="568" 
d="M198 345l0.000976562 -253.002c9.33301 -1.33301 17.666 -2.66602 24.999 -3.99902s17.333 -2 30 -2c40 0 73.667 11.167 101 33.5s41 54.5 41 96.5c0 44.667 -14.167 77.334 -42.5 98.001s-66.833 31 -115.5 31h-39zM255.001 -7.00195
c-27.333 0 -53.667 0.831055 -79 2.49805s-50.666 5.16699 -75.999 10.5c-6 1.33301 -11.5 4.83301 -16.5 10.5s-7.5 14.834 -7.5 27.501v604c0 7.33301 2.5 13.5 7.5 18.5s11.167 7.5 18.5 7.5h362c6.66699 0 11.834 -2.16699 15.501 -6.5s5.5 -9.83301 5.5 -16.5
c0 -1.33301 -0.166992 -3.5 -0.5 -6.5s-0.833008 -6.16699 -1.5 -9.5l-6 -38c-1.33301 -7.33301 -4.33301 -13.166 -9 -17.499s-10.667 -6.5 -18 -6.5h-252v-140h41c38 0 74.167 -4 108.5 -12s64.666 -20.667 90.999 -38s47.166 -39.5 62.499 -66.5s23 -59.5 23 -97.5
c0 -44 -7.66699 -80.5 -23 -109.5s-35.5 -52.167 -60.5 -69.5s-53.667 -29.5 -86 -36.5s-65.5 -10.5 -99.5 -10.5z" />
    <glyph glyph-name="afii10018" unicode="&#x411;" horiz-adv-x="568" 
d="M198 345l0.000976562 -253.002c9.33301 -1.33301 17.666 -2.66602 24.999 -3.99902s17.333 -2 30 -2c40 0 73.667 11.167 101 33.5s41 54.5 41 96.5c0 44.667 -14.167 77.334 -42.5 98.001s-66.833 31 -115.5 31h-39zM255.001 -7.00195
c-27.333 0 -53.667 0.831055 -79 2.49805s-50.666 5.16699 -75.999 10.5c-6 1.33301 -11.5 4.83301 -16.5 10.5s-7.5 14.834 -7.5 27.501v604c0 7.33301 2.5 13.5 7.5 18.5s11.167 7.5 18.5 7.5h362c6.66699 0 11.834 -2.16699 15.501 -6.5s5.5 -9.83301 5.5 -16.5
c0 -1.33301 -0.166992 -3.5 -0.5 -6.5s-0.833008 -6.16699 -1.5 -9.5l-6 -38c-1.33301 -7.33301 -4.33301 -13.166 -9 -17.499s-10.667 -6.5 -18 -6.5h-252v-140h41c38 0 74.167 -4 108.5 -12s64.666 -20.667 90.999 -38s47.166 -39.5 62.499 -66.5s23 -59.5 23 -97.5
c0 -44 -7.66699 -80.5 -23 -109.5s-35.5 -52.167 -60.5 -69.5s-53.667 -29.5 -86 -36.5s-65.5 -10.5 -99.5 -10.5z" />
    <glyph glyph-name="afii10019" unicode="&#xc2;" horiz-adv-x="586" 
d="M198 398h76.999c38 0 67.333 9 88 27s31 41.333 31 70c0 32 -9.33301 55.5 -28 70.5s-47.667 22.5 -87 22.5c-18 0 -34.167 -1 -48.5 -3s-25.166 -4 -32.499 -6v-181zM197.999 94c8 -2 19.166 -3.83203 33.499 -5.49902s28.5 -2.5 42.5 -2.5c20 0 38.333 2 55 6
s31.334 10.333 44.001 19s22.5 20.167 29.5 34.5s10.5 32.166 10.5 53.499c0 39.333 -12.667 67.5 -38 84.5s-59.333 25.5 -102 25.5h-75v-215zM75.998 623.001c0 12.667 2.49707 21.833 7.49707 27.5s10.5 9.16699 16.5 10.5c24.667 5.33301 52.834 9.66602 84.501 12.999
s61.167 5 88.5 5c32 0 62.833 -2.33301 92.5 -7s55.834 -13.167 78.501 -25.5s40.667 -29.666 54 -51.999s20 -50.833 20 -85.5c0 -31.333 -9.5 -60 -28.5 -86s-46.833 -45.667 -83.5 -59v-3c18 -4.66699 35.167 -11.5 51.5 -20.5s30.666 -20.5 42.999 -34.5
s22.333 -30.333 30 -49s11.5 -39.334 11.5 -62.001c0 -41.333 -7 -75 -21 -101s-33.5 -46.5 -58.5 -61.5s-55.167 -25.333 -90.5 -31s-74.333 -8.5 -117 -8.5c-27.333 0 -53.666 0.833008 -78.999 2.5s-50.666 5.16699 -75.999 10.5c-6 1.33301 -11.5 4.83301 -16.5 10.5
s-7.5 14.834 -7.5 27.501v579z" />
    <glyph glyph-name="afii10019" unicode="&#x412;" horiz-adv-x="586" 
d="M198 398h76.999c38 0 67.333 9 88 27s31 41.333 31 70c0 32 -9.33301 55.5 -28 70.5s-47.667 22.5 -87 22.5c-18 0 -34.167 -1 -48.5 -3s-25.166 -4 -32.499 -6v-181zM197.999 94c8 -2 19.166 -3.83203 33.499 -5.49902s28.5 -2.5 42.5 -2.5c20 0 38.333 2 55 6
s31.334 10.333 44.001 19s22.5 20.167 29.5 34.5s10.5 32.166 10.5 53.499c0 39.333 -12.667 67.5 -38 84.5s-59.333 25.5 -102 25.5h-75v-215zM75.998 623.001c0 12.667 2.49707 21.833 7.49707 27.5s10.5 9.16699 16.5 10.5c24.667 5.33301 52.834 9.66602 84.501 12.999
s61.167 5 88.5 5c32 0 62.833 -2.33301 92.5 -7s55.834 -13.167 78.501 -25.5s40.667 -29.666 54 -51.999s20 -50.833 20 -85.5c0 -31.333 -9.5 -60 -28.5 -86s-46.833 -45.667 -83.5 -59v-3c18 -4.66699 35.167 -11.5 51.5 -20.5s30.666 -20.5 42.999 -34.5
s22.333 -30.333 30 -49s11.5 -39.334 11.5 -62.001c0 -41.333 -7 -75 -21 -101s-33.5 -46.5 -58.5 -61.5s-55.167 -25.333 -90.5 -31s-74.333 -8.5 -117 -8.5c-27.333 0 -53.666 0.833008 -78.999 2.5s-50.666 5.16699 -75.999 10.5c-6 1.33301 -11.5 4.83301 -16.5 10.5
s-7.5 14.834 -7.5 27.501v579z" />
    <glyph glyph-name="afii10020" unicode="&#xc3;" horiz-adv-x="474" 
d="M76 648c0 7.33301 2.49902 13.499 7.49902 18.499s11.167 7.5 18.5 7.5h330c6.66699 0 11.834 -2.16699 15.501 -6.5s5.5 -9.83301 5.5 -16.5c0 -1.33301 -0.166992 -3.5 -0.5 -6.5s-0.833008 -6.16699 -1.5 -9.5l-6 -38c-1.33301 -7.33301 -4.33301 -13.166 -9 -17.499
s-10.667 -6.5 -18 -6.5h-219v-547c0 -7.33301 -2.5 -13.5 -7.5 -18.5s-11.167 -7.5 -18.5 -7.5h-71c-7.33301 0 -13.5 2.5 -18.5 7.5s-7.5 11.167 -7.5 18.5v622z" />
    <glyph glyph-name="afii10020" unicode="&#x413;" horiz-adv-x="474" 
d="M76 648c0 7.33301 2.49902 13.499 7.49902 18.499s11.167 7.5 18.5 7.5h330c6.66699 0 11.834 -2.16699 15.501 -6.5s5.5 -9.83301 5.5 -16.5c0 -1.33301 -0.166992 -3.5 -0.5 -6.5s-0.833008 -6.16699 -1.5 -9.5l-6 -38c-1.33301 -7.33301 -4.33301 -13.166 -9 -17.499
s-10.667 -6.5 -18 -6.5h-219v-547c0 -7.33301 -2.5 -13.5 -7.5 -18.5s-11.167 -7.5 -18.5 -7.5h-71c-7.33301 0 -13.5 2.5 -18.5 7.5s-7.5 11.167 -7.5 18.5v622z" />
    <glyph glyph-name="afii10021" unicode="&#xc4;" horiz-adv-x="660" 
d="M177 454l12.001 194c0.666992 7.33301 3.33398 13.5 8.00098 18.5s10.667 7.5 18 7.5h321c7.33301 0 13.5 -2.5 18.5 -7.5s7.5 -11.167 7.5 -18.5v-547h39c7.33301 0 13.5 -2.5 18.5 -7.5s7.5 -11.167 7.5 -18.5v-211c0 -7.33301 -2.5 -13.5 -7.5 -18.5
s-11.167 -7.5 -18.5 -7.5h-63c-7.33301 0 -13.5 2.5 -18.5 7.5s-7.5 11.167 -7.5 18.5v136h-382v-136c0 -7.33301 -2.5 -13.5 -7.5 -18.5s-11.167 -7.5 -18.5 -7.5h-63c-7.33301 0 -13.5 2.5 -18.5 7.5s-7.5 11.167 -7.5 18.5v211c0 7.33301 2.5 13.5 7.5 18.5
s11.167 7.5 18.5 7.5h32c33.333 52 58.166 108.5 74.499 169.5s26.166 122.167 29.499 183.5zM287.001 436c-4 -63.333 -12 -122 -24 -176s-33.667 -107.333 -65 -160h241v473h-144z" />
    <glyph glyph-name="afii10021" unicode="&#x414;" horiz-adv-x="660" 
d="M177 454l12.001 194c0.666992 7.33301 3.33398 13.5 8.00098 18.5s10.667 7.5 18 7.5h321c7.33301 0 13.5 -2.5 18.5 -7.5s7.5 -11.167 7.5 -18.5v-547h39c7.33301 0 13.5 -2.5 18.5 -7.5s7.5 -11.167 7.5 -18.5v-211c0 -7.33301 -2.5 -13.5 -7.5 -18.5
s-11.167 -7.5 -18.5 -7.5h-63c-7.33301 0 -13.5 2.5 -18.5 7.5s-7.5 11.167 -7.5 18.5v136h-382v-136c0 -7.33301 -2.5 -13.5 -7.5 -18.5s-11.167 -7.5 -18.5 -7.5h-63c-7.33301 0 -13.5 2.5 -18.5 7.5s-7.5 11.167 -7.5 18.5v211c0 7.33301 2.5 13.5 7.5 18.5
s11.167 7.5 18.5 7.5h32c33.333 52 58.166 108.5 74.499 169.5s26.166 122.167 29.499 183.5zM287.001 436c-4 -63.333 -12 -122 -24 -176s-33.667 -107.333 -65 -160h241v473h-144z" />
    <glyph glyph-name="afii10022" unicode="&#xc5;" horiz-adv-x="525" 
d="M483 26c0 -7.33301 -2.50195 -13.502 -7.50195 -18.502s-11.167 -7.5 -18.5 -7.5h-355c-7.33301 0 -13.5 2.5 -18.5 7.5s-7.5 11.167 -7.5 18.5v622c0 7.33301 2.5 13.5 7.5 18.5s11.167 7.5 18.5 7.5h354c6.66699 0 11.834 -2.16699 15.501 -6.5s5.5 -9.83301 5.5 -16.5
c0 -1.33301 -0.166992 -3.5 -0.5 -6.5s-0.833008 -6.16699 -1.5 -9.5l-6 -38c-1.33301 -7.33301 -4.33301 -13.166 -9 -17.499s-10.667 -6.5 -18 -6.5h-243v-173h236c6.66699 0 11.834 -2.16699 15.501 -6.5s5.5 -9.83301 5.5 -16.5c0 -1.33301 -0.166992 -3.5 -0.5 -6.5
s-0.833008 -6.16699 -1.5 -9.5l-6 -38c-1.33301 -7.33301 -4.33301 -13.166 -9 -17.499s-10.667 -6.5 -18 -6.5h-222v-198h258c7.33301 0 13.5 -2.5 18.5 -7.5s7.5 -11.167 7.5 -18.5v-49z" />
    <glyph glyph-name="afii10022" unicode="&#x415;" horiz-adv-x="525" 
d="M483 26c0 -7.33301 -2.50195 -13.502 -7.50195 -18.502s-11.167 -7.5 -18.5 -7.5h-355c-7.33301 0 -13.5 2.5 -18.5 7.5s-7.5 11.167 -7.5 18.5v622c0 7.33301 2.5 13.5 7.5 18.5s11.167 7.5 18.5 7.5h354c6.66699 0 11.834 -2.16699 15.501 -6.5s5.5 -9.83301 5.5 -16.5
c0 -1.33301 -0.166992 -3.5 -0.5 -6.5s-0.833008 -6.16699 -1.5 -9.5l-6 -38c-1.33301 -7.33301 -4.33301 -13.166 -9 -17.499s-10.667 -6.5 -18 -6.5h-243v-173h236c6.66699 0 11.834 -2.16699 15.501 -6.5s5.5 -9.83301 5.5 -16.5c0 -1.33301 -0.166992 -3.5 -0.5 -6.5
s-0.833008 -6.16699 -1.5 -9.5l-6 -38c-1.33301 -7.33301 -4.33301 -13.166 -9 -17.499s-10.667 -6.5 -18 -6.5h-222v-198h258c7.33301 0 13.5 -2.5 18.5 -7.5s7.5 -11.167 7.5 -18.5v-49z" />
    <glyph glyph-name="afii10024" unicode="&#xc6;" horiz-adv-x="852" 
d="M461 674c7.33301 0 13.166 -2.5 17.499 -7.5s6.5 -11.167 6.5 -18.5v-277h2l177 281c9.33301 14.667 24.333 22 45 22h76c13.333 0 20 -3.66699 20 -11c0 -2 -0.666992 -4.16699 -2 -6.5s-2.66602 -4.83301 -3.99902 -7.5l-201 -298l214 -328
c2.66699 -3.33301 4 -7.33301 4 -12c0 -7.33301 -6.33301 -11 -19 -11h-85c-13.333 0 -23 2 -29 6s-11.667 9.66699 -17 17l-179 293h-2v-290c0 -17.333 -8 -26 -24 -26h-71c-16 0 -24 8.66699 -24 26v290h-2l-179 -293c-5.33301 -7.33301 -11 -13 -17 -17
s-15.667 -6 -29 -6h-85c-12.667 0 -19 3.66699 -19 11c0 4.66699 1.33301 8.66699 4 12l214 328l-201 298c-1.33301 2.66699 -2.66602 5.16699 -3.99902 7.5s-2 4.5 -2 6.5c0 7.33301 6.66699 11 20 11h76c20.667 0 35.667 -7.33301 45 -22l177 -281h2v277
c0 7.33301 2.16699 13.5 6.5 18.5s10.166 7.5 17.499 7.5h71z" />
    <glyph glyph-name="afii10024" unicode="&#x416;" horiz-adv-x="852" 
d="M461 674c7.33301 0 13.166 -2.5 17.499 -7.5s6.5 -11.167 6.5 -18.5v-277h2l177 281c9.33301 14.667 24.333 22 45 22h76c13.333 0 20 -3.66699 20 -11c0 -2 -0.666992 -4.16699 -2 -6.5s-2.66602 -4.83301 -3.99902 -7.5l-201 -298l214 -328
c2.66699 -3.33301 4 -7.33301 4 -12c0 -7.33301 -6.33301 -11 -19 -11h-85c-13.333 0 -23 2 -29 6s-11.667 9.66699 -17 17l-179 293h-2v-290c0 -17.333 -8 -26 -24 -26h-71c-16 0 -24 8.66699 -24 26v290h-2l-179 -293c-5.33301 -7.33301 -11 -13 -17 -17
s-15.667 -6 -29 -6h-85c-12.667 0 -19 3.66699 -19 11c0 4.66699 1.33301 8.66699 4 12l214 328l-201 298c-1.33301 2.66699 -2.66602 5.16699 -3.99902 7.5s-2 4.5 -2 6.5c0 7.33301 6.66699 11 20 11h76c20.667 0 35.667 -7.33301 45 -22l177 -281h2v277
c0 7.33301 2.16699 13.5 6.5 18.5s10.166 7.5 17.499 7.5h71z" />
    <glyph glyph-name="afii10025" unicode="&#xc7;" horiz-adv-x="530" 
d="M165 303c-6 0 -11.1641 2.00195 -15.4971 6.00195s-7.16602 9 -8.49902 15l-5 36c-0.666992 3.33301 -1.16699 6.16602 -1.5 8.49902s-0.5 4.16602 -0.5 5.49902c0 6 2 11 6 15s9 6 15 6h73c34 0 60.833 9.5 80.5 28.5s29.5 43.5 29.5 73.5c0 28 -9.66699 49.667 -29 65
s-46 23 -80 23c-20 0 -39.167 -2.83301 -57.5 -8.5s-35.833 -12.167 -52.5 -19.5c-2.66699 -1.33301 -5.83398 -2.66602 -9.50098 -3.99902s-7.16699 -2 -10.5 -2c-6.66699 0 -11.334 3.66699 -14.001 11l-14 43c-2 4.66699 -3 9.33398 -3 14.001
c0 7.33301 2.16699 13.333 6.5 18s8.5 8 12.5 10c21.333 11.333 45 20.5 71 27.5s56.333 10.5 91 10.5c33.333 0 63.5 -4 90.5 -12s49.833 -19.5 68.5 -34.5s33 -32.833 43 -53.5s15 -43.667 15 -69c0 -21.333 -3.5 -40.833 -10.5 -58.5s-16.5 -33.334 -28.5 -47.001
s-26.333 -25.167 -43 -34.5s-34.667 -16.333 -54 -21v-2c22 -2.66699 42.667 -8.33398 62 -17.001s36 -20 50 -34s25.167 -30.5 33.5 -49.5s12.5 -40.167 12.5 -63.5c0 -36.667 -7.33301 -67.667 -22 -93s-33.834 -46 -57.501 -62s-50.667 -27.5 -81 -34.5
s-60.833 -10.5 -91.5 -10.5c-28.667 0 -57.334 2.83301 -86.001 8.5s-55.667 14.167 -81 25.5c-3.33301 1.33301 -7.33301 4 -12 8s-7 9.66699 -7 17c0 3.33301 0.333008 6 1 8l17 58c1.33301 6.66699 5 10 11 10c3.33301 0 7 -0.833008 11 -2.5l11 -4.5
c18 -6 38.333 -12.167 61 -18.5s45.667 -9.5 69 -9.5c44 0 76.333 9.66699 97 29s31 45.333 31 78c0 21.333 -4.33301 39 -13 53s-19.5 25 -32.5 33s-27 13.5 -42 16.5s-29.167 4.5 -42.5 4.5h-64z" />
    <glyph glyph-name="afii10025" unicode="&#x417;" horiz-adv-x="530" 
d="M165 303c-6 0 -11.1641 2.00195 -15.4971 6.00195s-7.16602 9 -8.49902 15l-5 36c-0.666992 3.33301 -1.16699 6.16602 -1.5 8.49902s-0.5 4.16602 -0.5 5.49902c0 6 2 11 6 15s9 6 15 6h73c34 0 60.833 9.5 80.5 28.5s29.5 43.5 29.5 73.5c0 28 -9.66699 49.667 -29 65
s-46 23 -80 23c-20 0 -39.167 -2.83301 -57.5 -8.5s-35.833 -12.167 -52.5 -19.5c-2.66699 -1.33301 -5.83398 -2.66602 -9.50098 -3.99902s-7.16699 -2 -10.5 -2c-6.66699 0 -11.334 3.66699 -14.001 11l-14 43c-2 4.66699 -3 9.33398 -3 14.001
c0 7.33301 2.16699 13.333 6.5 18s8.5 8 12.5 10c21.333 11.333 45 20.5 71 27.5s56.333 10.5 91 10.5c33.333 0 63.5 -4 90.5 -12s49.833 -19.5 68.5 -34.5s33 -32.833 43 -53.5s15 -43.667 15 -69c0 -21.333 -3.5 -40.833 -10.5 -58.5s-16.5 -33.334 -28.5 -47.001
s-26.333 -25.167 -43 -34.5s-34.667 -16.333 -54 -21v-2c22 -2.66699 42.667 -8.33398 62 -17.001s36 -20 50 -34s25.167 -30.5 33.5 -49.5s12.5 -40.167 12.5 -63.5c0 -36.667 -7.33301 -67.667 -22 -93s-33.834 -46 -57.501 -62s-50.667 -27.5 -81 -34.5
s-60.833 -10.5 -91.5 -10.5c-28.667 0 -57.334 2.83301 -86.001 8.5s-55.667 14.167 -81 25.5c-3.33301 1.33301 -7.33301 4 -12 8s-7 9.66699 -7 17c0 3.33301 0.333008 6 1 8l17 58c1.33301 6.66699 5 10 11 10c3.33301 0 7 -0.833008 11 -2.5l11 -4.5
c18 -6 38.333 -12.167 61 -18.5s45.667 -9.5 69 -9.5c44 0 76.333 9.66699 97 29s31 45.333 31 78c0 21.333 -4.33301 39 -13 53s-19.5 25 -32.5 33s-27 13.5 -42 16.5s-29.167 4.5 -42.5 4.5h-64z" />
    <glyph glyph-name="afii10026" unicode="&#xc8;" horiz-adv-x="685" 
d="M503 518l-61 -121l-214 -371c-4 -6.66699 -8.33301 -12.667 -13 -18s-10.667 -8 -18 -8h-95c-7.33301 0 -13.5 2.5 -18.5 7.5s-7.5 11.167 -7.5 18.5v622c0 7.33301 2.5 13.5 7.5 18.5s11.167 7.5 18.5 7.5h62c7.33301 0 13.5 -2.5 18.5 -7.5s7.5 -11.167 7.5 -18.5v-207
c0 -26 -0.333008 -56.167 -1 -90.5s-1.66699 -67.5 -3 -99.5l-4 -112h3l62 123l223 386c4 6.66699 8.33301 12.667 13 18s10.667 8 18 8h83c7.33301 0 13.5 -2.5 18.5 -7.5s7.5 -11.167 7.5 -18.5v-622c0 -7.33301 -2.5 -13.5 -7.5 -18.5s-11.167 -7.5 -18.5 -7.5h-62
c-7.33301 0 -13.5 2.5 -18.5 7.5s-7.5 11.167 -7.5 18.5v207c0 36 0.5 70.833 1.5 104.5s2.16699 64.167 3.5 91.5c1.33301 31.333 3 61 5 89h-3z" />
    <glyph glyph-name="afii10026" unicode="&#x418;" horiz-adv-x="685" 
d="M503 518l-61 -121l-214 -371c-4 -6.66699 -8.33301 -12.667 -13 -18s-10.667 -8 -18 -8h-95c-7.33301 0 -13.5 2.5 -18.5 7.5s-7.5 11.167 -7.5 18.5v622c0 7.33301 2.5 13.5 7.5 18.5s11.167 7.5 18.5 7.5h62c7.33301 0 13.5 -2.5 18.5 -7.5s7.5 -11.167 7.5 -18.5v-207
c0 -26 -0.333008 -56.167 -1 -90.5s-1.66699 -67.5 -3 -99.5l-4 -112h3l62 123l223 386c4 6.66699 8.33301 12.667 13 18s10.667 8 18 8h83c7.33301 0 13.5 -2.5 18.5 -7.5s7.5 -11.167 7.5 -18.5v-622c0 -7.33301 -2.5 -13.5 -7.5 -18.5s-11.167 -7.5 -18.5 -7.5h-62
c-7.33301 0 -13.5 2.5 -18.5 7.5s-7.5 11.167 -7.5 18.5v207c0 36 0.5 70.833 1.5 104.5s2.16699 64.167 3.5 91.5c1.33301 31.333 3 61 5 89h-3z" />
    <glyph glyph-name="afii10027" unicode="&#xc9;" horiz-adv-x="685" 
d="M343 703c-19.333 0 -37.501 2 -54.501 6s-31.667 10.333 -44 19s-22.166 19.834 -29.499 33.501s-11 29.834 -11 48.501c0 9.33301 1.33301 15.333 4 18s7 4 13 4h50c9.33301 0 14.833 -1.83301 16.5 -5.5s2.5 -7.5 2.5 -11.5c0 -12 1.66699 -21.833 5 -29.5
s7.66602 -13.667 12.999 -18s11 -7.33301 17 -9s12 -2.5 18 -2.5s12.167 0.833008 18.5 2.5s12 4.66699 17 9s9.16699 10.333 12.5 18s5 17.5 5 29.5c0 4 0.833008 7.83301 2.5 11.5s7.16699 5.5 16.5 5.5h50c6 0 10.333 -1.33301 13 -4s4 -8.66699 4 -18
c0 -18.667 -3.66699 -34.834 -11 -48.501s-17.166 -24.834 -29.499 -33.501s-27 -15 -44 -19s-35.167 -6 -54.5 -6zM502.999 518l-61 -121l-214 -371c-4 -6.66699 -8.33301 -12.667 -13 -18s-10.667 -8 -18 -8h-95c-7.33301 0 -13.5 2.5 -18.5 7.5s-7.5 11.167 -7.5 18.5
v622c0 7.33301 2.5 13.5 7.5 18.5s11.167 7.5 18.5 7.5h62c7.33301 0 13.5 -2.5 18.5 -7.5s7.5 -11.167 7.5 -18.5v-207c0 -26 -0.333008 -56.167 -1 -90.5s-1.66699 -67.5 -3 -99.5l-4 -112h3l62 123l223 386c4 6.66699 8.33301 12.667 13 18s10.667 8 18 8h83
c7.33301 0 13.5 -2.5 18.5 -7.5s7.5 -11.167 7.5 -18.5v-622c0 -7.33301 -2.5 -13.5 -7.5 -18.5s-11.167 -7.5 -18.5 -7.5h-62c-7.33301 0 -13.5 2.5 -18.5 7.5s-7.5 11.167 -7.5 18.5v207c0 36 0.5 70.833 1.5 104.5s2.16699 64.167 3.5 91.5c1.33301 31.333 3 61 5 89h-3z
" />
    <glyph glyph-name="afii10027" unicode="&#x419;" horiz-adv-x="685" 
d="M343 703c-19.333 0 -37.501 2 -54.501 6s-31.667 10.333 -44 19s-22.166 19.834 -29.499 33.501s-11 29.834 -11 48.501c0 9.33301 1.33301 15.333 4 18s7 4 13 4h50c9.33301 0 14.833 -1.83301 16.5 -5.5s2.5 -7.5 2.5 -11.5c0 -12 1.66699 -21.833 5 -29.5
s7.66602 -13.667 12.999 -18s11 -7.33301 17 -9s12 -2.5 18 -2.5s12.167 0.833008 18.5 2.5s12 4.66699 17 9s9.16699 10.333 12.5 18s5 17.5 5 29.5c0 4 0.833008 7.83301 2.5 11.5s7.16699 5.5 16.5 5.5h50c6 0 10.333 -1.33301 13 -4s4 -8.66699 4 -18
c0 -18.667 -3.66699 -34.834 -11 -48.501s-17.166 -24.834 -29.499 -33.501s-27 -15 -44 -19s-35.167 -6 -54.5 -6zM502.999 518l-61 -121l-214 -371c-4 -6.66699 -8.33301 -12.667 -13 -18s-10.667 -8 -18 -8h-95c-7.33301 0 -13.5 2.5 -18.5 7.5s-7.5 11.167 -7.5 18.5
v622c0 7.33301 2.5 13.5 7.5 18.5s11.167 7.5 18.5 7.5h62c7.33301 0 13.5 -2.5 18.5 -7.5s7.5 -11.167 7.5 -18.5v-207c0 -26 -0.333008 -56.167 -1 -90.5s-1.66699 -67.5 -3 -99.5l-4 -112h3l62 123l223 386c4 6.66699 8.33301 12.667 13 18s10.667 8 18 8h83
c7.33301 0 13.5 -2.5 18.5 -7.5s7.5 -11.167 7.5 -18.5v-622c0 -7.33301 -2.5 -13.5 -7.5 -18.5s-11.167 -7.5 -18.5 -7.5h-62c-7.33301 0 -13.5 2.5 -18.5 7.5s-7.5 11.167 -7.5 18.5v207c0 36 0.5 70.833 1.5 104.5s2.16699 64.167 3.5 91.5c1.33301 31.333 3 61 5 89h-3z
" />
    <glyph glyph-name="afii10028" unicode="&#xca;" horiz-adv-x="587" 
d="M197 316v-290c0 -17.333 -8 -26 -24 -26h-73c-16.667 0 -25 8.66699 -25 26v622c0 7.33301 2.16699 13.5 6.5 18.5s10.5 7.5 18.5 7.5h73c7.33301 0 13.166 -2.5 17.499 -7.5s6.5 -11.167 6.5 -18.5v-277h2l201 281c10 14.667 25 22 45 22h79
c13.333 0 20 -3.66699 20 -11c0 -2 -0.666992 -4.16699 -2 -6.5s-2.66602 -4.83301 -3.99902 -7.5l-228 -298l244 -328c2.66699 -3.33301 4 -7.33301 4 -12c0 -7.33301 -6.33301 -11 -19 -11h-85c-13.333 0 -23 2 -29 6s-11.667 9.66699 -17 17l-209 293h-2z" />
    <glyph glyph-name="afii10028" unicode="&#x41a;" horiz-adv-x="587" 
d="M197 316v-290c0 -17.333 -8 -26 -24 -26h-73c-16.667 0 -25 8.66699 -25 26v622c0 7.33301 2.16699 13.5 6.5 18.5s10.5 7.5 18.5 7.5h73c7.33301 0 13.166 -2.5 17.499 -7.5s6.5 -11.167 6.5 -18.5v-277h2l201 281c10 14.667 25 22 45 22h79
c13.333 0 20 -3.66699 20 -11c0 -2 -0.666992 -4.16699 -2 -6.5s-2.66602 -4.83301 -3.99902 -7.5l-228 -298l244 -328c2.66699 -3.33301 4 -7.33301 4 -12c0 -7.33301 -6.33301 -11 -19 -11h-85c-13.333 0 -23 2 -29 6s-11.667 9.66699 -17 17l-209 293h-2z" />
    <glyph glyph-name="afii10029" unicode="&#xcb;" horiz-adv-x="632" 
d="M154 648c0.666992 7.33301 3.33105 13.501 7.99805 18.501s10.667 7.5 18 7.5h344c7.33301 0 13.5 -2.5 18.5 -7.5s7.5 -11.167 7.5 -18.5v-622c0 -7.33301 -2.5 -13.5 -7.5 -18.5s-11.167 -7.5 -18.5 -7.5h-71c-7.33301 0 -13.5 2.5 -18.5 7.5s-7.5 11.167 -7.5 18.5
v547h-155l-10 -246c-2 -55.333 -6.33301 -103.666 -13 -144.999s-18.167 -76 -34.5 -104s-39 -49.333 -68 -64s-66.833 -22.334 -113.5 -23.001c-3.33301 0 -7.16602 0.833008 -11.499 2.5s-7.16602 6.16699 -8.49902 13.5l-6 44
c-0.666992 4.66699 -1.16699 8.66699 -1.5 12s-0.5 5.66602 -0.5 6.99902c0 8 2.83301 13.167 8.5 15.5s10.167 3.83301 13.5 4.5c25.333 4 45.333 12.5 60 25.5s25.667 30.333 33 52s12.333 47.667 15 78s4.66699 64.833 6 103.5z" />
    <glyph glyph-name="afii10029" unicode="&#x41b;" horiz-adv-x="632" 
d="M154 648c0.666992 7.33301 3.33105 13.501 7.99805 18.501s10.667 7.5 18 7.5h344c7.33301 0 13.5 -2.5 18.5 -7.5s7.5 -11.167 7.5 -18.5v-622c0 -7.33301 -2.5 -13.5 -7.5 -18.5s-11.167 -7.5 -18.5 -7.5h-71c-7.33301 0 -13.5 2.5 -18.5 7.5s-7.5 11.167 -7.5 18.5
v547h-155l-10 -246c-2 -55.333 -6.33301 -103.666 -13 -144.999s-18.167 -76 -34.5 -104s-39 -49.333 -68 -64s-66.833 -22.334 -113.5 -23.001c-3.33301 0 -7.16602 0.833008 -11.499 2.5s-7.16602 6.16699 -8.49902 13.5l-6 44
c-0.666992 4.66699 -1.16699 8.66699 -1.5 12s-0.5 5.66602 -0.5 6.99902c0 8 2.83301 13.167 8.5 15.5s10.167 3.83301 13.5 4.5c25.333 4 45.333 12.5 60 25.5s25.667 30.333 33 52s12.333 47.667 15 78s4.66699 64.833 6 103.5z" />
    <glyph glyph-name="afii10030" unicode="&#xcc;" horiz-adv-x="837" 
d="M380 311c4.66699 -14.667 9.16797 -30.334 13.501 -47.001s8.16602 -32 11.499 -46c4 -16.667 7.66699 -33 11 -49h3l12 49c3.33301 14 7.16602 29.167 11.499 45.5s9.16602 31.5 14.499 45.5l115 343c3.33301 8 6.83301 13.667 10.5 17s10.167 5 19.5 5h113
c16 0 24.333 -7.33301 25 -22l35 -605c0.666992 -6.66699 1.16699 -13.334 1.5 -20.001s0.5 -10.334 0.5 -11.001c0 -7.33301 -2.16699 -11.833 -6.5 -13.5s-9.5 -2.5 -15.5 -2.5h-74c-9.33301 0 -15.666 2.16699 -18.999 6.5s-5 9.16602 -5 14.499l-12 246
c-2 39.333 -3.5 76.5 -4.5 111.5s-1.83301 65.833 -2.5 92.5c-0.666992 31.333 -1 60.333 -1 87h-3l-167 -523c-2.66699 -7.33301 -6 -13.666 -10 -18.999s-10.333 -8 -19 -8h-55c-7.33301 0 -13.833 1.83301 -19.5 5.5s-10.167 11.167 -13.5 22.5l-149 522h-2
c-1.33301 -44 -2.66602 -91.333 -3.99902 -142s-3.33301 -99 -6 -145l-14 -250c-0.666992 -5.33301 -2.5 -10.166 -5.5 -14.499s-9.16699 -6.5 -18.5 -6.5h-69c-6 0 -11.167 0.833008 -15.5 2.5s-6.5 6.16699 -6.5 13.5c0 0.666992 0.166992 3.83398 0.5 9.50098
s0.833008 11.834 1.5 18.501l41 608c0.666992 14.667 9 22 25 22h115c9.33301 0 16 -1.66699 20 -5s7.33301 -9 10 -17z" />
    <glyph glyph-name="afii10030" unicode="&#x41c;" horiz-adv-x="837" 
d="M380 311c4.66699 -14.667 9.16797 -30.334 13.501 -47.001s8.16602 -32 11.499 -46c4 -16.667 7.66699 -33 11 -49h3l12 49c3.33301 14 7.16602 29.167 11.499 45.5s9.16602 31.5 14.499 45.5l115 343c3.33301 8 6.83301 13.667 10.5 17s10.167 5 19.5 5h113
c16 0 24.333 -7.33301 25 -22l35 -605c0.666992 -6.66699 1.16699 -13.334 1.5 -20.001s0.5 -10.334 0.5 -11.001c0 -7.33301 -2.16699 -11.833 -6.5 -13.5s-9.5 -2.5 -15.5 -2.5h-74c-9.33301 0 -15.666 2.16699 -18.999 6.5s-5 9.16602 -5 14.499l-12 246
c-2 39.333 -3.5 76.5 -4.5 111.5s-1.83301 65.833 -2.5 92.5c-0.666992 31.333 -1 60.333 -1 87h-3l-167 -523c-2.66699 -7.33301 -6 -13.666 -10 -18.999s-10.333 -8 -19 -8h-55c-7.33301 0 -13.833 1.83301 -19.5 5.5s-10.167 11.167 -13.5 22.5l-149 522h-2
c-1.33301 -44 -2.66602 -91.333 -3.99902 -142s-3.33301 -99 -6 -145l-14 -250c-0.666992 -5.33301 -2.5 -10.166 -5.5 -14.499s-9.16699 -6.5 -18.5 -6.5h-69c-6 0 -11.167 0.833008 -15.5 2.5s-6.5 6.16699 -6.5 13.5c0 0.666992 0.166992 3.83398 0.5 9.50098
s0.833008 11.834 1.5 18.501l41 608c0.666992 14.667 9 22 25 22h115c9.33301 0 16 -1.66699 20 -5s7.33301 -9 10 -17z" />
    <glyph glyph-name="afii10031" unicode="&#xcd;" horiz-adv-x="672" 
d="M199 26c0 -7.33301 -2.5 -13.5 -7.5 -18.5s-11.167 -7.5 -18.5 -7.5h-71c-7.33301 0 -13.5 2.5 -18.5 7.5s-7.5 11.167 -7.5 18.5v622c0 7.33301 2.5 13.5 7.5 18.5s11.167 7.5 18.5 7.5h71c7.33301 0 13.5 -2.5 18.5 -7.5s7.5 -11.167 7.5 -18.5v-244h275v244
c0 7.33301 2.5 13.5 7.5 18.5s11.167 7.5 18.5 7.5h71c7.33301 0 13.5 -2.5 18.5 -7.5s7.5 -11.167 7.5 -18.5v-622c0 -7.33301 -2.5 -13.5 -7.5 -18.5s-11.167 -7.5 -18.5 -7.5h-71c-7.33301 0 -13.5 2.5 -18.5 7.5s-7.5 11.167 -7.5 18.5v271h-275v-271z" />
    <glyph glyph-name="afii10031" unicode="&#x41d;" horiz-adv-x="672" 
d="M199 26c0 -7.33301 -2.5 -13.5 -7.5 -18.5s-11.167 -7.5 -18.5 -7.5h-71c-7.33301 0 -13.5 2.5 -18.5 7.5s-7.5 11.167 -7.5 18.5v622c0 7.33301 2.5 13.5 7.5 18.5s11.167 7.5 18.5 7.5h71c7.33301 0 13.5 -2.5 18.5 -7.5s7.5 -11.167 7.5 -18.5v-244h275v244
c0 7.33301 2.5 13.5 7.5 18.5s11.167 7.5 18.5 7.5h71c7.33301 0 13.5 -2.5 18.5 -7.5s7.5 -11.167 7.5 -18.5v-622c0 -7.33301 -2.5 -13.5 -7.5 -18.5s-11.167 -7.5 -18.5 -7.5h-71c-7.33301 0 -13.5 2.5 -18.5 7.5s-7.5 11.167 -7.5 18.5v271h-275v-271z" />
    <glyph glyph-name="afii10032" unicode="&#xce;" horiz-adv-x="714" 
d="M352 -11c-48 0 -91.168 8.6709 -129.501 26.0039s-71 41.166 -98 71.499s-47.667 66.5 -62 108.5s-21.5 87.667 -21.5 137c0 51.333 7.83301 98.666 23.5 141.999s37.667 80.666 66 111.999s62.166 55.666 101.499 72.999s82.666 26 129.999 26
c48.667 0 92.334 -8.83301 131.001 -26.5s71.5 -41.667 98.5 -72s47.5 -66.333 61.5 -108s21 -86.5 21 -134.5c0 -56.667 -8.16699 -107 -24.5 -151s-38.666 -81.167 -66.999 -111.5s-62.166 -53.333 -101.499 -69s-82 -23.5 -128 -23.5h-1zM357.999 88.0039
c30 0 56.499 6.49902 79.499 19.499s42.333 30.667 58 53s27.667 48.833 36 79.5s12.5 63.667 12.5 99c0 32 -4 62.833 -12 92.5s-19.667 56 -35 79s-34.666 41.333 -57.999 55s-50.333 20.5 -81 20.5s-57.667 -6.83301 -81 -20.5s-42.833 -32 -58.5 -55
s-27.5 -49.667 -35.5 -80s-12 -62.166 -12 -95.499s4.16699 -65 12.5 -95s20.5 -56.333 36.5 -79s35.5 -40.5 58.5 -53.5s49.167 -19.5 78.5 -19.5h1z" />
    <glyph glyph-name="afii10032" unicode="&#x41e;" horiz-adv-x="714" 
d="M352 -11c-48 0 -91.168 8.6709 -129.501 26.0039s-71 41.166 -98 71.499s-47.667 66.5 -62 108.5s-21.5 87.667 -21.5 137c0 51.333 7.83301 98.666 23.5 141.999s37.667 80.666 66 111.999s62.166 55.666 101.499 72.999s82.666 26 129.999 26
c48.667 0 92.334 -8.83301 131.001 -26.5s71.5 -41.667 98.5 -72s47.5 -66.333 61.5 -108s21 -86.5 21 -134.5c0 -56.667 -8.16699 -107 -24.5 -151s-38.666 -81.167 -66.999 -111.5s-62.166 -53.333 -101.499 -69s-82 -23.5 -128 -23.5h-1zM357.999 88.0039
c30 0 56.499 6.49902 79.499 19.499s42.333 30.667 58 53s27.667 48.833 36 79.5s12.5 63.667 12.5 99c0 32 -4 62.833 -12 92.5s-19.667 56 -35 79s-34.666 41.333 -57.999 55s-50.333 20.5 -81 20.5s-57.667 -6.83301 -81 -20.5s-42.833 -32 -58.5 -55
s-27.5 -49.667 -35.5 -80s-12 -62.166 -12 -95.499s4.16699 -65 12.5 -95s20.5 -56.333 36.5 -79s35.5 -40.5 58.5 -53.5s49.167 -19.5 78.5 -19.5h1z" />
    <glyph glyph-name="afii10033" unicode="&#xcf;" horiz-adv-x="659" 
d="M557 674c7.33301 0 13.5 -2.5 18.5 -7.5s7.5 -11.167 7.5 -18.5v-622c0 -7.33301 -2.5 -13.5 -7.5 -18.5s-11.167 -7.5 -18.5 -7.5h-71c-7.33301 0 -13.5 2.5 -18.5 7.5s-7.5 11.167 -7.5 18.5v547h-261v-547c0 -7.33301 -2.5 -13.5 -7.5 -18.5s-11.167 -7.5 -18.5 -7.5
h-71c-7.33301 0 -13.5 2.5 -18.5 7.5s-7.5 11.167 -7.5 18.5v622c0 7.33301 2.5 13.5 7.5 18.5s11.167 7.5 18.5 7.5h455z" />
    <glyph glyph-name="afii10033" unicode="&#x41f;" horiz-adv-x="659" 
d="M557 674c7.33301 0 13.5 -2.5 18.5 -7.5s7.5 -11.167 7.5 -18.5v-622c0 -7.33301 -2.5 -13.5 -7.5 -18.5s-11.167 -7.5 -18.5 -7.5h-71c-7.33301 0 -13.5 2.5 -18.5 7.5s-7.5 11.167 -7.5 18.5v547h-261v-547c0 -7.33301 -2.5 -13.5 -7.5 -18.5s-11.167 -7.5 -18.5 -7.5
h-71c-7.33301 0 -13.5 2.5 -18.5 7.5s-7.5 11.167 -7.5 18.5v622c0 7.33301 2.5 13.5 7.5 18.5s11.167 7.5 18.5 7.5h455z" />
    <glyph glyph-name="afii10034" unicode="&#xd0;" horiz-adv-x="569" 
d="M198 26c0 -7.33301 -2.33301 -13.5 -7 -18.5s-10.667 -7.5 -18 -7.5h-71c-7.33301 0 -13.5 2.5 -18.5 7.5s-7.5 11.167 -7.5 18.5v597c0 12.667 2.5 21.834 7.5 27.501s10.5 9.16699 16.5 10.5c24.667 5.33301 52 9.66602 82 12.999s58.667 5 86 5
c36.667 0 70.834 -3.5 102.501 -10.5s59.167 -18.5 82.5 -34.5s41.666 -37 54.999 -63s20 -58 20 -96s-6.83301 -71 -20.5 -99s-32.5 -51.333 -56.5 -70s-52.5 -32.667 -85.5 -42s-68.833 -14 -107.5 -14h-60v-224zM258 346c46 0 82.165 10.835 108.498 32.502
s39.5 52.167 39.5 91.5c0 37.333 -12.167 65.666 -36.5 84.999s-57.833 29 -100.5 29c-17.333 0 -31.666 -0.833008 -42.999 -2.5s-20.666 -3.83398 -27.999 -6.50098v-229h60z" />
    <glyph glyph-name="afii10034" unicode="&#x420;" horiz-adv-x="569" 
d="M198 26c0 -7.33301 -2.33301 -13.5 -7 -18.5s-10.667 -7.5 -18 -7.5h-71c-7.33301 0 -13.5 2.5 -18.5 7.5s-7.5 11.167 -7.5 18.5v597c0 12.667 2.5 21.834 7.5 27.501s10.5 9.16699 16.5 10.5c24.667 5.33301 52 9.66602 82 12.999s58.667 5 86 5
c36.667 0 70.834 -3.5 102.501 -10.5s59.167 -18.5 82.5 -34.5s41.666 -37 54.999 -63s20 -58 20 -96s-6.83301 -71 -20.5 -99s-32.5 -51.333 -56.5 -70s-52.5 -32.667 -85.5 -42s-68.833 -14 -107.5 -14h-60v-224zM258 346c46 0 82.165 10.835 108.498 32.502
s39.5 52.167 39.5 91.5c0 37.333 -12.167 65.666 -36.5 84.999s-57.833 29 -100.5 29c-17.333 0 -31.666 -0.833008 -42.999 -2.5s-20.666 -3.83398 -27.999 -6.50098v-229h60z" />
    <glyph glyph-name="afii10035" unicode="&#xd1;" horiz-adv-x="598" 
d="M384 -10c-53.333 0 -101.332 7.99805 -143.999 23.998s-78.834 38.833 -108.501 68.5s-52.334 65.334 -68.001 107.001s-23.5 88.167 -23.5 139.5c0 55.333 9.16699 105 27.5 149s43.666 81.167 75.999 111.5s70.5 53.666 114.5 69.999s91.667 24.5 143 24.5
c31.333 0 57.833 -1.83301 79.5 -5.5s42.167 -8.5 61.5 -14.5c6 -2 11 -4.5 15 -7.5s6 -7.16699 6 -12.5c0 -3.33301 -1.33301 -8.33301 -4 -15l-17 -54c-2.66699 -7.33301 -7.66699 -11 -15 -11c-3.33301 0 -6.33301 0.333008 -9 1s-5.66699 1.66699 -9 3
c-15.333 4.66699 -30.5 8.33398 -45.5 11.001s-34.167 4 -57.5 4c-34 0 -65.5 -5.33301 -94.5 -16s-54 -26.5 -75 -47.5s-37.333 -46.833 -49 -77.5s-17.5 -66.334 -17.5 -107.001c0 -37.333 5.33301 -70.833 16 -100.5s26 -55 46 -76s44.5 -37.167 73.5 -48.5
s62.167 -17 99.5 -17c34.667 0 69.667 4.66699 105 14c3.33301 1.33301 6.5 2.33301 9.5 3s6.16699 1 9.5 1c8.66699 0 14 -4 16 -12l12 -55c0.666992 -2 1 -4.33301 1 -7v-5c0 -5.33301 -1.83301 -9.66602 -5.5 -12.999s-8.16699 -5.66602 -13.5 -6.99902
c-17.333 -5.33301 -38.666 -10.333 -63.999 -15s-55.666 -7 -90.999 -7z" />
    <glyph glyph-name="afii10035" unicode="&#x421;" horiz-adv-x="598" 
d="M384 -10c-53.333 0 -101.332 7.99805 -143.999 23.998s-78.834 38.833 -108.501 68.5s-52.334 65.334 -68.001 107.001s-23.5 88.167 -23.5 139.5c0 55.333 9.16699 105 27.5 149s43.666 81.167 75.999 111.5s70.5 53.666 114.5 69.999s91.667 24.5 143 24.5
c31.333 0 57.833 -1.83301 79.5 -5.5s42.167 -8.5 61.5 -14.5c6 -2 11 -4.5 15 -7.5s6 -7.16699 6 -12.5c0 -3.33301 -1.33301 -8.33301 -4 -15l-17 -54c-2.66699 -7.33301 -7.66699 -11 -15 -11c-3.33301 0 -6.33301 0.333008 -9 1s-5.66699 1.66699 -9 3
c-15.333 4.66699 -30.5 8.33398 -45.5 11.001s-34.167 4 -57.5 4c-34 0 -65.5 -5.33301 -94.5 -16s-54 -26.5 -75 -47.5s-37.333 -46.833 -49 -77.5s-17.5 -66.334 -17.5 -107.001c0 -37.333 5.33301 -70.833 16 -100.5s26 -55 46 -76s44.5 -37.167 73.5 -48.5
s62.167 -17 99.5 -17c34.667 0 69.667 4.66699 105 14c3.33301 1.33301 6.5 2.33301 9.5 3s6.16699 1 9.5 1c8.66699 0 14 -4 16 -12l12 -55c0.666992 -2 1 -4.33301 1 -7v-5c0 -5.33301 -1.83301 -9.66602 -5.5 -12.999s-8.16699 -5.66602 -13.5 -6.99902
c-17.333 -5.33301 -38.666 -10.333 -63.999 -15s-55.666 -7 -90.999 -7z" />
    <glyph glyph-name="afii10036" unicode="&#xd2;" horiz-adv-x="549" 
d="M335 26c0 -7.33301 -2.50098 -13.501 -7.50098 -18.501s-11.167 -7.5 -18.5 -7.5h-71c-7.33301 0 -13.5 2.5 -18.5 7.5s-7.5 11.167 -7.5 18.5v545h-166c-7.33301 0 -13.5 2.5 -18.5 7.5s-7.5 11.167 -7.5 18.5v51c0 7.33301 2.5 13.5 7.5 18.5s11.167 7.5 18.5 7.5h468
c6.66699 0 11.834 -2.16699 15.501 -6.5s5.5 -9.83301 5.5 -16.5c0 -1.33301 -0.166992 -3.5 -0.5 -6.5s-0.833008 -6.16699 -1.5 -9.5l-6 -40c-1.33301 -7.33301 -4.33301 -13.166 -9 -17.499s-10.667 -6.5 -18 -6.5h-165v-545z" />
    <glyph glyph-name="afii10036" unicode="&#x422;" horiz-adv-x="549" 
d="M335 26c0 -7.33301 -2.50098 -13.501 -7.50098 -18.501s-11.167 -7.5 -18.5 -7.5h-71c-7.33301 0 -13.5 2.5 -18.5 7.5s-7.5 11.167 -7.5 18.5v545h-166c-7.33301 0 -13.5 2.5 -18.5 7.5s-7.5 11.167 -7.5 18.5v51c0 7.33301 2.5 13.5 7.5 18.5s11.167 7.5 18.5 7.5h468
c6.66699 0 11.834 -2.16699 15.501 -6.5s5.5 -9.83301 5.5 -16.5c0 -1.33301 -0.166992 -3.5 -0.5 -6.5s-0.833008 -6.16699 -1.5 -9.5l-6 -40c-1.33301 -7.33301 -4.33301 -13.166 -9 -17.499s-10.667 -6.5 -18 -6.5h-165v-545z" />
    <glyph glyph-name="afii10037" unicode="&#xd3;" horiz-adv-x="568" 
d="M138 -14c-8 0 -15.665 0.334961 -22.998 1.00195s-13.666 1.66699 -18.999 3c-3.33301 1.33301 -7.66602 3.16602 -12.999 5.49902s-8 6.16602 -8 11.499v7c0 4.66699 0.333008 8.66699 1 12l5 47c0.666992 7.33301 2.5 12 5.5 14s5.83301 3 8.5 3h32
c15.333 0 28.666 1.5 39.999 4.5s21.5 7.83301 30.5 14.5s17.667 15.667 26 27s17.166 25.333 26.499 42l-227 468c-1.33301 3.33301 -2.16602 5.83301 -2.49902 7.5s-0.5 2.83398 -0.5 3.50098c0 6.66699 5.33301 11.334 16 14.001l70 16c4 1.33301 7.66699 2 11 2h7
c7.33301 0 12.833 -1.83301 16.5 -5.5s6.16699 -7.16699 7.5 -10.5l160 -381h3l120 361c1.33301 5.33301 4.5 10.166 9.5 14.499s12.167 6.5 21.5 6.5h77c14.667 0 22 -4.66699 22 -14c0 -2 -0.666992 -5 -2 -9l-144 -376c-14 -37.333 -28.333 -73.333 -43 -108
s-32.334 -65.334 -53.001 -92.001s-45.334 -48.167 -74.001 -64.5s-64.334 -24.5 -107.001 -24.5z" />
    <glyph glyph-name="afii10037" unicode="&#x423;" horiz-adv-x="568" 
d="M138 -14c-8 0 -15.665 0.334961 -22.998 1.00195s-13.666 1.66699 -18.999 3c-3.33301 1.33301 -7.66602 3.16602 -12.999 5.49902s-8 6.16602 -8 11.499v7c0 4.66699 0.333008 8.66699 1 12l5 47c0.666992 7.33301 2.5 12 5.5 14s5.83301 3 8.5 3h32
c15.333 0 28.666 1.5 39.999 4.5s21.5 7.83301 30.5 14.5s17.667 15.667 26 27s17.166 25.333 26.499 42l-227 468c-1.33301 3.33301 -2.16602 5.83301 -2.49902 7.5s-0.5 2.83398 -0.5 3.50098c0 6.66699 5.33301 11.334 16 14.001l70 16c4 1.33301 7.66699 2 11 2h7
c7.33301 0 12.833 -1.83301 16.5 -5.5s6.16699 -7.16699 7.5 -10.5l160 -381h3l120 361c1.33301 5.33301 4.5 10.166 9.5 14.499s12.167 6.5 21.5 6.5h77c14.667 0 22 -4.66699 22 -14c0 -2 -0.666992 -5 -2 -9l-144 -376c-14 -37.333 -28.333 -73.333 -43 -108
s-32.334 -65.334 -53.001 -92.001s-45.334 -48.167 -74.001 -64.5s-64.334 -24.5 -107.001 -24.5z" />
    <glyph glyph-name="afii10038" unicode="&#xd4;" horiz-adv-x="770" 
d="M442 -9c0 -7.33301 -2.49805 -13.499 -7.49805 -18.499s-11.167 -7.5 -18.5 -7.5h-64c-7.33301 0 -13.5 2.5 -18.5 7.5s-7.5 11.167 -7.5 18.5v78c-36 2.66699 -71.167 10 -105.5 22s-64.833 29.333 -91.5 52s-48.167 51.334 -64.5 86.001s-24.5 75.667 -24.5 123
c0 48 8.83301 89 26.5 123s40.5 62.333 68.5 85s59 39.667 93 51s67.333 18.333 100 21v62c0 7.33301 2.5 13.5 7.5 18.5s11.167 7.5 18.5 7.5h64c7.33301 0 13.5 -2.5 18.5 -7.5s7.5 -11.167 7.5 -18.5v-62c36 -2 71 -8.83301 105 -20.5s64.5 -28.667 91.5 -51
s48.667 -50.333 65 -84s24.5 -73.834 24.5 -120.501c0 -47.333 -8.16699 -88.333 -24.5 -123s-37.833 -63.667 -64.5 -87s-57.334 -41.333 -92.001 -54s-70.334 -20.334 -107.001 -23.001v-78zM327.002 547.001c-18 -2 -36.498 -6.33203 -55.498 -12.999
s-36.5 -17.334 -52.5 -32.001s-29 -34 -39 -58s-15 -53.667 -15 -89c0 -34 4.83301 -63.167 14.5 -87.5s22.167 -44.5 37.5 -60.5s32.666 -28.167 51.999 -36.5s38.666 -13.5 57.999 -15.5v392zM443.004 155.002c18.667 2 37.6641 6.8291 56.9971 14.4961
s36.833 19.334 52.5 35.001s28.334 35.834 38.001 60.501s14.5 55 14.5 91c0 35.333 -4.66699 64.833 -14 88.5s-21.666 42.834 -36.999 57.501s-32.666 25.334 -51.999 32.001s-39 11 -59 13v-392z" />
    <glyph glyph-name="afii10038" unicode="&#x424;" horiz-adv-x="770" 
d="M442 -9c0 -7.33301 -2.49805 -13.499 -7.49805 -18.499s-11.167 -7.5 -18.5 -7.5h-64c-7.33301 0 -13.5 2.5 -18.5 7.5s-7.5 11.167 -7.5 18.5v78c-36 2.66699 -71.167 10 -105.5 22s-64.833 29.333 -91.5 52s-48.167 51.334 -64.5 86.001s-24.5 75.667 -24.5 123
c0 48 8.83301 89 26.5 123s40.5 62.333 68.5 85s59 39.667 93 51s67.333 18.333 100 21v62c0 7.33301 2.5 13.5 7.5 18.5s11.167 7.5 18.5 7.5h64c7.33301 0 13.5 -2.5 18.5 -7.5s7.5 -11.167 7.5 -18.5v-62c36 -2 71 -8.83301 105 -20.5s64.5 -28.667 91.5 -51
s48.667 -50.333 65 -84s24.5 -73.834 24.5 -120.501c0 -47.333 -8.16699 -88.333 -24.5 -123s-37.833 -63.667 -64.5 -87s-57.334 -41.333 -92.001 -54s-70.334 -20.334 -107.001 -23.001v-78zM327.002 547.001c-18 -2 -36.498 -6.33203 -55.498 -12.999
s-36.5 -17.334 -52.5 -32.001s-29 -34 -39 -58s-15 -53.667 -15 -89c0 -34 4.83301 -63.167 14.5 -87.5s22.167 -44.5 37.5 -60.5s32.666 -28.167 51.999 -36.5s38.666 -13.5 57.999 -15.5v392zM443.004 155.002c18.667 2 37.6641 6.8291 56.9971 14.4961
s36.833 19.334 52.5 35.001s28.334 35.834 38.001 60.501s14.5 55 14.5 91c0 35.333 -4.66699 64.833 -14 88.5s-21.666 42.834 -36.999 57.501s-32.666 25.334 -51.999 32.001s-39 11 -59 13v-392z" />
    <glyph glyph-name="afii10039" unicode="&#xd5;" horiz-adv-x="604" 
d="M564 25c2 -4 2.99805 -7.66895 2.99805 -11.002c0 -9.33301 -7 -14 -21 -14h-90c-9.33301 0 -16.166 2.33301 -20.499 7s-7.83301 9.33398 -10.5 14.001l-129 240h-2l-118 -241c-2 -4.66699 -5.16699 -9.16699 -9.5 -13.5s-11.166 -6.5 -20.499 -6.5h-88
c-14 0 -21 4.66699 -21 14v5c0 2 0.666992 3.66699 2 5l186 317l-179 309c-1.33301 1.33301 -2 3 -2 5v5c0 9.33301 7 14 21 14h89c9.33301 0 16.333 -2.5 21 -7.5s8 -9.83301 10 -14.5l117 -230h3l115 231c2 4.66699 5.33301 9.33398 10 14.001s11.667 7 21 7h87
c14 0 21 -4.66699 21 -14v-5c0 -1.33301 -0.666992 -3 -2 -5l-183 -305z" />
    <glyph glyph-name="afii10039" unicode="&#x425;" horiz-adv-x="604" 
d="M564 25c2 -4 2.99805 -7.66895 2.99805 -11.002c0 -9.33301 -7 -14 -21 -14h-90c-9.33301 0 -16.166 2.33301 -20.499 7s-7.83301 9.33398 -10.5 14.001l-129 240h-2l-118 -241c-2 -4.66699 -5.16699 -9.16699 -9.5 -13.5s-11.166 -6.5 -20.499 -6.5h-88
c-14 0 -21 4.66699 -21 14v5c0 2 0.666992 3.66699 2 5l186 317l-179 309c-1.33301 1.33301 -2 3 -2 5v5c0 9.33301 7 14 21 14h89c9.33301 0 16.333 -2.5 21 -7.5s8 -9.83301 10 -14.5l117 -230h3l115 231c2 4.66699 5.33301 9.33398 10 14.001s11.667 7 21 7h87
c14 0 21 -4.66699 21 -14v-5c0 -1.33301 -0.666992 -3 -2 -5l-183 -305z" />
    <glyph glyph-name="afii10040" unicode="&#xd6;" horiz-adv-x="683" 
d="M533 0h-431c-7.33301 0 -13.5 2.5 -18.5 7.5s-7.5 11.167 -7.5 18.5v622c0 7.33301 2.5 13.5 7.5 18.5s11.167 7.5 18.5 7.5h71c7.33301 0 13.5 -2.5 18.5 -7.5s7.5 -11.167 7.5 -18.5v-547h261v547c0 7.33301 2.5 13.5 7.5 18.5s11.167 7.5 18.5 7.5h71
c7.33301 0 13.5 -2.5 18.5 -7.5s7.5 -11.167 7.5 -18.5v-547h39c7.33301 0 13.5 -2.5 18.5 -7.5s7.5 -11.167 7.5 -18.5v-211c0 -7.33301 -2.5 -13.5 -7.5 -18.5s-11.167 -7.5 -18.5 -7.5h-63c-7.33301 0 -13.5 2.5 -18.5 7.5s-7.5 11.167 -7.5 18.5v136z" />
    <glyph glyph-name="afii10040" unicode="&#x426;" horiz-adv-x="683" 
d="M533 0h-431c-7.33301 0 -13.5 2.5 -18.5 7.5s-7.5 11.167 -7.5 18.5v622c0 7.33301 2.5 13.5 7.5 18.5s11.167 7.5 18.5 7.5h71c7.33301 0 13.5 -2.5 18.5 -7.5s7.5 -11.167 7.5 -18.5v-547h261v547c0 7.33301 2.5 13.5 7.5 18.5s11.167 7.5 18.5 7.5h71
c7.33301 0 13.5 -2.5 18.5 -7.5s7.5 -11.167 7.5 -18.5v-547h39c7.33301 0 13.5 -2.5 18.5 -7.5s7.5 -11.167 7.5 -18.5v-211c0 -7.33301 -2.5 -13.5 -7.5 -18.5s-11.167 -7.5 -18.5 -7.5h-63c-7.33301 0 -13.5 2.5 -18.5 7.5s-7.5 11.167 -7.5 18.5v136z" />
    <glyph glyph-name="afii10041" unicode="&#xd7;" horiz-adv-x="632" 
d="M433 278l-3 0.000976562c-23.333 -12.667 -47.666 -22.167 -72.999 -28.5s-52.666 -9.5 -81.999 -9.5c-26.667 0 -52.334 3.5 -77.001 10.5s-46.5 18.667 -65.5 35s-34.167 37.666 -45.5 63.999s-17 58.833 -17 97.5v201c0 7.33301 2.5 13.5 7.5 18.5
s11.167 7.5 18.5 7.5h71c7.33301 0 13.5 -2.5 18.5 -7.5s7.5 -11.167 7.5 -18.5v-181c0 -42 10.667 -73.833 32 -95.5s52.666 -32.5 93.999 -32.5c20 0 40 2.83301 60 8.5s38 13.167 54 22.5v278c0 7.33301 2.5 13.5 7.5 18.5s11.167 7.5 18.5 7.5h71
c7.33301 0 13.5 -2.5 18.5 -7.5s7.5 -11.167 7.5 -18.5v-622c0 -7.33301 -2.5 -13.5 -7.5 -18.5s-11.167 -7.5 -18.5 -7.5h-71c-7.33301 0 -13.5 2.5 -18.5 7.5s-7.5 11.167 -7.5 18.5v252z" />
    <glyph glyph-name="afii10041" unicode="&#x427;" horiz-adv-x="632" 
d="M433 278l-3 0.000976562c-23.333 -12.667 -47.666 -22.167 -72.999 -28.5s-52.666 -9.5 -81.999 -9.5c-26.667 0 -52.334 3.5 -77.001 10.5s-46.5 18.667 -65.5 35s-34.167 37.666 -45.5 63.999s-17 58.833 -17 97.5v201c0 7.33301 2.5 13.5 7.5 18.5
s11.167 7.5 18.5 7.5h71c7.33301 0 13.5 -2.5 18.5 -7.5s7.5 -11.167 7.5 -18.5v-181c0 -42 10.667 -73.833 32 -95.5s52.666 -32.5 93.999 -32.5c20 0 40 2.83301 60 8.5s38 13.167 54 22.5v278c0 7.33301 2.5 13.5 7.5 18.5s11.167 7.5 18.5 7.5h71
c7.33301 0 13.5 -2.5 18.5 -7.5s7.5 -11.167 7.5 -18.5v-622c0 -7.33301 -2.5 -13.5 -7.5 -18.5s-11.167 -7.5 -18.5 -7.5h-71c-7.33301 0 -13.5 2.5 -18.5 7.5s-7.5 11.167 -7.5 18.5v252z" />
    <glyph glyph-name="afii10042" unicode="&#xd8;" horiz-adv-x="881" 
d="M380 648c0 7.33301 2.5 13.5 7.5 18.5s11.167 7.5 18.5 7.5h69c7.33301 0 13.5 -2.5 18.5 -7.5s7.5 -11.167 7.5 -18.5v-547h184v547c0 7.33301 2.5 13.5 7.5 18.5s11.167 7.5 18.5 7.5h69c7.33301 0 13.5 -2.5 18.5 -7.5s7.5 -11.167 7.5 -18.5v-622
c0 -7.33301 -2.5 -13.5 -7.5 -18.5s-11.167 -7.5 -18.5 -7.5h-678c-7.33301 0 -13.5 2.5 -18.5 7.5s-7.5 11.167 -7.5 18.5v622c0 7.33301 2.5 13.5 7.5 18.5s11.167 7.5 18.5 7.5h69c7.33301 0 13.5 -2.5 18.5 -7.5s7.5 -11.167 7.5 -18.5v-547h183v547z" />
    <glyph glyph-name="afii10042" unicode="&#x428;" horiz-adv-x="881" 
d="M380 648c0 7.33301 2.5 13.5 7.5 18.5s11.167 7.5 18.5 7.5h69c7.33301 0 13.5 -2.5 18.5 -7.5s7.5 -11.167 7.5 -18.5v-547h184v547c0 7.33301 2.5 13.5 7.5 18.5s11.167 7.5 18.5 7.5h69c7.33301 0 13.5 -2.5 18.5 -7.5s7.5 -11.167 7.5 -18.5v-622
c0 -7.33301 -2.5 -13.5 -7.5 -18.5s-11.167 -7.5 -18.5 -7.5h-678c-7.33301 0 -13.5 2.5 -18.5 7.5s-7.5 11.167 -7.5 18.5v622c0 7.33301 2.5 13.5 7.5 18.5s11.167 7.5 18.5 7.5h69c7.33301 0 13.5 -2.5 18.5 -7.5s7.5 -11.167 7.5 -18.5v-547h183v547z" />
    <glyph glyph-name="afii10043" unicode="&#xd9;" horiz-adv-x="906" 
d="M806 101h39c7.33301 0 13.5 -2.5 18.5 -7.5s7.5 -11.167 7.5 -18.5v-211c0 -7.33301 -2.5 -13.5 -7.5 -18.5s-11.167 -7.5 -18.5 -7.5h-63c-7.33301 0 -13.5 2.5 -18.5 7.5s-7.5 11.167 -7.5 18.5v136h-654c-7.33301 0 -13.5 2.5 -18.5 7.5s-7.5 11.167 -7.5 18.5v622
c0 7.33301 2.5 13.5 7.5 18.5s11.167 7.5 18.5 7.5h69c7.33301 0 13.5 -2.5 18.5 -7.5s7.5 -11.167 7.5 -18.5v-547h183v547c0 7.33301 2.5 13.5 7.5 18.5s11.167 7.5 18.5 7.5h69c7.33301 0 13.5 -2.5 18.5 -7.5s7.5 -11.167 7.5 -18.5v-547h184v547
c0 7.33301 2.5 13.5 7.5 18.5s11.167 7.5 18.5 7.5h69c7.33301 0 13.5 -2.5 18.5 -7.5s7.5 -11.167 7.5 -18.5v-547z" />
    <glyph glyph-name="afii10043" unicode="&#x429;" horiz-adv-x="906" 
d="M806 101h39c7.33301 0 13.5 -2.5 18.5 -7.5s7.5 -11.167 7.5 -18.5v-211c0 -7.33301 -2.5 -13.5 -7.5 -18.5s-11.167 -7.5 -18.5 -7.5h-63c-7.33301 0 -13.5 2.5 -18.5 7.5s-7.5 11.167 -7.5 18.5v136h-654c-7.33301 0 -13.5 2.5 -18.5 7.5s-7.5 11.167 -7.5 18.5v622
c0 7.33301 2.5 13.5 7.5 18.5s11.167 7.5 18.5 7.5h69c7.33301 0 13.5 -2.5 18.5 -7.5s7.5 -11.167 7.5 -18.5v-547h183v547c0 7.33301 2.5 13.5 7.5 18.5s11.167 7.5 18.5 7.5h69c7.33301 0 13.5 -2.5 18.5 -7.5s7.5 -11.167 7.5 -18.5v-547h184v547
c0 7.33301 2.5 13.5 7.5 18.5s11.167 7.5 18.5 7.5h69c7.33301 0 13.5 -2.5 18.5 -7.5s7.5 -11.167 7.5 -18.5v-547z" />
    <glyph glyph-name="afii10044" unicode="&#xda;" horiz-adv-x="670" 
d="M193 6c-6 1.33301 -11.5 4.83105 -16.5 10.498s-7.5 14.834 -7.5 27.501v529h-137c-6.66699 0 -11.834 2.16699 -15.501 6.5s-5.5 9.83301 -5.5 16.5c0 1.33301 0.166992 3.5 0.5 6.5s0.833008 6.16699 1.5 9.5l6 38c1.33301 7.33301 4.33301 13.166 9 17.499
s10.667 6.5 18 6.5h219c7.33301 0 13.5 -2.5 18.5 -7.5s7.5 -11.167 7.5 -18.5v-211h44c43.333 0 83.166 -4.16699 119.499 -12.5s67.5 -21.333 93.5 -39s46.167 -40.167 60.5 -67.5s21.5 -59.666 21.5 -96.999c0 -44.667 -8 -81.667 -24 -111
s-37.167 -52.666 -63.5 -69.999s-56.333 -29.5 -90 -36.5s-68.5 -10.5 -104.5 -10.5c-27.333 0 -53.666 0.833008 -78.999 2.5s-50.666 5.16699 -75.999 10.5zM291 345.998v-254c11.333 -2 21.5 -3.5 30.5 -4.5s19.833 -1.5 32.5 -1.5c42 0 77 10.5 105 31.5
s42 53.833 42 98.5c0 22.667 -4.83301 42.167 -14.5 58.5s-22.167 29.833 -37.5 40.5s-33 18.5 -53 23.5s-40.333 7.5 -61 7.5h-44z" />
    <glyph glyph-name="afii10044" unicode="&#x42a;" horiz-adv-x="670" 
d="M193 6c-6 1.33301 -11.5 4.83105 -16.5 10.498s-7.5 14.834 -7.5 27.501v529h-137c-6.66699 0 -11.834 2.16699 -15.501 6.5s-5.5 9.83301 -5.5 16.5c0 1.33301 0.166992 3.5 0.5 6.5s0.833008 6.16699 1.5 9.5l6 38c1.33301 7.33301 4.33301 13.166 9 17.499
s10.667 6.5 18 6.5h219c7.33301 0 13.5 -2.5 18.5 -7.5s7.5 -11.167 7.5 -18.5v-211h44c43.333 0 83.166 -4.16699 119.499 -12.5s67.5 -21.333 93.5 -39s46.167 -40.167 60.5 -67.5s21.5 -59.666 21.5 -96.999c0 -44.667 -8 -81.667 -24 -111
s-37.167 -52.666 -63.5 -69.999s-56.333 -29.5 -90 -36.5s-68.5 -10.5 -104.5 -10.5c-27.333 0 -53.666 0.833008 -78.999 2.5s-50.666 5.16699 -75.999 10.5zM291 345.998v-254c11.333 -2 21.5 -3.5 30.5 -4.5s19.833 -1.5 32.5 -1.5c42 0 77 10.5 105 31.5
s42 53.833 42 98.5c0 22.667 -4.83301 42.167 -14.5 58.5s-22.167 29.833 -37.5 40.5s-33 18.5 -53 23.5s-40.333 7.5 -61 7.5h-44z" />
    <glyph glyph-name="afii10045" unicode="&#xdb;" horiz-adv-x="805" 
d="M198 346v-254c11.333 -2 21.5 -3.5 30.5 -4.5s19.833 -1.5 32.5 -1.5c42 0 77 10.5 105 31.5s42 53.833 42 98.5c0 22.667 -4.83301 42.167 -14.5 58.5s-22.167 29.833 -37.5 40.5s-33 18.5 -53 23.5s-40.333 7.5 -61 7.5h-44zM255 -7
c-27.333 0 -53.667 0.830078 -79 2.49707s-50.666 5.16699 -75.999 10.5c-6 1.33301 -11.5 4.83301 -16.5 10.5s-7.5 14.834 -7.5 27.501v604c0 7.33301 2.5 13.5 7.5 18.5s11.167 7.5 18.5 7.5h70c7.33301 0 13.5 -2.5 18.5 -7.5s7.5 -11.167 7.5 -18.5v-211h44
c43.333 0 83.166 -4.16699 119.499 -12.5s67.5 -21.333 93.5 -39s46.167 -40.167 60.5 -67.5s21.5 -59.666 21.5 -96.999c0 -44.667 -8 -81.667 -24 -111s-37.167 -52.666 -63.5 -69.999s-56.333 -29.5 -90 -36.5s-68.5 -10.5 -104.5 -10.5zM728.999 25.9971
c0 -7.33301 -2.5 -13.5 -7.5 -18.5s-11.167 -7.5 -18.5 -7.5h-71c-7.33301 0 -13.5 2.5 -18.5 7.5s-7.5 11.167 -7.5 18.5v622c0 7.33301 2.5 13.5 7.5 18.5s11.167 7.5 18.5 7.5h71c7.33301 0 13.5 -2.5 18.5 -7.5s7.5 -11.167 7.5 -18.5v-622z" />
    <glyph glyph-name="afii10045" unicode="&#x42b;" horiz-adv-x="805" 
d="M198 346v-254c11.333 -2 21.5 -3.5 30.5 -4.5s19.833 -1.5 32.5 -1.5c42 0 77 10.5 105 31.5s42 53.833 42 98.5c0 22.667 -4.83301 42.167 -14.5 58.5s-22.167 29.833 -37.5 40.5s-33 18.5 -53 23.5s-40.333 7.5 -61 7.5h-44zM255 -7
c-27.333 0 -53.667 0.830078 -79 2.49707s-50.666 5.16699 -75.999 10.5c-6 1.33301 -11.5 4.83301 -16.5 10.5s-7.5 14.834 -7.5 27.501v604c0 7.33301 2.5 13.5 7.5 18.5s11.167 7.5 18.5 7.5h70c7.33301 0 13.5 -2.5 18.5 -7.5s7.5 -11.167 7.5 -18.5v-211h44
c43.333 0 83.166 -4.16699 119.499 -12.5s67.5 -21.333 93.5 -39s46.167 -40.167 60.5 -67.5s21.5 -59.666 21.5 -96.999c0 -44.667 -8 -81.667 -24 -111s-37.167 -52.666 -63.5 -69.999s-56.333 -29.5 -90 -36.5s-68.5 -10.5 -104.5 -10.5zM728.999 25.9971
c0 -7.33301 -2.5 -13.5 -7.5 -18.5s-11.167 -7.5 -18.5 -7.5h-71c-7.33301 0 -13.5 2.5 -18.5 7.5s-7.5 11.167 -7.5 18.5v622c0 7.33301 2.5 13.5 7.5 18.5s11.167 7.5 18.5 7.5h71c7.33301 0 13.5 -2.5 18.5 -7.5s7.5 -11.167 7.5 -18.5v-622z" />
    <glyph glyph-name="afii10046" unicode="&#xdc;" horiz-adv-x="577" 
d="M198 346v-254c11.333 -2 21.5 -3.5 30.5 -4.5s19.833 -1.5 32.5 -1.5c42 0 77 10.5 105 31.5s42 53.833 42 98.5c0 22.667 -4.83301 42.167 -14.5 58.5s-22.167 29.833 -37.5 40.5s-33 18.5 -53 23.5s-40.333 7.5 -61 7.5h-44zM255 -7
c-27.333 0 -53.667 0.830078 -79 2.49707s-50.666 5.16699 -75.999 10.5c-6 1.33301 -11.5 4.83301 -16.5 10.5s-7.5 14.834 -7.5 27.501v604c0 7.33301 2.5 13.5 7.5 18.5s11.167 7.5 18.5 7.5h70c7.33301 0 13.5 -2.5 18.5 -7.5s7.5 -11.167 7.5 -18.5v-211h44
c43.333 0 83.166 -4.16699 119.499 -12.5s67.5 -21.333 93.5 -39s46.167 -40.167 60.5 -67.5s21.5 -59.666 21.5 -96.999c0 -44.667 -8 -81.667 -24 -111s-37.167 -52.666 -63.5 -69.999s-56.333 -29.5 -90 -36.5s-68.5 -10.5 -104.5 -10.5z" />
    <glyph glyph-name="afii10046" unicode="&#x42c;" horiz-adv-x="577" 
d="M198 346v-254c11.333 -2 21.5 -3.5 30.5 -4.5s19.833 -1.5 32.5 -1.5c42 0 77 10.5 105 31.5s42 53.833 42 98.5c0 22.667 -4.83301 42.167 -14.5 58.5s-22.167 29.833 -37.5 40.5s-33 18.5 -53 23.5s-40.333 7.5 -61 7.5h-44zM255 -7
c-27.333 0 -53.667 0.830078 -79 2.49707s-50.666 5.16699 -75.999 10.5c-6 1.33301 -11.5 4.83301 -16.5 10.5s-7.5 14.834 -7.5 27.501v604c0 7.33301 2.5 13.5 7.5 18.5s11.167 7.5 18.5 7.5h70c7.33301 0 13.5 -2.5 18.5 -7.5s7.5 -11.167 7.5 -18.5v-211h44
c43.333 0 83.166 -4.16699 119.499 -12.5s67.5 -21.333 93.5 -39s46.167 -40.167 60.5 -67.5s21.5 -59.666 21.5 -96.999c0 -44.667 -8 -81.667 -24 -111s-37.167 -52.666 -63.5 -69.999s-56.333 -29.5 -90 -36.5s-68.5 -10.5 -104.5 -10.5z" />
    <glyph glyph-name="afii10047" unicode="&#xdd;" horiz-adv-x="588" 
d="M415 392c-2.66699 26.667 -9.00195 51.8359 -19.002 75.5029s-23.667 44.167 -41 61.5s-38.166 31 -62.499 41s-52.166 15 -83.499 15c-20.667 0 -40.334 -1.83301 -59.001 -5.5s-36.334 -8.16699 -53.001 -13.5l-10 -4c-3.33301 -1.33301 -6.66602 -2 -9.99902 -2
c-6.66699 0 -11 4 -13 12l-14 50c-0.666992 2.66699 -1.16699 5 -1.5 7s-0.5 4 -0.5 6c0 8 2.66699 13.5 8 16.5s9.66602 5.16699 12.999 6.5c20.667 7.33301 43.5 13.666 68.5 18.999s51.833 8 80.5 8c56.667 0 105.667 -9.16699 147 -27.5s75.5 -43.333 102.5 -75
s47.167 -68.667 60.5 -111s20 -87.5 20 -135.5c0 -56 -8.83301 -105.667 -26.5 -149s-41.834 -79.666 -72.501 -108.999s-66.667 -51.5 -108 -66.5s-85.666 -22.5 -132.999 -22.5c-28 0 -55 2 -81 6s-49 9.66699 -69 17c-4 1.33301 -8.33301 3.66602 -13 6.99902s-7 9 -7 17
c0 3.33301 0.666992 7 2 11l12 51c2.66699 8.66699 8 13 16 13c3.33301 0 6.66602 -0.5 9.99902 -1.5s6.33301 -1.83301 9 -2.5c16.667 -5.33301 34.334 -9.5 53.001 -12.5s37.334 -4.5 56.001 -4.5c32.667 0 62 5.16699 88 15.5s48.333 24.666 67 42.999s33.5 40 44.5 65
s17.5 52.167 19.5 81.5h-275c-7.33301 0 -13.333 2.16699 -18 6.5s-7.66699 10.166 -9 17.499l-5 34c-0.666992 3.33301 -1.16699 6.5 -1.5 9.5s-0.5 5.16699 -0.5 6.5c0 6.66699 1.83301 12.167 5.5 16.5s8.83398 6.5 15.501 6.5h288z" />
    <glyph glyph-name="afii10047" unicode="&#x42d;" horiz-adv-x="588" 
d="M415 392c-2.66699 26.667 -9.00195 51.8359 -19.002 75.5029s-23.667 44.167 -41 61.5s-38.166 31 -62.499 41s-52.166 15 -83.499 15c-20.667 0 -40.334 -1.83301 -59.001 -5.5s-36.334 -8.16699 -53.001 -13.5l-10 -4c-3.33301 -1.33301 -6.66602 -2 -9.99902 -2
c-6.66699 0 -11 4 -13 12l-14 50c-0.666992 2.66699 -1.16699 5 -1.5 7s-0.5 4 -0.5 6c0 8 2.66699 13.5 8 16.5s9.66602 5.16699 12.999 6.5c20.667 7.33301 43.5 13.666 68.5 18.999s51.833 8 80.5 8c56.667 0 105.667 -9.16699 147 -27.5s75.5 -43.333 102.5 -75
s47.167 -68.667 60.5 -111s20 -87.5 20 -135.5c0 -56 -8.83301 -105.667 -26.5 -149s-41.834 -79.666 -72.501 -108.999s-66.667 -51.5 -108 -66.5s-85.666 -22.5 -132.999 -22.5c-28 0 -55 2 -81 6s-49 9.66699 -69 17c-4 1.33301 -8.33301 3.66602 -13 6.99902s-7 9 -7 17
c0 3.33301 0.666992 7 2 11l12 51c2.66699 8.66699 8 13 16 13c3.33301 0 6.66602 -0.5 9.99902 -1.5s6.33301 -1.83301 9 -2.5c16.667 -5.33301 34.334 -9.5 53.001 -12.5s37.334 -4.5 56.001 -4.5c32.667 0 62 5.16699 88 15.5s48.333 24.666 67 42.999s33.5 40 44.5 65
s17.5 52.167 19.5 81.5h-275c-7.33301 0 -13.333 2.16699 -18 6.5s-7.66699 10.166 -9 17.499l-5 34c-0.666992 3.33301 -1.16699 6.5 -1.5 9.5s-0.5 5.16699 -0.5 6.5c0 6.66699 1.83301 12.167 5.5 16.5s8.83398 6.5 15.501 6.5h288z" />
    <glyph glyph-name="afii10048" unicode="&#xde;" horiz-adv-x="896" 
d="M568 87c26.667 0 50.3301 6.49902 70.9971 19.499s37.834 30.833 51.501 53.5s24 49.334 31 80.001s10.5 63.667 10.5 99c0 32 -3.16699 62.833 -9.5 92.5s-16.166 56 -29.499 79s-30.166 41.5 -50.499 55.5s-44.5 21 -72.5 21s-52.5 -6.83301 -73.5 -20.5
s-38.167 -32 -51.5 -55s-23.333 -49.833 -30 -80.5s-10 -62.667 -10 -96s3.5 -65 10.5 -95s17.333 -56.333 31 -79s30.667 -40.667 51 -54s43.833 -20 70.5 -20zM286.996 397.999c6 43.333 16.833 82.667 32.5 118s35.667 65.5 60 90.5s52.833 44.333 85.5 58
s69 20.5 109 20.5c46 0 86.5 -8.83301 121.5 -26.5s64.5 -41.667 88.5 -72s42.167 -66.333 54.5 -108s18.5 -86.5 18.5 -134.5c0 -56.667 -7.16699 -107 -21.5 -151s-34.5 -81.167 -60.5 -111.5s-56.833 -53.333 -92.5 -69s-74.834 -23.5 -117.501 -23.5
c-41.333 0 -78.666 7.33301 -111.999 22s-62 35.5 -86 62.5s-43.167 59.333 -57.5 97s-22.833 79.167 -25.5 124.5h-86v-269c0 -7.33301 -2.5 -13.5 -7.5 -18.5s-11.167 -7.5 -18.5 -7.5h-71c-7.33301 0 -13.5 2.5 -18.5 7.5s-7.5 11.167 -7.5 18.5v622
c0 7.33301 2.5 13.5 7.5 18.5s11.167 7.5 18.5 7.5h71c7.33301 0 13.5 -2.5 18.5 -7.5s7.5 -11.167 7.5 -18.5v-250h89z" />
    <glyph glyph-name="afii10048" unicode="&#x42e;" horiz-adv-x="896" 
d="M568 87c26.667 0 50.3301 6.49902 70.9971 19.499s37.834 30.833 51.501 53.5s24 49.334 31 80.001s10.5 63.667 10.5 99c0 32 -3.16699 62.833 -9.5 92.5s-16.166 56 -29.499 79s-30.166 41.5 -50.499 55.5s-44.5 21 -72.5 21s-52.5 -6.83301 -73.5 -20.5
s-38.167 -32 -51.5 -55s-23.333 -49.833 -30 -80.5s-10 -62.667 -10 -96s3.5 -65 10.5 -95s17.333 -56.333 31 -79s30.667 -40.667 51 -54s43.833 -20 70.5 -20zM286.996 397.999c6 43.333 16.833 82.667 32.5 118s35.667 65.5 60 90.5s52.833 44.333 85.5 58
s69 20.5 109 20.5c46 0 86.5 -8.83301 121.5 -26.5s64.5 -41.667 88.5 -72s42.167 -66.333 54.5 -108s18.5 -86.5 18.5 -134.5c0 -56.667 -7.16699 -107 -21.5 -151s-34.5 -81.167 -60.5 -111.5s-56.833 -53.333 -92.5 -69s-74.834 -23.5 -117.501 -23.5
c-41.333 0 -78.666 7.33301 -111.999 22s-62 35.5 -86 62.5s-43.167 59.333 -57.5 97s-22.833 79.167 -25.5 124.5h-86v-269c0 -7.33301 -2.5 -13.5 -7.5 -18.5s-11.167 -7.5 -18.5 -7.5h-71c-7.33301 0 -13.5 2.5 -18.5 7.5s-7.5 11.167 -7.5 18.5v622
c0 7.33301 2.5 13.5 7.5 18.5s11.167 7.5 18.5 7.5h71c7.33301 0 13.5 -2.5 18.5 -7.5s7.5 -11.167 7.5 -18.5v-250h89z" />
    <glyph glyph-name="afii10049" unicode="&#xdf;" horiz-adv-x="594" 
d="M397 577c-11.333 3.33301 -21.5 5.66797 -30.5 7.00098s-23.167 2 -42.5 2c-40 0 -70.833 -8.83301 -92.5 -26.5s-32.5 -44.834 -32.5 -81.501c0 -34 10.333 -61 31 -81s52 -30 94 -30h73v210zM114 203.002c12.667 30 27.6699 54.334 45.0029 73.001s38.333 32.667 63 42
v3c-18.667 4.66699 -36.667 11.667 -54 21s-32.833 21 -46.5 35s-24.667 30 -33 48s-12.5 37.667 -12.5 59c0 36.667 6.66699 67.334 20 92.001s31.666 44.667 54.999 60s50.833 26.333 82.5 33s65.834 10 102.501 10c27.333 0 54.166 -2.16699 80.499 -6.5
s51.833 -9.16602 76.5 -14.499c6 -1.33301 11.833 -4.83301 17.5 -10.5s8.5 -14.834 8.5 -27.501v-594c0 -7.33301 -2.5 -13.5 -7.5 -18.5s-11.167 -7.5 -18.5 -7.5h-70c-7.33301 0 -13.5 2.5 -18.5 7.5s-7.5 11.167 -7.5 18.5v251h-42c-16 0 -30.167 -1.5 -42.5 -4.5
s-23.333 -8.16699 -33 -15.5s-18.334 -17.833 -26.001 -31.5s-14.834 -30.834 -21.501 -51.501l-60 -149c-4.66699 -16.667 -14 -25 -28 -25h-85c-12.667 0 -19 4.66699 -19 14c0 1.33301 0.333008 4.16602 1 8.49902s1.66699 8.5 3 12.5z" />
    <glyph glyph-name="afii10049" unicode="&#x42f;" horiz-adv-x="594" 
d="M397 577c-11.333 3.33301 -21.5 5.66797 -30.5 7.00098s-23.167 2 -42.5 2c-40 0 -70.833 -8.83301 -92.5 -26.5s-32.5 -44.834 -32.5 -81.501c0 -34 10.333 -61 31 -81s52 -30 94 -30h73v210zM114 203.002c12.667 30 27.6699 54.334 45.0029 73.001s38.333 32.667 63 42
v3c-18.667 4.66699 -36.667 11.667 -54 21s-32.833 21 -46.5 35s-24.667 30 -33 48s-12.5 37.667 -12.5 59c0 36.667 6.66699 67.334 20 92.001s31.666 44.667 54.999 60s50.833 26.333 82.5 33s65.834 10 102.501 10c27.333 0 54.166 -2.16699 80.499 -6.5
s51.833 -9.16602 76.5 -14.499c6 -1.33301 11.833 -4.83301 17.5 -10.5s8.5 -14.834 8.5 -27.501v-594c0 -7.33301 -2.5 -13.5 -7.5 -18.5s-11.167 -7.5 -18.5 -7.5h-70c-7.33301 0 -13.5 2.5 -18.5 7.5s-7.5 11.167 -7.5 18.5v251h-42c-16 0 -30.167 -1.5 -42.5 -4.5
s-23.333 -8.16699 -33 -15.5s-18.334 -17.833 -26.001 -31.5s-14.834 -30.834 -21.501 -51.501l-60 -149c-4.66699 -16.667 -14 -25 -28 -25h-85c-12.667 0 -19 4.66699 -19 14c0 1.33301 0.333008 4.16602 1 8.49902s1.66699 8.5 3 12.5z" />
    <glyph glyph-name="afii10065" unicode="&#xe0;" horiz-adv-x="523" 
d="M334 236c-22 0 -43.166 -1.16699 -63.499 -3.5s-38.333 -6.83301 -54 -13.5s-28.334 -15.667 -38.001 -27s-14.5 -26.333 -14.5 -45c0 -24 6.83301 -41.667 20.5 -53s30.167 -17 49.5 -17c30 0 54.167 8.16699 72.5 24.5s27.5 39.5 27.5 69.5v65zM238.001 411
c-8 0 -16.9971 -0.666992 -26.9971 -2s-20.333 -3 -31 -5s-20.834 -4.5 -30.501 -7.5s-18.5 -6.16699 -26.5 -9.5c-2.66699 -1.33301 -5.33398 -2.5 -8.00098 -3.5s-5.66699 -1.5 -9 -1.5c-7.33301 0 -12 3.66699 -14 11l-12 36
c-1.33301 3.33301 -2.16602 5.83301 -2.49902 7.5s-0.5 3.5 -0.5 5.5c0 6.66699 1.83301 11.667 5.5 15s7.16699 5.66602 10.5 6.99902c25.333 12 52.5 20.667 81.5 26s57.167 8 84.5 8c38.667 0 70.667 -5.16699 96 -15.5s45.333 -24.5 60 -42.5
s24.834 -38.833 30.501 -62.5s8.5 -48.834 8.5 -75.501v-185l10 -85c0 -6 -1.33301 -10.333 -4 -13s-7.33398 -5 -14.001 -7l-65 -18c-3.33301 -1.33301 -6 -2 -8 -2h-4c-6 0 -10.5 2.33301 -13.5 7s-5.16699 11 -6.5 19l-7 36h-3c-14.667 -19.333 -34.334 -35 -59.001 -47
s-53 -18 -85 -18c-24.667 0 -46.5 4 -65.5 12s-35 18.833 -48 32.5s-22.833 29.167 -29.5 46.5s-10 35.333 -10 54c0 30.667 6.83301 57 20.5 79s33 40.167 58 54.5s55.5 25 91.5 32s76.667 10.5 122 10.5v26c0 8 -1 16.333 -3 25s-6.33301 16.834 -13 24.501
s-16.334 13.834 -29.001 18.501s-29.667 7 -51 7z" />
    <glyph glyph-name="afii10065" unicode="&#x430;" horiz-adv-x="523" 
d="M334 236c-22 0 -43.166 -1.16699 -63.499 -3.5s-38.333 -6.83301 -54 -13.5s-28.334 -15.667 -38.001 -27s-14.5 -26.333 -14.5 -45c0 -24 6.83301 -41.667 20.5 -53s30.167 -17 49.5 -17c30 0 54.167 8.16699 72.5 24.5s27.5 39.5 27.5 69.5v65zM238.001 411
c-8 0 -16.9971 -0.666992 -26.9971 -2s-20.333 -3 -31 -5s-20.834 -4.5 -30.501 -7.5s-18.5 -6.16699 -26.5 -9.5c-2.66699 -1.33301 -5.33398 -2.5 -8.00098 -3.5s-5.66699 -1.5 -9 -1.5c-7.33301 0 -12 3.66699 -14 11l-12 36
c-1.33301 3.33301 -2.16602 5.83301 -2.49902 7.5s-0.5 3.5 -0.5 5.5c0 6.66699 1.83301 11.667 5.5 15s7.16699 5.66602 10.5 6.99902c25.333 12 52.5 20.667 81.5 26s57.167 8 84.5 8c38.667 0 70.667 -5.16699 96 -15.5s45.333 -24.5 60 -42.5
s24.834 -38.833 30.501 -62.5s8.5 -48.834 8.5 -75.501v-185l10 -85c0 -6 -1.33301 -10.333 -4 -13s-7.33398 -5 -14.001 -7l-65 -18c-3.33301 -1.33301 -6 -2 -8 -2h-4c-6 0 -10.5 2.33301 -13.5 7s-5.16699 11 -6.5 19l-7 36h-3c-14.667 -19.333 -34.334 -35 -59.001 -47
s-53 -18 -85 -18c-24.667 0 -46.5 4 -65.5 12s-35 18.833 -48 32.5s-22.833 29.167 -29.5 46.5s-10 35.333 -10 54c0 30.667 6.83301 57 20.5 79s33 40.167 58 54.5s55.5 25 91.5 32s76.667 10.5 122 10.5v26c0 8 -1 16.333 -3 25s-6.33301 16.834 -13 24.501
s-16.334 13.834 -29.001 18.501s-29.667 7 -51 7z" />
    <glyph glyph-name="afii10066" unicode="&#xe1;" horiz-adv-x="565" 
d="M399 240c0 18 -1.83398 36.334 -5.50098 55.001s-9.83398 35.834 -18.501 51.501s-20.334 28.5 -35.001 38.5s-33 15 -55 15c-19.333 0 -36.166 -4.66699 -50.499 -14s-26.166 -21.166 -35.499 -35.499s-16.166 -30.5 -20.499 -48.5s-6.5 -35.667 -6.5 -53
c0 -18 1.83301 -37 5.5 -57s10 -38.5 19 -55.5s20.833 -31 35.5 -42s33 -16.5 55 -16.5c20.667 0 38.167 4.66699 52.5 14s25.833 21.666 34.5 36.999s15 32.666 19 51.999s6 38.666 6 57.999v1zM148.999 387.001c15.333 30.667 37.6699 55.0029 67.0029 73.0029
s61.666 27 96.999 27c32 0 61 -5.5 87 -16.5s48.167 -27 66.5 -48s32.666 -46.5 42.999 -76.5s15.5 -63.667 15.5 -101c0 -39.333 -5.66699 -74.833 -17 -106.5s-27.333 -58.5 -48 -80.5s-45.667 -39 -75 -51s-62 -18 -98 -18c-42.667 0 -79.334 8.66699 -110.001 26
s-55.667 40.666 -75 69.999s-33.666 63.5 -42.999 102.5s-14 80.5 -14 124.5c0 44.667 4.16699 87.167 12.5 127.5s22.833 77.166 43.5 110.499s48.667 62 84 86s80 41.667 134 53l132 28c3.33301 1.33301 8.33301 2.66602 15 3.99902s11.667 2 15 2
c2.66699 0 5.66699 -0.833008 9 -2.5s5.66602 -6.16699 6.99902 -13.5l10 -51c0.666992 -2.66699 1.5 -6.5 2.5 -11.5s1.5 -8.16699 1.5 -9.5c0 -2.66699 -1.33301 -5.5 -4 -8.5s-7.66699 -5.16699 -15 -6.5l-161 -31c-57.333 -11.333 -101.333 -33 -132 -65
s-48.667 -77.667 -54 -137h4z" />
    <glyph glyph-name="afii10066" unicode="&#x431;" horiz-adv-x="565" 
d="M399 240c0 18 -1.83398 36.334 -5.50098 55.001s-9.83398 35.834 -18.501 51.501s-20.334 28.5 -35.001 38.5s-33 15 -55 15c-19.333 0 -36.166 -4.66699 -50.499 -14s-26.166 -21.166 -35.499 -35.499s-16.166 -30.5 -20.499 -48.5s-6.5 -35.667 -6.5 -53
c0 -18 1.83301 -37 5.5 -57s10 -38.5 19 -55.5s20.833 -31 35.5 -42s33 -16.5 55 -16.5c20.667 0 38.167 4.66699 52.5 14s25.833 21.666 34.5 36.999s15 32.666 19 51.999s6 38.666 6 57.999v1zM148.999 387.001c15.333 30.667 37.6699 55.0029 67.0029 73.0029
s61.666 27 96.999 27c32 0 61 -5.5 87 -16.5s48.167 -27 66.5 -48s32.666 -46.5 42.999 -76.5s15.5 -63.667 15.5 -101c0 -39.333 -5.66699 -74.833 -17 -106.5s-27.333 -58.5 -48 -80.5s-45.667 -39 -75 -51s-62 -18 -98 -18c-42.667 0 -79.334 8.66699 -110.001 26
s-55.667 40.666 -75 69.999s-33.666 63.5 -42.999 102.5s-14 80.5 -14 124.5c0 44.667 4.16699 87.167 12.5 127.5s22.833 77.166 43.5 110.499s48.667 62 84 86s80 41.667 134 53l132 28c3.33301 1.33301 8.33301 2.66602 15 3.99902s11.667 2 15 2
c2.66699 0 5.66699 -0.833008 9 -2.5s5.66602 -6.16699 6.99902 -13.5l10 -51c0.666992 -2.66699 1.5 -6.5 2.5 -11.5s1.5 -8.16699 1.5 -9.5c0 -2.66699 -1.33301 -5.5 -4 -8.5s-7.66699 -5.16699 -15 -6.5l-161 -31c-57.333 -11.333 -101.333 -33 -132 -65
s-48.667 -77.667 -54 -137h4z" />
    <glyph glyph-name="afii10067" unicode="&#xe2;" horiz-adv-x="538" 
d="M70 437c0 8 1.16504 14.3291 3.49805 18.9961s5.33301 8.5 9 11.5s7.33398 5.16699 11.001 6.5s6.5 2.33301 8.5 3c46.667 10.667 95.334 16 146.001 16c20.667 0 43.5 -1.16699 68.5 -3.5s48.5 -7.66602 70.5 -15.999s40.5 -20.666 55.5 -36.999s22.5 -38.5 22.5 -66.5
c0 -31.333 -9.83301 -55.833 -29.5 -73.5s-42.5 -29.167 -68.5 -34.5v-2c36.667 -5.33301 66.167 -18 88.5 -38s33.5 -47 33.5 -81c0 -33.333 -8.5 -59.666 -25.5 -78.999s-38 -34 -63 -44s-52 -16.5 -81 -19.5s-55.5 -4.5 -79.5 -4.5c-24.667 0 -48.5 0.833008 -71.5 2.5
s-45.167 4.5 -66.5 8.5c-5.33301 1.33301 -12 3.83301 -20 7.5s-12 10.834 -12 21.501v403zM189.998 287.996l72 0.00195312c26 0 46.5 5.16699 61.5 15.5s22.5 27.166 22.5 50.499c0 19.333 -7 34.166 -21 44.499s-36.667 15.5 -68 15.5c-12.667 0 -24 -0.5 -34 -1.5
s-21 -2.83301 -33 -5.5v-119zM189.998 76.998c14.667 -2.66699 26.3311 -4.16602 34.998 -4.49902s16.667 -0.5 24 -0.5c14 0 27.833 1 41.5 3s25.834 5.66699 36.501 11s19.334 12.666 26.001 21.999s10 21.333 10 36c0 28 -8.33301 47.333 -25 58s-42 16 -76 16h-72v-141z
" />
    <glyph glyph-name="afii10067" unicode="&#x432;" horiz-adv-x="538" 
d="M70 437c0 8 1.16504 14.3291 3.49805 18.9961s5.33301 8.5 9 11.5s7.33398 5.16699 11.001 6.5s6.5 2.33301 8.5 3c46.667 10.667 95.334 16 146.001 16c20.667 0 43.5 -1.16699 68.5 -3.5s48.5 -7.66602 70.5 -15.999s40.5 -20.666 55.5 -36.999s22.5 -38.5 22.5 -66.5
c0 -31.333 -9.83301 -55.833 -29.5 -73.5s-42.5 -29.167 -68.5 -34.5v-2c36.667 -5.33301 66.167 -18 88.5 -38s33.5 -47 33.5 -81c0 -33.333 -8.5 -59.666 -25.5 -78.999s-38 -34 -63 -44s-52 -16.5 -81 -19.5s-55.5 -4.5 -79.5 -4.5c-24.667 0 -48.5 0.833008 -71.5 2.5
s-45.167 4.5 -66.5 8.5c-5.33301 1.33301 -12 3.83301 -20 7.5s-12 10.834 -12 21.501v403zM189.998 287.996l72 0.00195312c26 0 46.5 5.16699 61.5 15.5s22.5 27.166 22.5 50.499c0 19.333 -7 34.166 -21 44.499s-36.667 15.5 -68 15.5c-12.667 0 -24 -0.5 -34 -1.5
s-21 -2.83301 -33 -5.5v-119zM189.998 76.998c14.667 -2.66699 26.3311 -4.16602 34.998 -4.49902s16.667 -0.5 24 -0.5c14 0 27.833 1 41.5 3s25.834 5.66699 36.501 11s19.334 12.666 26.001 21.999s10 21.333 10 36c0 28 -8.33301 47.333 -25 58s-42 16 -76 16h-72v-141z
" />
    <glyph glyph-name="afii10068" unicode="&#xe3;" horiz-adv-x="412" 
d="M193 26c0 -7.33301 -2.5 -13.5 -7.5 -18.5s-11.167 -7.5 -18.5 -7.5h-71c-7.33301 0 -13.5 2.5 -18.5 7.5s-7.5 11.167 -7.5 18.5v435c0 7.33301 2.5 13.5 7.5 18.5s11.167 7.5 18.5 7.5h275c14.667 0 22 -7.33301 22 -22c0 -1.33301 -0.166992 -3.5 -0.5 -6.5
s-0.833008 -6.16699 -1.5 -9.5l-5 -37c-2 -14.667 -10.333 -22 -25 -22h-168v-364z" />
    <glyph glyph-name="afii10068" unicode="&#x433;" horiz-adv-x="412" 
d="M193 26c0 -7.33301 -2.5 -13.5 -7.5 -18.5s-11.167 -7.5 -18.5 -7.5h-71c-7.33301 0 -13.5 2.5 -18.5 7.5s-7.5 11.167 -7.5 18.5v435c0 7.33301 2.5 13.5 7.5 18.5s11.167 7.5 18.5 7.5h275c14.667 0 22 -7.33301 22 -22c0 -1.33301 -0.166992 -3.5 -0.5 -6.5
s-0.833008 -6.16699 -1.5 -9.5l-5 -37c-2 -14.667 -10.333 -22 -25 -22h-168v-364z" />
    <glyph glyph-name="afii10069" unicode="&#xe4;" horiz-adv-x="567" 
d="M231 308c-3.33301 -41.333 -9.16699 -79 -17.5 -113s-22.833 -68.667 -43.5 -104h188v304h-120zM52.999 89c27.333 40.667 46.499 81.5 57.499 122.5s18.167 85.167 21.5 132.5l9 117c0.666992 7.33301 3.33398 13.5 8.00098 18.5s10.667 7.5 18 7.5h286
c7.33301 0 13.333 -2.5 18 -7.5s7 -11.167 7 -18.5v-368h38c7.33301 0 13.5 -2.5 18.5 -7.5s7.5 -11.167 7.5 -18.5v-192c0 -7.33301 -2.33301 -13.5 -7 -18.5s-10.667 -7.5 -18 -7.5h-65c-7.33301 0 -13.5 2.5 -18.5 7.5s-7.5 11.167 -7.5 18.5v125h-305v-125
c0 -7.33301 -2.5 -13.5 -7.5 -18.5s-11.167 -7.5 -18.5 -7.5h-63c-7.33301 0 -13.333 2.5 -18 7.5s-7 11.167 -7 18.5v192c0 7.33301 2.5 13.5 7.5 18.5s11.167 7.5 18.5 7.5h29z" />
    <glyph glyph-name="afii10069" unicode="&#x434;" horiz-adv-x="567" 
d="M231 308c-3.33301 -41.333 -9.16699 -79 -17.5 -113s-22.833 -68.667 -43.5 -104h188v304h-120zM52.999 89c27.333 40.667 46.499 81.5 57.499 122.5s18.167 85.167 21.5 132.5l9 117c0.666992 7.33301 3.33398 13.5 8.00098 18.5s10.667 7.5 18 7.5h286
c7.33301 0 13.333 -2.5 18 -7.5s7 -11.167 7 -18.5v-368h38c7.33301 0 13.5 -2.5 18.5 -7.5s7.5 -11.167 7.5 -18.5v-192c0 -7.33301 -2.33301 -13.5 -7 -18.5s-10.667 -7.5 -18 -7.5h-65c-7.33301 0 -13.5 2.5 -18.5 7.5s-7.5 11.167 -7.5 18.5v125h-305v-125
c0 -7.33301 -2.5 -13.5 -7.5 -18.5s-11.167 -7.5 -18.5 -7.5h-63c-7.33301 0 -13.333 2.5 -18 7.5s-7 11.167 -7 18.5v192c0 7.33301 2.5 13.5 7.5 18.5s11.167 7.5 18.5 7.5h29z" />
    <glyph glyph-name="afii10070" unicode="&#xe5;" horiz-adv-x="526" 
d="M158 209c0.666992 -22 5.16406 -41 13.4971 -57s19.333 -29 33 -39s29.5 -17.5 47.5 -22.5s36.667 -7.5 56 -7.5c23.333 0 43.5 1.33301 60.5 4s33.5 6.33398 49.5 11.001l7.5 2.5c3 1 5.83301 1.5 8.5 1.5c6 0 10 -4.33301 12 -13l10 -43c1.33301 -5.33301 2 -10 2 -14
c0 -5.33301 -1.66699 -9.33301 -5 -12s-6.33301 -4.66699 -9 -6c-20 -7.33301 -42.833 -13.166 -68.5 -17.499s-53.834 -6.5 -84.501 -6.5c-39.333 0 -74.666 5.83301 -105.999 17.5s-57.666 28.167 -78.999 49.5s-37.666 47.166 -48.999 77.499s-17 64.166 -17 101.499
c0 34 5 66.667 15 98s25 59.166 45 83.499s44.833 43.833 74.5 58.5s64.167 22 103.5 22c42 0 76.667 -7.33301 104 -22s48.833 -33.834 64.5 -57.501s26.5 -50.167 32.5 -79.5s9 -58.666 9 -87.999c0 -11.333 -1.66699 -21.166 -5 -29.499s-10.666 -12.5 -21.999 -12.5
h-303zM371.997 295c0 14 -1.5 28.002 -4.5 42.002s-8.16699 26.667 -15.5 38s-17.5 20.666 -30.5 27.999s-29.833 11 -50.5 11c-19.333 0 -35.833 -3.83301 -49.5 -11.5s-25 -17.334 -34 -29.001s-15.833 -24.5 -20.5 -38.5s-7.66699 -27.333 -9 -40h214z" />
    <glyph glyph-name="afii10070" unicode="&#x435;" horiz-adv-x="526" 
d="M158 209c0.666992 -22 5.16406 -41 13.4971 -57s19.333 -29 33 -39s29.5 -17.5 47.5 -22.5s36.667 -7.5 56 -7.5c23.333 0 43.5 1.33301 60.5 4s33.5 6.33398 49.5 11.001l7.5 2.5c3 1 5.83301 1.5 8.5 1.5c6 0 10 -4.33301 12 -13l10 -43c1.33301 -5.33301 2 -10 2 -14
c0 -5.33301 -1.66699 -9.33301 -5 -12s-6.33301 -4.66699 -9 -6c-20 -7.33301 -42.833 -13.166 -68.5 -17.499s-53.834 -6.5 -84.501 -6.5c-39.333 0 -74.666 5.83301 -105.999 17.5s-57.666 28.167 -78.999 49.5s-37.666 47.166 -48.999 77.499s-17 64.166 -17 101.499
c0 34 5 66.667 15 98s25 59.166 45 83.499s44.833 43.833 74.5 58.5s64.167 22 103.5 22c42 0 76.667 -7.33301 104 -22s48.833 -33.834 64.5 -57.501s26.5 -50.167 32.5 -79.5s9 -58.666 9 -87.999c0 -11.333 -1.66699 -21.166 -5 -29.499s-10.666 -12.5 -21.999 -12.5
h-303zM371.997 295c0 14 -1.5 28.002 -4.5 42.002s-8.16699 26.667 -15.5 38s-17.5 20.666 -30.5 27.999s-29.833 11 -50.5 11c-19.333 0 -35.833 -3.83301 -49.5 -11.5s-25 -17.334 -34 -29.001s-15.833 -24.5 -20.5 -38.5s-7.66699 -27.333 -9 -40h214z" />
    <glyph glyph-name="afii10072" unicode="&#xe6;" horiz-adv-x="716" 
d="M392 487c16.667 0 25 -8.66699 25 -26v-189h1l127 194c4.66699 8 9.5 13.5 14.5 16.5s12.5 4.5 22.5 4.5h82c12.667 0 19 -4.33301 19 -13c0 -1.33301 -0.333008 -3.33301 -1 -6s-2.33398 -5.66699 -5.00098 -9l-150 -203l160 -227
c2.66699 -3.33301 4.33398 -6.5 5.00098 -9.5s1 -5.16699 1 -6.5c0 -8.66699 -6.33301 -13 -19 -13h-86c-10 0 -17.333 1.66699 -22 5s-9.66699 8.66602 -15 15.999l-132 205h-2v-200c0 -7.33301 -2.16699 -13.5 -6.5 -18.5s-10.5 -7.5 -18.5 -7.5h-68
c-8 0 -14.167 2.5 -18.5 7.5s-6.5 11.167 -6.5 18.5v200h-2l-132 -205c-5.33301 -7.33301 -10.333 -12.666 -15 -15.999s-12 -5 -22 -5h-86c-12.667 -0 -19 4.33301 -19 13c0 1.33301 0.333008 3.5 1 6.5s2.33398 6.16699 5.00098 9.5l160 227l-150 203
c-2.66699 3.33301 -4.33398 6.33301 -5.00098 9s-1 4.66699 -1 6c0 8.66699 6.33301 13 19 13h82c10 0 17.5 -1.5 22.5 -4.5s9.83301 -8.5 14.5 -16.5l127 -194h1v189c0 17.333 8.33301 26 25 26h68z" />
    <glyph glyph-name="afii10072" unicode="&#x436;" horiz-adv-x="716" 
d="M392 487c16.667 0 25 -8.66699 25 -26v-189h1l127 194c4.66699 8 9.5 13.5 14.5 16.5s12.5 4.5 22.5 4.5h82c12.667 0 19 -4.33301 19 -13c0 -1.33301 -0.333008 -3.33301 -1 -6s-2.33398 -5.66699 -5.00098 -9l-150 -203l160 -227
c2.66699 -3.33301 4.33398 -6.5 5.00098 -9.5s1 -5.16699 1 -6.5c0 -8.66699 -6.33301 -13 -19 -13h-86c-10 0 -17.333 1.66699 -22 5s-9.66699 8.66602 -15 15.999l-132 205h-2v-200c0 -7.33301 -2.16699 -13.5 -6.5 -18.5s-10.5 -7.5 -18.5 -7.5h-68
c-8 0 -14.167 2.5 -18.5 7.5s-6.5 11.167 -6.5 18.5v200h-2l-132 -205c-5.33301 -7.33301 -10.333 -12.666 -15 -15.999s-12 -5 -22 -5h-86c-12.667 -0 -19 4.33301 -19 13c0 1.33301 0.333008 3.5 1 6.5s2.33398 6.16699 5.00098 9.5l160 227l-150 203
c-2.66699 3.33301 -4.33398 6.33301 -5.00098 9s-1 4.66699 -1 6c0 8.66699 6.33301 13 19 13h82c10 0 17.5 -1.5 22.5 -4.5s9.83301 -8.5 14.5 -16.5l127 -194h1v189c0 17.333 8.33301 26 25 26h68z" />
    <glyph glyph-name="afii10073" unicode="&#xe7;" horiz-adv-x="472" 
d="M209 290c29.333 0 49.4971 6.00488 60.4971 18.0049s16.5 26.667 16.5 44s-7.66699 31.5 -23 42.5s-37 16.5 -65 16.5c-16 0 -33 -1.83301 -51 -5.5s-34.667 -9.16699 -50 -16.5c-2.66699 -1.33301 -5.33398 -2.5 -8.00098 -3.5s-5.66699 -1.5 -9 -1.5
c-7.33301 0 -12 3.66699 -14 11l-11 32c-2 4.66699 -3 9 -3 13c0 6.66699 1.83301 11.667 5.5 15s7.16699 5.66602 10.5 6.99902c25.333 12 52.333 20.833 81 26.5s56.667 8.5 84 8.5c20.667 0 41.834 -2.16699 63.501 -6.5s41.334 -11.5 59.001 -21.5
s32.167 -23.333 43.5 -40s17 -37 17 -61c0 -16 -3.16699 -30.167 -9.5 -42.5s-14.666 -23 -24.999 -32s-21.833 -16.5 -34.5 -22.5s-25.334 -10.333 -38.001 -13v-3c16 -1.33301 31.5 -4.83301 46.5 -10.5s28.333 -13.334 40 -23.001s20.834 -21.5 27.501 -35.5
s10 -30 10 -48c0 -28 -7.16699 -51.5 -21.5 -70.5s-32.5 -34.333 -54.5 -46s-46.5 -19.834 -73.5 -24.501s-52.833 -7 -77.5 -7c-27.333 0 -54.333 2.66699 -81 8s-51.334 13.333 -74.001 24c-3.33301 1.33301 -7 3.33301 -11 6s-6 6.66699 -6 12
c0 3.33301 1 7.66602 3 12.999l15 42c2.66699 7.33301 7 11 13 11c3.33301 0 6.83301 -0.833008 10.5 -2.5s7.16699 -3.16699 10.5 -4.5c15.333 -6 32.333 -11 51 -15s37.334 -6 56.001 -6c34 0 60 6.33301 78 19s27 28.334 27 47.001c0 26 -7 43.833 -21 53.5
s-36 14.5 -66 14.5h-56c-6 0 -11.167 2 -15.5 6s-7.16602 9 -8.49902 15l-4 22c-0.666992 3.33301 -1.16699 6.16602 -1.5 8.49902s-0.5 4.16602 -0.5 5.49902c0 6 2 11 6 15s9 6 15 6h63z" />
    <glyph glyph-name="afii10073" unicode="&#x437;" horiz-adv-x="472" 
d="M209 290c29.333 0 49.4971 6.00488 60.4971 18.0049s16.5 26.667 16.5 44s-7.66699 31.5 -23 42.5s-37 16.5 -65 16.5c-16 0 -33 -1.83301 -51 -5.5s-34.667 -9.16699 -50 -16.5c-2.66699 -1.33301 -5.33398 -2.5 -8.00098 -3.5s-5.66699 -1.5 -9 -1.5
c-7.33301 0 -12 3.66699 -14 11l-11 32c-2 4.66699 -3 9 -3 13c0 6.66699 1.83301 11.667 5.5 15s7.16699 5.66602 10.5 6.99902c25.333 12 52.333 20.833 81 26.5s56.667 8.5 84 8.5c20.667 0 41.834 -2.16699 63.501 -6.5s41.334 -11.5 59.001 -21.5
s32.167 -23.333 43.5 -40s17 -37 17 -61c0 -16 -3.16699 -30.167 -9.5 -42.5s-14.666 -23 -24.999 -32s-21.833 -16.5 -34.5 -22.5s-25.334 -10.333 -38.001 -13v-3c16 -1.33301 31.5 -4.83301 46.5 -10.5s28.333 -13.334 40 -23.001s20.834 -21.5 27.501 -35.5
s10 -30 10 -48c0 -28 -7.16699 -51.5 -21.5 -70.5s-32.5 -34.333 -54.5 -46s-46.5 -19.834 -73.5 -24.501s-52.833 -7 -77.5 -7c-27.333 0 -54.333 2.66699 -81 8s-51.334 13.333 -74.001 24c-3.33301 1.33301 -7 3.33301 -11 6s-6 6.66699 -6 12
c0 3.33301 1 7.66602 3 12.999l15 42c2.66699 7.33301 7 11 13 11c3.33301 0 6.83301 -0.833008 10.5 -2.5s7.16699 -3.16699 10.5 -4.5c15.333 -6 32.333 -11 51 -15s37.334 -6 56.001 -6c34 0 60 6.33301 78 19s27 28.334 27 47.001c0 26 -7 43.833 -21 53.5
s-36 14.5 -66 14.5h-56c-6 0 -11.167 2 -15.5 6s-7.16602 9 -8.49902 15l-4 22c-0.666992 3.33301 -1.16699 6.16602 -1.5 8.49902s-0.5 4.16602 -0.5 5.49902c0 6 2 11 6 15s9 6 15 6h63z" />
    <glyph glyph-name="afii10074" unicode="&#xe8;" horiz-adv-x="588" 
d="M232 26c-9.33301 -17.333 -21.334 -25.9961 -36.001 -25.9961h-101c-7.33301 0 -13.333 2.5 -18 7.5s-7 11.167 -7 18.5v435c0 7.33301 2.5 13.5 7.5 18.5s11.167 7.5 18.5 7.5h66c7.33301 0 13.333 -2.5 18 -7.5s7 -11.167 7 -18.5v-152
c0 -19.333 -0.166992 -37.333 -0.5 -54s-0.833008 -32.834 -1.5 -48.501s-1.5 -31.334 -2.5 -47.001s-1.83301 -31.834 -2.5 -48.501h4c4 10.667 8.33301 21.334 13 32.001l12.5 29.5c4.33301 10.333 9.16602 20.166 14.499 29.499l132 259c9.33301 17.333 21.333 26 36 26
h101c7.33301 0 13.333 -2.5 18 -7.5s7 -11.167 7 -18.5v-435c0 -7.33301 -2.33301 -13.5 -7 -18.5s-10.667 -7.5 -18 -7.5h-66c-7.33301 0 -13.5 2.5 -18.5 7.5s-7.5 11.167 -7.5 18.5v150c0 19.333 0.166992 36.666 0.5 51.999s0.833008 30.5 1.5 45.5s1.5 31 2.5 48
l3.5 60.5h-4c-3.33301 -8 -6.66602 -16.667 -9.99902 -26l-11.5 -27c-4.33301 -10 -9.16602 -20.333 -14.499 -31z" />
    <glyph glyph-name="afii10074" unicode="&#x438;" horiz-adv-x="588" 
d="M232 26c-9.33301 -17.333 -21.334 -25.9961 -36.001 -25.9961h-101c-7.33301 0 -13.333 2.5 -18 7.5s-7 11.167 -7 18.5v435c0 7.33301 2.5 13.5 7.5 18.5s11.167 7.5 18.5 7.5h66c7.33301 0 13.333 -2.5 18 -7.5s7 -11.167 7 -18.5v-152
c0 -19.333 -0.166992 -37.333 -0.5 -54s-0.833008 -32.834 -1.5 -48.501s-1.5 -31.334 -2.5 -47.001s-1.83301 -31.834 -2.5 -48.501h4c4 10.667 8.33301 21.334 13 32.001l12.5 29.5c4.33301 10.333 9.16602 20.166 14.499 29.499l132 259c9.33301 17.333 21.333 26 36 26
h101c7.33301 0 13.333 -2.5 18 -7.5s7 -11.167 7 -18.5v-435c0 -7.33301 -2.33301 -13.5 -7 -18.5s-10.667 -7.5 -18 -7.5h-66c-7.33301 0 -13.5 2.5 -18.5 7.5s-7.5 11.167 -7.5 18.5v150c0 19.333 0.166992 36.666 0.5 51.999s0.833008 30.5 1.5 45.5s1.5 31 2.5 48
l3.5 60.5h-4c-3.33301 -8 -6.66602 -16.667 -9.99902 -26l-11.5 -27c-4.33301 -10 -9.16602 -20.333 -14.499 -31z" />
    <glyph glyph-name="afii10075" unicode="&#xe9;" horiz-adv-x="588" 
d="M292 538c-19.333 0 -37.501 2.16699 -54.501 6.5s-31.667 11 -44 20s-22.166 20.5 -29.499 34.5s-11 30.333 -11 49c0 9.33301 1.33301 15.5 4 18.5s7 4.5 13 4.5h50c9.33301 0 14.833 -2 16.5 -6s2.5 -8 2.5 -12c0 -12 1.66699 -22 5 -30s7.66602 -14.333 12.999 -19
s11 -8 17 -10s12 -3 18 -3c12 0 23.833 4.16699 35.5 12.5s17.5 24.833 17.5 49.5c0 4 0.833008 8 2.5 12s7.16699 6 16.5 6h50c6 0 10.333 -1.5 13 -4.5s4 -9.16699 4 -18.5c0 -18.667 -3.66699 -35 -11 -49s-17.166 -25.5 -29.499 -34.5s-27 -15.667 -44 -20
s-35.167 -6.5 -54.5 -6.5zM231.999 26c-9.33301 -17.333 -21.334 -25.9961 -36.001 -25.9961h-101c-7.33301 0 -13.333 2.5 -18 7.5s-7 11.167 -7 18.5v435c0 7.33301 2.5 13.5 7.5 18.5s11.167 7.5 18.5 7.5h66c7.33301 0 13.333 -2.5 18 -7.5s7 -11.167 7 -18.5v-152
c0 -19.333 -0.166992 -37.333 -0.5 -54s-0.833008 -32.834 -1.5 -48.501s-1.5 -31.334 -2.5 -47.001s-1.83301 -31.834 -2.5 -48.501h4c4 10.667 8.33301 21.334 13 32.001l12.5 29.5c4.33301 10.333 9.16602 20.166 14.499 29.499l132 259c9.33301 17.333 21.333 26 36 26
h101c7.33301 0 13.333 -2.5 18 -7.5s7 -11.167 7 -18.5v-435c0 -7.33301 -2.33301 -13.5 -7 -18.5s-10.667 -7.5 -18 -7.5h-66c-7.33301 0 -13.5 2.5 -18.5 7.5s-7.5 11.167 -7.5 18.5v150c0 19.333 0.166992 36.666 0.5 51.999s0.833008 30.5 1.5 45.5s1.5 31 2.5 48
l3.5 60.5h-4c-3.33301 -8 -6.66602 -16.667 -9.99902 -26l-11.5 -27c-4.33301 -10 -9.16602 -20.333 -14.499 -31z" />
    <glyph glyph-name="afii10075" unicode="&#x439;" horiz-adv-x="588" 
d="M292 538c-19.333 0 -37.501 2.16699 -54.501 6.5s-31.667 11 -44 20s-22.166 20.5 -29.499 34.5s-11 30.333 -11 49c0 9.33301 1.33301 15.5 4 18.5s7 4.5 13 4.5h50c9.33301 0 14.833 -2 16.5 -6s2.5 -8 2.5 -12c0 -12 1.66699 -22 5 -30s7.66602 -14.333 12.999 -19
s11 -8 17 -10s12 -3 18 -3c12 0 23.833 4.16699 35.5 12.5s17.5 24.833 17.5 49.5c0 4 0.833008 8 2.5 12s7.16699 6 16.5 6h50c6 0 10.333 -1.5 13 -4.5s4 -9.16699 4 -18.5c0 -18.667 -3.66699 -35 -11 -49s-17.166 -25.5 -29.499 -34.5s-27 -15.667 -44 -20
s-35.167 -6.5 -54.5 -6.5zM231.999 26c-9.33301 -17.333 -21.334 -25.9961 -36.001 -25.9961h-101c-7.33301 0 -13.333 2.5 -18 7.5s-7 11.167 -7 18.5v435c0 7.33301 2.5 13.5 7.5 18.5s11.167 7.5 18.5 7.5h66c7.33301 0 13.333 -2.5 18 -7.5s7 -11.167 7 -18.5v-152
c0 -19.333 -0.166992 -37.333 -0.5 -54s-0.833008 -32.834 -1.5 -48.501s-1.5 -31.334 -2.5 -47.001s-1.83301 -31.834 -2.5 -48.501h4c4 10.667 8.33301 21.334 13 32.001l12.5 29.5c4.33301 10.333 9.16602 20.166 14.499 29.499l132 259c9.33301 17.333 21.333 26 36 26
h101c7.33301 0 13.333 -2.5 18 -7.5s7 -11.167 7 -18.5v-435c0 -7.33301 -2.33301 -13.5 -7 -18.5s-10.667 -7.5 -18 -7.5h-66c-7.33301 0 -13.5 2.5 -18.5 7.5s-7.5 11.167 -7.5 18.5v150c0 19.333 0.166992 36.666 0.5 51.999s0.833008 30.5 1.5 45.5s1.5 31 2.5 48
l3.5 60.5h-4c-3.33301 -8 -6.66602 -16.667 -9.99902 -26l-11.5 -27c-4.33301 -10 -9.16602 -20.333 -14.499 -31z" />
    <glyph glyph-name="afii10076" unicode="&#xea;" horiz-adv-x="517" 
d="M346 466c4.66699 8 9.49902 13.501 14.499 16.501s12.5 4.5 22.5 4.5h84c12.667 0 19 -4.33301 19 -13c0 -1.33301 -0.333008 -3.33301 -1 -6s-2.33398 -5.66699 -5.00098 -9l-170 -203l180 -227c2.66699 -3.33301 4.33398 -6.5 5.00098 -9.5s1 -5.16699 1 -6.5
c0 -8.66699 -6.33301 -13 -19 -13h-92c-10 0 -17.333 1.66699 -22 5s-9.66699 8.66602 -15 15.999l-152 205h-2v-200c0 -7.33301 -2.16699 -13.5 -6.5 -18.5s-10.5 -7.5 -18.5 -7.5h-74c-7.33301 0 -13.166 2.5 -17.499 7.5s-6.5 11.167 -6.5 18.5v435c0 17.333 8 26 24 26
h74c16.667 0 25 -8.66699 25 -26v-189h1z" />
    <glyph glyph-name="afii10076" unicode="&#x43a;" horiz-adv-x="517" 
d="M346 466c4.66699 8 9.49902 13.501 14.499 16.501s12.5 4.5 22.5 4.5h84c12.667 0 19 -4.33301 19 -13c0 -1.33301 -0.333008 -3.33301 -1 -6s-2.33398 -5.66699 -5.00098 -9l-170 -203l180 -227c2.66699 -3.33301 4.33398 -6.5 5.00098 -9.5s1 -5.16699 1 -6.5
c0 -8.66699 -6.33301 -13 -19 -13h-92c-10 0 -17.333 1.66699 -22 5s-9.66699 8.66602 -15 15.999l-152 205h-2v-200c0 -7.33301 -2.16699 -13.5 -6.5 -18.5s-10.5 -7.5 -18.5 -7.5h-74c-7.33301 0 -13.166 2.5 -17.499 7.5s-6.5 11.167 -6.5 18.5v435c0 17.333 8 26 24 26
h74c16.667 0 25 -8.66699 25 -26v-189h1z" />
    <glyph glyph-name="afii10077" unicode="&#xeb;" horiz-adv-x="543" 
d="M126 458c0.666992 8.66699 3.5 15.6689 8.5 21.002s12.167 8 21.5 8h288c7.33301 0 13.333 -2.5 18 -7.5s7 -11.167 7 -18.5v-435c0 -7.33301 -2.33301 -13.5 -7 -18.5s-10.667 -7.5 -18 -7.5h-72c-7.33301 0 -13.5 2.5 -18.5 7.5s-7.5 11.167 -7.5 18.5v366h-113
l-8 -135c-2.66699 -44.667 -6.66699 -83.5 -12 -116.5s-14.166 -60.5 -26.499 -82.5s-29.333 -38.5 -51 -49.5s-49.834 -16.5 -84.501 -16.5c-7.33301 0 -13.833 1 -19.5 3s-9.16699 7.66699 -10.5 17l-7 51c-0.666992 2.66699 -1 4.66699 -1 6v4c0 4 1 7 3 9
s4.5 3.5 7.5 4.5s5.83301 1.66699 8.5 2s5 0.833008 7 1.5c16 3.33301 28.833 9.16602 38.5 17.499s17 19.5 22 33.5s8.5 31.167 10.5 51.5s3.66699 44.166 5 71.499z" />
    <glyph glyph-name="afii10077" unicode="&#x43b;" horiz-adv-x="543" 
d="M126 458c0.666992 8.66699 3.5 15.6689 8.5 21.002s12.167 8 21.5 8h288c7.33301 0 13.333 -2.5 18 -7.5s7 -11.167 7 -18.5v-435c0 -7.33301 -2.33301 -13.5 -7 -18.5s-10.667 -7.5 -18 -7.5h-72c-7.33301 0 -13.5 2.5 -18.5 7.5s-7.5 11.167 -7.5 18.5v366h-113
l-8 -135c-2.66699 -44.667 -6.66699 -83.5 -12 -116.5s-14.166 -60.5 -26.499 -82.5s-29.333 -38.5 -51 -49.5s-49.834 -16.5 -84.501 -16.5c-7.33301 0 -13.833 1 -19.5 3s-9.16699 7.66699 -10.5 17l-7 51c-0.666992 2.66699 -1 4.66699 -1 6v4c0 4 1 7 3 9
s4.5 3.5 7.5 4.5s5.83301 1.66699 8.5 2s5 0.833008 7 1.5c16 3.33301 28.833 9.16602 38.5 17.499s17 19.5 22 33.5s8.5 31.167 10.5 51.5s3.66699 44.166 5 71.499z" />
    <glyph glyph-name="afii10078" unicode="&#xec;" horiz-adv-x="697" 
d="M644 44c0.666992 -6.66699 1.16602 -12.8389 1.49902 -18.5059s0.5 -8.83398 0.5 -9.50098c0 -7.33301 -2.16699 -11.833 -6.5 -13.5s-9.5 -2.5 -15.5 -2.5h-69c-9.33301 0 -15.5 2 -18.5 6s-4.83301 9 -5.5 15l-11 213c-1.33301 19.333 -2.33301 38 -3 56s-1 34 -1 48
c-0.666992 16.667 -0.666992 32 0 46h-3l-113 -349c-2.66699 -7.33301 -6 -13.666 -10 -18.999s-10.333 -8 -19 -8h-56c-7.33301 0 -13.833 1.83301 -19.5 5.5s-10.167 11.167 -13.5 22.5l-101 346h-4c0 -19.333 -0.333008 -38 -1 -56
c-0.666992 -15.333 -1.16699 -31.166 -1.5 -47.499s-0.833008 -30.166 -1.5 -41.499l-11 -216c0 -5.33301 -1.66699 -10.166 -5 -14.499s-9.66602 -6.5 -18.999 -6.5h-65c-6 0 -11.167 0.833008 -15.5 2.5s-6.5 6.16699 -6.5 13.5c0 0.666992 0.166992 3.83398 0.5 9.50098
s0.833008 11.834 1.5 18.501l30 415c1.33301 11.333 5.33301 18.833 12 22.5s13.667 5.5 21 5.5h104c8.66699 0 15 -2.66699 19 -8s7.33301 -11.666 10 -18.999l65 -198l11 -38l11 -37c3.33301 -13.333 7 -26.333 11 -39h2c3.33301 12.667 7 25.334 11 38.001l11 37
c4 13.333 8.33301 26.333 13 39l67 198c2.66699 7.33301 6 13.666 10 18.999s10.333 8 19 8h104c7.33301 0 14.333 -2 21 -6s10.667 -11.667 12 -23z" />
    <glyph glyph-name="afii10078" unicode="&#x43c;" horiz-adv-x="697" 
d="M644 44c0.666992 -6.66699 1.16602 -12.8389 1.49902 -18.5059s0.5 -8.83398 0.5 -9.50098c0 -7.33301 -2.16699 -11.833 -6.5 -13.5s-9.5 -2.5 -15.5 -2.5h-69c-9.33301 0 -15.5 2 -18.5 6s-4.83301 9 -5.5 15l-11 213c-1.33301 19.333 -2.33301 38 -3 56s-1 34 -1 48
c-0.666992 16.667 -0.666992 32 0 46h-3l-113 -349c-2.66699 -7.33301 -6 -13.666 -10 -18.999s-10.333 -8 -19 -8h-56c-7.33301 0 -13.833 1.83301 -19.5 5.5s-10.167 11.167 -13.5 22.5l-101 346h-4c0 -19.333 -0.333008 -38 -1 -56
c-0.666992 -15.333 -1.16699 -31.166 -1.5 -47.499s-0.833008 -30.166 -1.5 -41.499l-11 -216c0 -5.33301 -1.66699 -10.166 -5 -14.499s-9.66602 -6.5 -18.999 -6.5h-65c-6 0 -11.167 0.833008 -15.5 2.5s-6.5 6.16699 -6.5 13.5c0 0.666992 0.166992 3.83398 0.5 9.50098
s0.833008 11.834 1.5 18.501l30 415c1.33301 11.333 5.33301 18.833 12 22.5s13.667 5.5 21 5.5h104c8.66699 0 15 -2.66699 19 -8s7.33301 -11.666 10 -18.999l65 -198l11 -38l11 -37c3.33301 -13.333 7 -26.333 11 -39h2c3.33301 12.667 7 25.334 11 38.001l11 37
c4 13.333 8.33301 26.333 13 39l67 198c2.66699 7.33301 6 13.666 10 18.999s10.333 8 19 8h104c7.33301 0 14.333 -2 21 -6s10.667 -11.667 12 -23z" />
    <glyph glyph-name="afii10079" unicode="&#xed;" horiz-adv-x="566" 
d="M496 26c0 -7.33301 -2.33301 -13.5 -7 -18.5s-10.667 -7.5 -18 -7.5h-72c-7.33301 0 -13.5 2.5 -18.5 7.5s-7.5 11.167 -7.5 18.5v179h-180v-179c0 -7.33301 -2.33301 -13.5 -7 -18.5s-10.667 -7.5 -18 -7.5h-72c-7.33301 0 -13.5 2.5 -18.5 7.5s-7.5 11.167 -7.5 18.5
v435c0 7.33301 2.5 13.5 7.5 18.5s11.167 7.5 18.5 7.5h72c7.33301 0 13.333 -2.5 18 -7.5s7 -11.167 7 -18.5v-160h180v160c0 7.33301 2.5 13.5 7.5 18.5s11.167 7.5 18.5 7.5h72c7.33301 0 13.333 -2.5 18 -7.5s7 -11.167 7 -18.5v-435z" />
    <glyph glyph-name="afii10079" unicode="&#x43d;" horiz-adv-x="566" 
d="M496 26c0 -7.33301 -2.33301 -13.5 -7 -18.5s-10.667 -7.5 -18 -7.5h-72c-7.33301 0 -13.5 2.5 -18.5 7.5s-7.5 11.167 -7.5 18.5v179h-180v-179c0 -7.33301 -2.33301 -13.5 -7 -18.5s-10.667 -7.5 -18 -7.5h-72c-7.33301 0 -13.5 2.5 -18.5 7.5s-7.5 11.167 -7.5 18.5
v435c0 7.33301 2.5 13.5 7.5 18.5s11.167 7.5 18.5 7.5h72c7.33301 0 13.333 -2.5 18 -7.5s7 -11.167 7 -18.5v-160h180v160c0 7.33301 2.5 13.5 7.5 18.5s11.167 7.5 18.5 7.5h72c7.33301 0 13.333 -2.5 18 -7.5s7 -11.167 7 -18.5v-435z" />
    <glyph glyph-name="afii10080" unicode="&#xee;" horiz-adv-x="580" 
d="M413 243c0 24.667 -3.16699 47.167 -9.5 67.5s-15 37.833 -26 52.5s-24 26 -39 34s-31.167 12 -48.5 12s-33.5 -4 -48.5 -12s-28 -19.333 -39 -34s-19.667 -32.167 -26 -52.5s-9.5 -42.833 -9.5 -67.5s3.16699 -47.167 9.5 -67.5s15 -37.666 26 -51.999
s24 -25.5 39 -33.5s31.167 -12 48.5 -12s33.5 4 48.5 12s28 19.167 39 33.5s19.667 31.666 26 51.999s9.5 42.833 9.5 67.5zM540 243c0 -44.667 -7.33301 -83 -22 -115s-33.667 -58.333 -57 -79s-50 -35.834 -80 -45.501s-60.333 -14.5 -91 -14.5s-61 4.83301 -91 14.5
s-56.667 24.834 -80 45.501s-42.333 47 -57 79s-22 70.333 -22 115s7.33301 83.167 22 115.5s33.667 58.833 57 79.5s50 35.834 80 45.501s60.333 14.5 91 14.5s61 -4.83301 91 -14.5s56.667 -24.834 80 -45.501s42.333 -47.167 57 -79.5s22 -70.833 22 -115.5z" />
    <glyph glyph-name="afii10080" unicode="&#x43e;" horiz-adv-x="580" 
d="M413 243c0 24.667 -3.16699 47.167 -9.5 67.5s-15 37.833 -26 52.5s-24 26 -39 34s-31.167 12 -48.5 12s-33.5 -4 -48.5 -12s-28 -19.333 -39 -34s-19.667 -32.167 -26 -52.5s-9.5 -42.833 -9.5 -67.5s3.16699 -47.167 9.5 -67.5s15 -37.666 26 -51.999
s24 -25.5 39 -33.5s31.167 -12 48.5 -12s33.5 4 48.5 12s28 19.167 39 33.5s19.667 31.666 26 51.999s9.5 42.833 9.5 67.5zM540 243c0 -44.667 -7.33301 -83 -22 -115s-33.667 -58.333 -57 -79s-50 -35.834 -80 -45.501s-60.333 -14.5 -91 -14.5s-61 4.83301 -91 14.5
s-56.667 24.834 -80 45.501s-42.333 47 -57 79s-22 70.333 -22 115s7.33301 83.167 22 115.5s33.667 58.833 57 79.5s50 35.834 80 45.501s60.333 14.5 91 14.5s61 -4.83301 91 -14.5s56.667 -24.834 80 -45.501s42.333 -47.167 57 -79.5s22 -70.833 22 -115.5z" />
    <glyph glyph-name="afii10081" unicode="&#xef;" horiz-adv-x="558" 
d="M463 487c7.33301 0 13.333 -2.5 18 -7.5s7 -11.167 7 -18.5v-435c0 -7.33301 -2.33301 -13.5 -7 -18.5s-10.667 -7.5 -18 -7.5h-72c-7.33301 0 -13.5 2.5 -18.5 7.5s-7.5 11.167 -7.5 18.5v366h-172v-366c0 -7.33301 -2.33301 -13.5 -7 -18.5s-10.667 -7.5 -18 -7.5h-72
c-7.33301 0 -13.5 2.5 -18.5 7.5s-7.5 11.167 -7.5 18.5v435c0 7.33301 2.5 13.5 7.5 18.5s11.167 7.5 18.5 7.5h367z" />
    <glyph glyph-name="afii10081" unicode="&#x43f;" horiz-adv-x="558" 
d="M463 487c7.33301 0 13.333 -2.5 18 -7.5s7 -11.167 7 -18.5v-435c0 -7.33301 -2.33301 -13.5 -7 -18.5s-10.667 -7.5 -18 -7.5h-72c-7.33301 0 -13.5 2.5 -18.5 7.5s-7.5 11.167 -7.5 18.5v366h-172v-366c0 -7.33301 -2.33301 -13.5 -7 -18.5s-10.667 -7.5 -18 -7.5h-72
c-7.33301 0 -13.5 2.5 -18.5 7.5s-7.5 11.167 -7.5 18.5v435c0 7.33301 2.5 13.5 7.5 18.5s11.167 7.5 18.5 7.5h367z" />
    <glyph glyph-name="afii10082" unicode="&#xf0;" horiz-adv-x="595" 
d="M194 194c0 -32 10.334 -58.332 31.001 -78.999s47.667 -31 81 -31c39.333 0 69.833 14.833 91.5 44.5s32.5 68.5 32.5 116.5c0 21.333 -2.66699 41.5 -8 60.5s-13 35.5 -23 49.5s-22.5 25.167 -37.5 33.5s-32.5 12.5 -52.5 12.5c-15.333 0 -29.833 -2.66699 -43.5 -8
s-25.834 -13 -36.501 -23s-19.167 -21.833 -25.5 -35.5s-9.5 -28.834 -9.5 -45.501v-95zM183.001 412.001c18 28 41.002 49.332 69.002 63.999s60.667 22 98 22c28 0 54.5 -5.83301 79.5 -17.5s46.667 -28.167 65 -49.5s33 -47.333 44 -78s16.5 -65 16.5 -103
c0 -44 -6.33301 -82.333 -19 -115s-29.5 -59.834 -50.5 -81.501s-44.667 -37.834 -71 -48.501s-53.5 -16 -81.5 -16c-30.667 0 -58.334 6.16699 -83.001 18.5s-43.334 28.166 -56.001 47.499h-3l7 -180c0.666992 -9.33301 1 -17.333 1 -24v-11
c0 -10 -2.83301 -17.167 -8.5 -21.5s-12.834 -7.16602 -21.501 -8.49902l-49 -7c-4 -1.33301 -8.33301 -2.16602 -13 -2.49902s-7.33398 -0.5 -8.00098 -0.5c-18.667 0 -28 8.66699 -28 26v440l-13 147c-1.33301 8.66699 -2.16602 17.334 -2.49902 26.001
s-0.5 13.667 -0.5 15c0 6.66699 1.5 11.334 4.5 14.001s7.5 4.66699 13.5 6l71 18c4 1.33301 6.66699 2 8 2h4c6.66699 0 10.834 -2.16699 12.501 -6.5s3.16699 -10.5 4.5 -18.5l8 -57h2z" />
    <glyph glyph-name="afii10082" unicode="&#x440;" horiz-adv-x="595" 
d="M194 194c0 -32 10.334 -58.332 31.001 -78.999s47.667 -31 81 -31c39.333 0 69.833 14.833 91.5 44.5s32.5 68.5 32.5 116.5c0 21.333 -2.66699 41.5 -8 60.5s-13 35.5 -23 49.5s-22.5 25.167 -37.5 33.5s-32.5 12.5 -52.5 12.5c-15.333 0 -29.833 -2.66699 -43.5 -8
s-25.834 -13 -36.501 -23s-19.167 -21.833 -25.5 -35.5s-9.5 -28.834 -9.5 -45.501v-95zM183.001 412.001c18 28 41.002 49.332 69.002 63.999s60.667 22 98 22c28 0 54.5 -5.83301 79.5 -17.5s46.667 -28.167 65 -49.5s33 -47.333 44 -78s16.5 -65 16.5 -103
c0 -44 -6.33301 -82.333 -19 -115s-29.5 -59.834 -50.5 -81.501s-44.667 -37.834 -71 -48.501s-53.5 -16 -81.5 -16c-30.667 0 -58.334 6.16699 -83.001 18.5s-43.334 28.166 -56.001 47.499h-3l7 -180c0.666992 -9.33301 1 -17.333 1 -24v-11
c0 -10 -2.83301 -17.167 -8.5 -21.5s-12.834 -7.16602 -21.501 -8.49902l-49 -7c-4 -1.33301 -8.33301 -2.16602 -13 -2.49902s-7.33398 -0.5 -8.00098 -0.5c-18.667 0 -28 8.66699 -28 26v440l-13 147c-1.33301 8.66699 -2.16602 17.334 -2.49902 26.001
s-0.5 13.667 -0.5 15c0 6.66699 1.5 11.334 4.5 14.001s7.5 4.66699 13.5 6l71 18c4 1.33301 6.66699 2 8 2h4c6.66699 0 10.834 -2.16699 12.501 -6.5s3.16699 -10.5 4.5 -18.5l8 -57h2z" />
    <glyph glyph-name="afii10083" unicode="&#xf1;" horiz-adv-x="459" 
d="M424 41l1.99902 -10.0039c0.666992 -3.33301 1 -5.66602 1 -6.99902c0 -6.66699 -1.66699 -10.667 -5 -12s-6.33301 -2.66602 -9 -3.99902c-14 -5.33301 -31.5 -9.66602 -52.5 -12.999s-44.167 -5 -69.5 -5c-38 0 -72.5 5.83301 -103.5 17.5s-57.333 28.334 -79 50.001
s-38.5 47.834 -50.5 78.501s-18 65 -18 103c0 36.667 6.16699 70.667 18.5 102s30 58.666 53 81.999s51.333 41.666 85 54.999s71.834 20 114.501 20c18 0 35.833 -1.33301 53.5 -4s33.5 -6.33398 47.5 -11.001c3.33301 -1.33301 6.66602 -3 9.99902 -5s5 -6 5 -12
c0 -2 -0.333008 -4.83301 -1 -8.5s-1.66699 -7.83398 -3 -12.501l-10 -44c-2.66699 -8 -7.33398 -12 -14.001 -12c-2.66699 0 -5 0.333008 -7 1l-6 2c-9.33301 3.33301 -19.666 5.83301 -30.999 7.5s-24.666 2.5 -39.999 2.5c-23.333 0 -44.333 -4 -63 -12
s-34.334 -19.167 -47.001 -33.5s-22.334 -31.166 -29.001 -50.499s-10 -40 -10 -62c0 -25.333 3.83301 -47.666 11.5 -66.999s18.167 -35.666 31.5 -48.999s29 -23.5 47 -30.5s37.667 -10.5 59 -10.5c14.667 0 28 0.833008 40 2.5s23 4.16699 33 7.5
c2.66699 1.33301 5.33398 2.5 8.00098 3.5s5.33398 1.5 8.00098 1.5c5.33301 0 9 -4 11 -12z" />
    <glyph glyph-name="afii10083" unicode="&#x441;" horiz-adv-x="459" 
d="M424 41l1.99902 -10.0039c0.666992 -3.33301 1 -5.66602 1 -6.99902c0 -6.66699 -1.66699 -10.667 -5 -12s-6.33301 -2.66602 -9 -3.99902c-14 -5.33301 -31.5 -9.66602 -52.5 -12.999s-44.167 -5 -69.5 -5c-38 0 -72.5 5.83301 -103.5 17.5s-57.333 28.334 -79 50.001
s-38.5 47.834 -50.5 78.501s-18 65 -18 103c0 36.667 6.16699 70.667 18.5 102s30 58.666 53 81.999s51.333 41.666 85 54.999s71.834 20 114.501 20c18 0 35.833 -1.33301 53.5 -4s33.5 -6.33398 47.5 -11.001c3.33301 -1.33301 6.66602 -3 9.99902 -5s5 -6 5 -12
c0 -2 -0.333008 -4.83301 -1 -8.5s-1.66699 -7.83398 -3 -12.501l-10 -44c-2.66699 -8 -7.33398 -12 -14.001 -12c-2.66699 0 -5 0.333008 -7 1l-6 2c-9.33301 3.33301 -19.666 5.83301 -30.999 7.5s-24.666 2.5 -39.999 2.5c-23.333 0 -44.333 -4 -63 -12
s-34.334 -19.167 -47.001 -33.5s-22.334 -31.166 -29.001 -50.499s-10 -40 -10 -62c0 -25.333 3.83301 -47.666 11.5 -66.999s18.167 -35.666 31.5 -48.999s29 -23.5 47 -30.5s37.667 -10.5 59 -10.5c14.667 0 28 0.833008 40 2.5s23 4.16699 33 7.5
c2.66699 1.33301 5.33398 2.5 8.00098 3.5s5.33398 1.5 8.00098 1.5c5.33301 0 9 -4 11 -12z" />
    <glyph glyph-name="afii10084" unicode="&#xf2;" horiz-adv-x="461" 
d="M171 390h-125c-7.33301 0 -13.5 2.5 -18.5 7.5s-7.5 11.167 -7.5 18.5v45c0 7.33301 2.5 13.5 7.5 18.5s11.167 7.5 18.5 7.5h377c14.667 0 22 -7.33301 22 -22c0 -1.33301 -0.166992 -3.5 -0.5 -6.5s-0.833008 -6.16699 -1.5 -9.5l-5 -37
c-2 -14.667 -10.333 -22 -25 -22h-119v-364c0 -7.33301 -2.5 -13.5 -7.5 -18.5s-11.167 -7.5 -18.5 -7.5h-71c-7.33301 0 -13.5 2.5 -18.5 7.5s-7.5 11.167 -7.5 18.5v364z" />
    <glyph glyph-name="afii10084" unicode="&#x442;" horiz-adv-x="461" 
d="M171 390h-125c-7.33301 0 -13.5 2.5 -18.5 7.5s-7.5 11.167 -7.5 18.5v45c0 7.33301 2.5 13.5 7.5 18.5s11.167 7.5 18.5 7.5h377c14.667 0 22 -7.33301 22 -22c0 -1.33301 -0.166992 -3.5 -0.5 -6.5s-0.833008 -6.16699 -1.5 -9.5l-5 -37
c-2 -14.667 -10.333 -22 -25 -22h-119v-364c0 -7.33301 -2.5 -13.5 -7.5 -18.5s-11.167 -7.5 -18.5 -7.5h-71c-7.33301 0 -13.5 2.5 -18.5 7.5s-7.5 11.167 -7.5 18.5v364z" />
    <glyph glyph-name="afii10085" unicode="&#xf3;" horiz-adv-x="510" 
d="M363 113c-16.667 -46 -34.498 -88.998 -53.498 -128.998s-39.5 -74.833 -61.5 -104.5s-45.833 -53 -71.5 -70s-53.834 -25.5 -84.501 -25.5c-5.33301 0 -9.33301 1.16699 -12 3.5s-5 7.16602 -7 14.499l-15 60c-1.33301 6.66699 -2 10.667 -2 12
c0 3.33301 0.833008 6.33301 2.5 9s5.16699 4.33398 10.5 5.00098c26.667 3.33301 52.167 15.666 76.5 36.999s44.166 47.666 59.499 78.999l-180 453c-2 6 -3 9.66699 -3 11c0 6.66699 5.33301 11.334 16 14.001l70 16c4 1.33301 7.66699 2 11 2h7
c7.33301 0 12.833 -1.83301 16.5 -5.5s6.16699 -7.16699 7.5 -10.5l114 -352h3l96 334c1.33301 5.33301 4.5 10.166 9.5 14.499s12.167 6.5 21.5 6.5h77c14.667 0 22 -4.66699 22 -14c0 -2.66699 -0.666992 -6 -2 -10z" />
    <glyph glyph-name="afii10085" unicode="&#x443;" horiz-adv-x="510" 
d="M363 113c-16.667 -46 -34.498 -88.998 -53.498 -128.998s-39.5 -74.833 -61.5 -104.5s-45.833 -53 -71.5 -70s-53.834 -25.5 -84.501 -25.5c-5.33301 0 -9.33301 1.16699 -12 3.5s-5 7.16602 -7 14.499l-15 60c-1.33301 6.66699 -2 10.667 -2 12
c0 3.33301 0.833008 6.33301 2.5 9s5.16699 4.33398 10.5 5.00098c26.667 3.33301 52.167 15.666 76.5 36.999s44.166 47.666 59.499 78.999l-180 453c-2 6 -3 9.66699 -3 11c0 6.66699 5.33301 11.334 16 14.001l70 16c4 1.33301 7.66699 2 11 2h7
c7.33301 0 12.833 -1.83301 16.5 -5.5s6.16699 -7.16699 7.5 -10.5l114 -352h3l96 334c1.33301 5.33301 4.5 10.166 9.5 14.499s12.167 6.5 21.5 6.5h77c14.667 0 22 -4.66699 22 -14c0 -2.66699 -0.666992 -6 -2 -10z" />
    <glyph glyph-name="afii10086" unicode="&#xf4;" horiz-adv-x="765" 
d="M445 -192c0 -7.33301 -2.49902 -13.5 -7.49902 -18.5s-11.167 -7.5 -18.5 -7.5h-71c-7.33301 0 -13.5 2.5 -18.5 7.5s-7.5 11.167 -7.5 18.5v207c-11.333 -8 -24.166 -14.333 -38.499 -19s-30.833 -7 -49.5 -7c-24.667 0 -48 5.83301 -70 17.5s-41.5 28.667 -58.5 51
s-30.5 49.5 -40.5 81.5s-15 68.667 -15 110c0 34 4.66699 66 14 96s22 56.167 38 78.5s35 40 57 53s46 19.5 72 19.5c20.667 0 38.167 -2.33301 52.5 -7s27.166 -11.667 38.499 -21v194c0 18.667 9.66699 29.667 29 33l37 6c5.33301 1.33301 11.333 2.33301 18 3s11 1 13 1
c17.333 0 26 -8.66699 26 -26v-209c11.333 8.66699 24 15.167 38 19.5s31 6.5 51 6.5c26 0 50 -6.5 72 -19.5s41 -30.667 57 -53s28.667 -48.5 38 -78.5s14 -62 14 -96c0 -41.333 -5 -78 -15 -110s-23.5 -59.167 -40.5 -81.5s-36.5 -39.333 -58.5 -51
s-45.333 -17.5 -70 -17.5c-18.667 0 -34.834 2.16699 -48.501 6.5s-26.167 10.5 -37.5 18.5v-206zM278.001 408c-17.333 0 -32.666 -4.5 -45.999 -13.5s-24.5 -21 -33.5 -36s-15.833 -32.333 -20.5 -52s-7 -39.834 -7 -60.501c0 -24 2.5 -46.167 7.5 -66.5
s12.167 -38.166 21.5 -53.499s20.833 -27.333 34.5 -36s29.5 -13 47.5 -13c15.333 0 28.666 2.33301 39.999 7v314c-15.333 6.66699 -30 10 -44 10zM487.001 408c-15.333 0 -29.335 -3 -42.002 -9v-316c10.667 -4 23.334 -6 38.001 -6c18 0 33.833 4.33301 47.5 13
s25.167 20.667 34.5 36s16.5 33.166 21.5 53.499s7.5 42.5 7.5 66.5c0 20.667 -2.33301 40.834 -7 60.501s-11.5 37 -20.5 52s-20.167 27 -33.5 36s-28.666 13.5 -45.999 13.5z" />
    <glyph glyph-name="afii10086" unicode="&#x444;" horiz-adv-x="765" 
d="M445 -192c0 -7.33301 -2.49902 -13.5 -7.49902 -18.5s-11.167 -7.5 -18.5 -7.5h-71c-7.33301 0 -13.5 2.5 -18.5 7.5s-7.5 11.167 -7.5 18.5v207c-11.333 -8 -24.166 -14.333 -38.499 -19s-30.833 -7 -49.5 -7c-24.667 0 -48 5.83301 -70 17.5s-41.5 28.667 -58.5 51
s-30.5 49.5 -40.5 81.5s-15 68.667 -15 110c0 34 4.66699 66 14 96s22 56.167 38 78.5s35 40 57 53s46 19.5 72 19.5c20.667 0 38.167 -2.33301 52.5 -7s27.166 -11.667 38.499 -21v194c0 18.667 9.66699 29.667 29 33l37 6c5.33301 1.33301 11.333 2.33301 18 3s11 1 13 1
c17.333 0 26 -8.66699 26 -26v-209c11.333 8.66699 24 15.167 38 19.5s31 6.5 51 6.5c26 0 50 -6.5 72 -19.5s41 -30.667 57 -53s28.667 -48.5 38 -78.5s14 -62 14 -96c0 -41.333 -5 -78 -15 -110s-23.5 -59.167 -40.5 -81.5s-36.5 -39.333 -58.5 -51
s-45.333 -17.5 -70 -17.5c-18.667 0 -34.834 2.16699 -48.501 6.5s-26.167 10.5 -37.5 18.5v-206zM278.001 408c-17.333 0 -32.666 -4.5 -45.999 -13.5s-24.5 -21 -33.5 -36s-15.833 -32.333 -20.5 -52s-7 -39.834 -7 -60.501c0 -24 2.5 -46.167 7.5 -66.5
s12.167 -38.166 21.5 -53.499s20.833 -27.333 34.5 -36s29.5 -13 47.5 -13c15.333 0 28.666 2.33301 39.999 7v314c-15.333 6.66699 -30 10 -44 10zM487.001 408c-15.333 0 -29.335 -3 -42.002 -9v-316c10.667 -4 23.334 -6 38.001 -6c18 0 33.833 4.33301 47.5 13
s25.167 20.667 34.5 36s16.5 33.166 21.5 53.499s7.5 42.5 7.5 66.5c0 20.667 -2.33301 40.834 -7 60.501s-11.5 37 -20.5 52s-20.167 27 -33.5 36s-28.666 13.5 -45.999 13.5z" />
    <glyph glyph-name="afii10087" unicode="&#xf5;" horiz-adv-x="504" 
d="M475 24c2 -3.33301 3 -6.66699 3 -10c0 -5.33301 -2.16699 -9 -6.5 -11s-9.83301 -3 -16.5 -3h-85c-9.33301 -0 -16.166 2.33301 -20.499 7s-7.83301 9.33398 -10.5 14.001l-91 156h-2l-89 -156c-2.66699 -4.66699 -6.16699 -9.33398 -10.5 -14.001
s-11.166 -7 -20.499 -7h-80c-6.66699 0 -12.167 1 -16.5 3s-6.5 5.66699 -6.5 11c0 3.33301 1 6.66602 3 9.99902l153 225l-147 214c-2 2.66699 -3 6 -3 10c0 5.33301 2.16699 9 6.5 11s9.83301 3 16.5 3h82c9.33301 0 16.166 -2.16699 20.499 -6.5
s7.83301 -8.83301 10.5 -13.5l90 -147h2l85 146c2.66699 4.66699 6.16699 9.33398 10.5 14.001s11.166 7 20.499 7h78c6.66699 0 12.167 -1 16.5 -3s6.5 -5.66699 6.5 -11c0 -4 -1 -7.33301 -3 -10l-146 -209z" />
    <glyph glyph-name="afii10087" unicode="&#x445;" horiz-adv-x="504" 
d="M475 24c2 -3.33301 3 -6.66699 3 -10c0 -5.33301 -2.16699 -9 -6.5 -11s-9.83301 -3 -16.5 -3h-85c-9.33301 -0 -16.166 2.33301 -20.499 7s-7.83301 9.33398 -10.5 14.001l-91 156h-2l-89 -156c-2.66699 -4.66699 -6.16699 -9.33398 -10.5 -14.001
s-11.166 -7 -20.499 -7h-80c-6.66699 0 -12.167 1 -16.5 3s-6.5 5.66699 -6.5 11c0 3.33301 1 6.66602 3 9.99902l153 225l-147 214c-2 2.66699 -3 6 -3 10c0 5.33301 2.16699 9 6.5 11s9.83301 3 16.5 3h82c9.33301 0 16.166 -2.16699 20.499 -6.5
s7.83301 -8.83301 10.5 -13.5l90 -147h2l85 146c2.66699 4.66699 6.16699 9.33398 10.5 14.001s11.166 7 20.499 7h78c6.66699 0 12.167 -1 16.5 -3s6.5 -5.66699 6.5 -11c0 -4 -1 -7.33301 -3 -10l-146 -209z" />
    <glyph glyph-name="afii10088" unicode="&#xf6;" horiz-adv-x="583" 
d="M96 1c-7.33301 0 -13.5 2.5 -18.5 7.5s-7.5 11.167 -7.5 18.5v435c0 7.33301 2.5 13.5 7.5 18.5s11.167 7.5 18.5 7.5h72c7.33301 0 13.333 -2.5 18 -7.5s7 -11.167 7 -18.5v-366h172v366c0 7.33301 2.5 13.5 7.5 18.5s11.167 7.5 18.5 7.5h72
c7.33301 0 13.333 -2.5 18 -7.5s7 -11.167 7 -18.5v-366h38c7.33301 0 13.5 -2.5 18.5 -7.5s7.5 -11.167 7.5 -18.5v-194c0 -7.33301 -2.33301 -13.5 -7 -18.5s-10.667 -7.5 -18 -7.5h-65c-7.33301 0 -13.5 2.5 -18.5 7.5s-7.5 11.167 -7.5 18.5v125h-340z" />
    <glyph glyph-name="afii10088" unicode="&#x446;" horiz-adv-x="583" 
d="M96 1c-7.33301 0 -13.5 2.5 -18.5 7.5s-7.5 11.167 -7.5 18.5v435c0 7.33301 2.5 13.5 7.5 18.5s11.167 7.5 18.5 7.5h72c7.33301 0 13.333 -2.5 18 -7.5s7 -11.167 7 -18.5v-366h172v366c0 7.33301 2.5 13.5 7.5 18.5s11.167 7.5 18.5 7.5h72
c7.33301 0 13.333 -2.5 18 -7.5s7 -11.167 7 -18.5v-366h38c7.33301 0 13.5 -2.5 18.5 -7.5s7.5 -11.167 7.5 -18.5v-194c0 -7.33301 -2.33301 -13.5 -7 -18.5s-10.667 -7.5 -18 -7.5h-65c-7.33301 0 -13.5 2.5 -18.5 7.5s-7.5 11.167 -7.5 18.5v125h-340z" />
    <glyph glyph-name="afii10089" unicode="&#xf7;" horiz-adv-x="524" 
d="M454 26c0 -7.33301 -2.33398 -13.5 -7.00098 -18.5s-10.667 -7.5 -18 -7.5h-72c-7.33301 0 -13.5 2.5 -18.5 7.5s-7.5 11.167 -7.5 18.5v156h-2c-15.333 -10 -34.5 -18 -57.5 -24s-45.833 -9 -68.5 -9c-50 0 -89.667 13.667 -119 41s-44 69.333 -44 126v145
c0 7.33301 2.5 13.5 7.5 18.5s11.167 7.5 18.5 7.5h71c7.33301 0 13.333 -2.5 18 -7.5s7.33398 -11.167 8.00098 -18.5v-132c0 -29.333 6.16699 -51.833 18.5 -67.5s34.5 -23.5 66.5 -23.5c15.333 0 30.5 2.5 45.5 7.5s27.5 11.167 37.5 18.5v197h1
c0 7.33301 2.5 13.5 7.5 18.5s11.167 7.5 18.5 7.5h71c7.33301 0 13.333 -2.5 18 -7.5s7 -11.167 7 -18.5v-435z" />
    <glyph glyph-name="afii10089" unicode="&#x447;" horiz-adv-x="524" 
d="M454 26c0 -7.33301 -2.33398 -13.5 -7.00098 -18.5s-10.667 -7.5 -18 -7.5h-72c-7.33301 0 -13.5 2.5 -18.5 7.5s-7.5 11.167 -7.5 18.5v156h-2c-15.333 -10 -34.5 -18 -57.5 -24s-45.833 -9 -68.5 -9c-50 0 -89.667 13.667 -119 41s-44 69.333 -44 126v145
c0 7.33301 2.5 13.5 7.5 18.5s11.167 7.5 18.5 7.5h71c7.33301 0 13.333 -2.5 18 -7.5s7.33398 -11.167 8.00098 -18.5v-132c0 -29.333 6.16699 -51.833 18.5 -67.5s34.5 -23.5 66.5 -23.5c15.333 0 30.5 2.5 45.5 7.5s27.5 11.167 37.5 18.5v197h1
c0 7.33301 2.5 13.5 7.5 18.5s11.167 7.5 18.5 7.5h71c7.33301 0 13.333 -2.5 18 -7.5s7 -11.167 7 -18.5v-435z" />
    <glyph glyph-name="afii10090" unicode="&#xf8;" horiz-adv-x="779" 
d="M329 461c0 7.33301 2.5 13.5 7.5 18.5s11.167 7.5 18.5 7.5h71c7.33301 0 13.333 -2.5 18 -7.5s7 -11.167 7 -18.5v-366h136v366c0 7.33301 2.5 13.5 7.5 18.5s11.167 7.5 18.5 7.5h71c7.33301 0 13.333 -2.5 18 -7.5s7 -11.167 7 -18.5v-435
c0 -7.33301 -2.5 -13.5 -7.5 -18.5s-11.167 -7.5 -18.5 -7.5h-587c-7.33301 0 -13.5 2.5 -18.5 7.5s-7.5 11.167 -7.5 18.5v435c0 7.33301 2.5 13.5 7.5 18.5s11.167 7.5 18.5 7.5h71c7.33301 0 13.333 -2.5 18 -7.5s7 -11.167 7 -18.5v-366h137v366z" />
    </font>
</defs>
</svg>
